<?xml version="1.0" encoding="UTF-8" standalone="no"?><!DOCTYPE svg PUBLIC "-//W3C//DTD SVG 1.1//EN" "http://www.w3.org/Graphics/SVG/1.1/DTD/svg11.dtd"><svg width="100%" height="100%" viewBox="0 0 1229 869" version="1.1" xmlns="http://www.w3.org/2000/svg" xmlns:xlink="http://www.w3.org/1999/xlink" xml:space="preserve" xmlns:serif="http://www.serif.com/" style="fill-rule:evenodd;clip-rule:evenodd;stroke-linecap:round;stroke-linejoin:round;"><g id="LineaUnida"><path d="M596.886,139.115c-0.005,-0.012 0,0.024 0,0.036c0.125,0.989 0.9,3.166 1.894,5.486c1.632,3.694 4.661,10.426 6.473,13.973c1.613,2.954 5.004,8.942 6.785,11.978c1.898,3.017 5.921,9.266 7.733,11.803c2.148,2.88 6.727,8.906 9.156,11.923c2.45,2.897 7.258,8.273 9.842,11.021c2.58,2.633 7.752,7.781 10.344,10.294c2.652,2.453 7.968,7.255 10.634,9.602c2.714,2.282 7.733,6.221 11.309,8.746c1.57,1.044 4.574,2.892 5.945,3.586c1.142,0.569 1.241,0.607 1.27,0.588m-81.672,-99.022c1.464,0 4.944,0.113 6.859,0.228c3.449,0.288 10.668,1.138 14.215,1.598c3.643,0.569 10.817,1.745 14.347,2.354c7.493,1.416 22.308,4.548 29.683,6.298c7.037,1.802 21.77,5.918 29.057,8.122c3.408,1.09 10.344,3.386 13.872,4.591c3.569,1.298 10.584,3.893 14.033,5.191c3.48,1.39 10.274,4.174 13.589,5.573c3.482,1.529 10.19,4.702 13.337,6.314c1.598,0.866 5.016,2.82 6.065,3.473c1.476,0.958 4.267,2.892 5.597,3.943c1.524,1.231 3.653,3.343 4.963,4.982c0.91,1.145 2.892,4.214 3.418,5.165c1.884,3.406 2.66,7.964 2.68,8.254m-3.34,-8.451c0.283,0.538 0.989,1.922 1.274,2.755c0.331,0.986 1.058,4.795 1.414,7.008c0.338,2.465 0.617,6.014 0.646,7.061c0.041,1.56 -0.13,4.728 -0.384,7.224c-0.36,3.031 -1.747,10.008 -2.832,14.232c-1.214,4.246 -3.533,11.004 -4.601,13.711c-1.37,3.209 -4.476,9.84 -6.07,12.982c-1.718,3.221 -5.292,9.682 -7.145,12.919c-1.942,3.211 -5.866,9.547 -7.85,12.67c-1.822,2.772 -5.628,8.429 -7.615,11.311c-4.368,6.077 -13.639,18.845 -18.542,25.534c-2.522,3.389 -6.686,8.981 -8.33,11.182c-0.038,0.055 -0.101,0.144 -0.187,0.269m-51.12,-113.338c-0.686,1.882 -1.534,3.799 -2.489,5.642c-0.806,1.502 -2.762,4.704 -3.545,5.868c-0.619,0.91 -3.108,4.171 -4.236,5.556c-0.842,1.006 -3.631,4.09 -4.882,5.39c-0.835,0.857 -4.709,4.423 -5.534,5.112c-1.474,1.229 -3.941,3.026 -6.053,4.416c-1.524,0.974 -3.55,2.261 -3.821,2.614c0.031,0.23 0.18,0.427 0.571,0.65c1.255,0.713 4.202,1.654 6.427,2.186c2.882,0.629 10.438,1.562 13.939,1.87c3.595,0.226 10.997,0.602 14.801,0.754c3.643,0.046 11.623,0.041 14.215,-0.13c0.794,-0.067 2.038,-0.17 2.1,-0.178c0.062,-0.007 0.149,-0.022 0.259,-0.043m-51.185,-4.087c0.038,-0.002 3.722,0.295 6.442,0.391c2.693,0.062 4.963,0.036 6.898,-0.108c3.192,-0.276 9.022,-1.178 13.318,-2.05c4.238,-0.984 10.738,-2.854 13.656,-3.866c1.272,-0.463 5.016,-2.004 6.319,-2.652c1.759,-0.9 4.704,-2.786 5.58,-3.55c0.612,-0.54 1.136,-1.323 1.489,-1.962c0.079,-0.149 0.177,0.271 0.177,0.274m1.017,-5.935c0.005,-0.014 -0.706,5.088 -3.247,14.347c-1.258,4.325 -3.324,10.003 -4.543,13.241c-1.243,3.144 -4.704,10.236 -6.401,13.654c-1.838,3.55 -5.566,10.327 -7.392,13.45c-1.834,3.022 -5.57,9.034 -7.433,11.856c-2.285,3.307 -4.846,6.878 -5.189,7.358c-0.036,0.048 -0.079,0.106 -0.132,0.173m-16.403,0.825c0.506,-0.358 1.37,-0.391 2.236,-0.494c1.574,-0.175 4.346,-0.024 7.135,0.293c3.66,0.497 10.642,1.884 14.011,2.674c3.331,0.845 10.018,2.714 13.406,3.698c3.449,1.099 10.334,3.367 13.793,4.603c3.389,1.262 9.984,3.893 13.106,5.251c2.99,1.375 9.254,4.762 12.223,6.72c2.011,1.378 4.008,2.858 5.244,3.902c1.327,1.128 2.652,2.743 3.029,3.238c0.043,0.058 0.108,0.146 0.194,0.264m-1.725,-15.026c0.605,-0.106 4.742,-0.267 5.366,-0.348c1.572,-0.204 4.632,-0.245 5.978,-0.031c0.898,0.149 2.722,0.679 3.473,1.01c0.821,0.37 1.98,1.09 2.602,1.608c0.542,0.463 1.481,1.589 1.781,2.095c0.252,0.427 0.838,1.826 1.018,2.378c0.302,0.948 0.629,5.227 0.514,6.725c-0.034,0.434 -0.125,1.075 -0.197,1.421c-0.002,0.012 -0.029,0.034 -0.029,0.022m-186.782,-35.844l-0.281,0.106c-0.149,-0.156 0.151,-0.953 0.694,-2.15c1.716,-3.703 5.364,-11.45 5.498,-11.546c0.569,-0.386 4.478,-1.176 6.406,-1.414c1.529,-0.178 4.716,-0.437 6.341,-0.516c1.397,-0.043 5.28,0.014 7.176,0.106c4.061,0.298 11.117,1.308 14.393,2.004c1.651,0.379 4.908,1.229 6.739,1.783c3.602,1.183 10.02,3.773 13.121,5.126c3.11,1.414 9.85,4.728 12.674,6.214c4.538,2.575 19.846,11.815 26.285,15.763c3.223,1.949 9.689,5.772 12.931,7.644c3.331,1.829 10.217,5.352 13.985,7.123c5.258,2.378 8.647,3.73 13.272,5.237c1.699,0.518 5.129,1.392 6.821,1.781c1.685,0.346 5.054,0.943 6.775,1.181c3.869,0.451 8.741,0.756 12.353,0.859c4.27,0.017 28.008,-0.876 32.218,-0.878c3.067,0.077 9.958,0.454 13.565,0.758c1.248,0.127 5.407,0.696 7.171,0.984c2.165,0.391 5.206,1.07 6.924,1.507c3.912,1.056 8.422,2.698 9.941,3.497c0.444,0.247 0.828,0.61 0.84,0.881c0.007,0.977 -5.7,7.121 -6.775,8.016c-0.238,0.197 -0.384,0.29 -0.406,0.278l0.173,-0.226m6.214,-7.135c-1.25,-0.451 -3.072,-0.677 -5.323,-0.838c-2.117,-0.13 -5.131,-0.086 -7.87,0.067c-5.748,0.437 -9.766,1.054 -14.28,1.922c-3.374,0.742 -10.19,2.839 -14.038,4.121c-2.83,1.008 -10.596,4.166 -14.071,5.635c-6.826,3.041 -20.412,9.077 -27.173,12.074c-3.406,1.416 -10.236,4.178 -13.848,5.522c-3.631,1.286 -10.819,3.626 -14.467,4.697c-4.512,1.226 -11.297,2.772 -14.808,3.494c-1.418,0.278 -4.308,0.78 -6.425,1.051c-1.884,0.19 -5.458,0.511 -7.452,0.514c-1.819,0 -5.635,-0.302 -7.289,-0.576c-2.066,-0.343 -5.338,-1.188 -7.27,-1.882c-1.469,-0.53 -4.752,-2.03 -6.101,-2.777c-1.457,-0.823 -3.852,-2.33 -5.794,-3.708c-1.793,-1.339 -4.164,-3.271 -5.52,-4.442c-0.847,-0.751 -4.183,-4.092 -5.064,-5.059c-1.193,-1.354 -3.072,-3.6 -4.548,-5.551c-1.894,-2.623 -5.779,-8.964 -7.164,-11.938c-1.354,-2.986 -4.289,-9.955 -5.573,-13.337c-1.222,-3.336 -3.811,-10.219 -5.177,-13.766c-1.426,-3.521 -4.392,-10.399 -5.954,-13.721c-0.749,-1.5 -2.292,-4.524 -3.156,-6.098c-1.178,-2.059 -2.443,-4.07 -3.662,-5.738c-0.926,-1.248 -3.437,-3.917 -4.742,-4.79c-0.626,-0.413 -2.194,-1.126 -2.945,-1.301c-0.874,-0.19 -2.263,-0.134 -3.18,0.13c-0.806,0.24 -2.294,1.109 -2.909,1.63c-0.533,0.461 -1.843,1.932 -2.278,2.546c-0.588,0.842 -2.774,5.398 -3.098,6.242c-0.077,0.202 -0.432,1.258 -0.487,1.426m20.962,-1.104c-1.469,0.053 -4.596,0.202 -6.259,0.295c-2.34,0.194 -10.375,1.43 -13.241,1.992c-5.117,1.138 -22.954,5.563 -30.806,7.536c-1.992,0.523 -7.061,1.879 -7.414,2.124c-0.13,0.098 -0.067,0.466 0.062,0.912c1.423,4.31 2.592,8.94 3.324,12.946c0.677,4.253 1.476,11.273 1.812,15.074c0.161,2.045 0.218,5.35 0.24,6.893c0.017,1.966 -0.782,11.662 -1.296,15.098c-0.564,3.221 -2.664,12.336 -2.736,12.72m15.703,-12.134c0.002,-0.002 -0.007,0.005 -0.01,0.007c-1.538,1.116 -4.409,3.269 -5.746,4.303c-1.704,1.382 -4.001,3.482 -5.249,4.682c-2.086,2.107 -7.14,7.836 -9.588,10.817c-2.318,2.959 -6.727,8.851 -8.779,11.63c-2.29,3.218 -5.988,8.813 -8.006,12.019c-0.905,1.519 -2.662,4.548 -3.475,6.082c-0.766,1.531 -2.232,4.538 -2.899,6.005c-0.586,1.33 -1.968,5.22 -2.585,7.008c-0.818,2.532 -1.56,5.174 -1.937,7.284c-0.12,0.682 -0.269,1.915 -0.302,2.206c0,0.007 -0.002,0.024 -0.002,0.017m-0.134,1.238c0.614,-0.158 0.946,-0.235 1.387,-0.314c1.498,-0.266 4.733,-0.602 6.905,-0.698c3.466,-0.094 10.783,0.24 14.165,0.506c4.282,0.466 10.529,1.442 13.865,2.148c1.805,0.413 5.426,1.378 7.222,1.932c1.181,0.377 5.777,2.136 6.85,2.698c0.504,0.266 2.405,1.392 2.978,1.855c0.622,-1.08 2.832,-3.54 4.205,-4.958c1.889,-1.858 8.042,-7.411 10.795,-9.734c3.461,-2.803 8.304,-6.367 12.192,-8.957c0.989,-0.648 1.145,-0.734 1.699,-1.001c-0.041,0.134 -2.489,3.024 -4.092,5.03c-1.207,1.584 -3.209,4.37 -4.238,5.887c-0.994,1.536 -2.88,4.74 -3.758,6.353c-1.644,3.154 -3.85,8.376 -5.042,11.698c-0.166,0.461 -0.19,0.547 -0.18,0.538l0.139,-0.406m183.305,-129.398c0.619,-0.845 2.784,-4.721 3.85,-6.211c0.749,-1.027 1.522,-1.994 2.102,-2.573c1.418,-1.394 3.842,-3.197 5.04,-3.905c1.212,-0.715 3.778,-1.92 5.162,-2.407c1.392,-0.487 4.193,-1.164 5.645,-1.38c1.428,-0.209 4.2,-0.35 5.573,-0.29c1.858,0.101 4.954,0.67 6.55,1.298c1.682,0.67 4.31,2.306 5.482,3.266c1.07,0.883 3.122,3.209 4.363,4.918c1.807,2.503 4.188,6.614 4.529,7.214c0.259,0.439 0.526,0.866 0.528,0.854m-43.778,6.389c0.466,-0.257 1.152,-0.156 2.011,0.146c0.902,0.322 5.148,1.519 6.466,1.778c1.896,0.355 5.455,0.751 6.931,0.826c2.258,0.091 4.721,0.086 6.713,-0.017c1.399,-0.086 5.134,-0.564 6.708,-0.847c1.903,-0.367 5.023,-1.193 6.43,-1.735c1.668,-0.648 4.507,-2.239 5.527,-3.014c0.542,-0.418 2.273,-2.016 2.683,-2.448c0.444,-0.47 0.936,-1.109 1.042,-1.241m-46.831,1.656c0.713,-0.509 1.313,-0.864 1.891,-1.056c1.222,-0.394 3.737,-0.806 5.242,-0.871c1.032,-0.041 5.513,0.374 7.435,0.566c2.712,0.257 4.99,0.326 6.703,0.216c1.915,-0.132 5.266,-0.948 6.612,-1.627c0.852,-0.437 2.122,-1.342 2.453,-1.685c0.588,-0.617 0.761,-1.03 0.782,-1.154m-9.792,-14.174c-0.18,-0.487 -0.331,-0.758 -0.586,-0.986c-1.078,-0.96 -3.89,-2.722 -5.376,-3.437c-1.308,-0.614 -3.71,-1.534 -5.062,-1.942c-1.339,-0.403 -4.392,-1.066 -5.616,-1.176c-0.842,-0.072 -2.604,-0.031 -3.271,0.113c-1.476,0.334 -4.745,1.951 -5.676,2.657c-0.089,0.067 -0.226,0.178 -0.408,0.334m26.057,50.256c1.627,0.511 4.85,1.529 6.442,2.033c2.045,0.65 5.808,1.865 7.531,2.431c2.964,1.03 4.452,1.649 6.631,2.647c1.55,0.744 5.323,2.606 6.269,3.134c3.974,2.287 8.172,4.896 12.149,7.62c3.283,2.316 9.773,6.977 12.823,9.29c2.899,2.273 8.45,6.912 11.177,9.362c3.233,3.043 7.248,7.178 10.234,10.524c1.471,1.699 7.79,9.826 8.098,10.253c1.45,2.03 9.926,15.487 10.718,16.742c0.293,0.456 0.768,1.193 0.95,1.471c0.007,0.012 0.026,0.041 0.019,0.031m0.36,0.516c-0.218,0.61 -0.694,1.937 -0.948,2.654c-0.262,0.744 -1.068,3.005 -1.09,3.067c-0.072,0.221 -0.11,0.353 -0.115,0.396c-0.002,0.046 0.048,-0.074 0.07,-0.113m0.83,-4.505c-0.257,-0.576 -0.914,-1.442 -1.942,-2.153c-1.01,-0.686 -3.679,-1.961 -5.383,-2.558c-1.07,-0.374 -6.022,-1.366 -7.322,-1.555c-2.635,-0.384 -9.936,-0.739 -14.566,-0.746c-1.855,0.034 -5.53,0.209 -7.366,0.317c-1.798,0.156 -5.767,0.658 -7.205,0.912c-1.826,0.355 -5.544,1.123 -7.44,1.536c-2.772,0.612 -3.746,0.722 -3.984,0.624c-0.355,-0.158 -0.689,-0.518 -0.859,-0.931c-1.046,-2.621 -4.826,-8.474 -5.102,-8.609c-0.074,-0.034 -0.262,-0.094 -0.566,-0.178c-0.295,0.559 -0.396,0.838 -0.427,1.25c-0.185,2.052 -0.55,8.676 -0.698,10.442c-0.144,1.358 -0.401,2.542 -0.734,2.839c-0.559,0.473 -5.064,1.922 -7.099,2.575c-2.654,0.931 -5.268,2.09 -6.821,2.789c-3.074,1.452 -6.871,3.307 -7.426,3.463c-0.274,0.07 -0.785,-0.101 -1.123,-0.36c-0.269,-0.216 -2.119,-4.111 -2.731,-5.292c-1.658,-3.096 -5.287,-9.132 -7.627,-12.502c-1.219,-1.706 -3.48,-4.831 -4.519,-6.245c-0.478,-0.643 -1.481,-1.697 -1.735,-1.889c-0.293,-0.211 -0.744,-0.365 -0.924,-0.288c-0.324,0.17 -0.434,1.706 -0.37,2.28c0.192,1.728 2.018,10.896 2.842,14.851c0.754,3.552 2.76,12.914 2.856,13.745c0.072,0.665 -0.17,1.858 -0.439,2.148c-0.293,0.3 -4.058,2.621 -5.395,3.509c-1.471,1.006 -4.481,3.187 -5.947,4.279c-1.476,1.157 -4.351,3.475 -5.707,4.644c-1.812,1.63 -3.828,3.617 -5.05,5.014c-1.27,1.457 -3.031,3.982 -4.171,5.954c-1.706,3.007 -3.646,8.054 -4.003,9.396c-0.211,0.818 -0.266,1.231 -0.302,1.706m29.779,-17.885c-1.45,0.61 -5.573,2.374 -6.554,2.837c-2.46,1.171 -9.391,5.486 -12.845,7.762c-3.01,2.045 -9.312,6.434 -12.602,8.774c-3.173,2.34 -9.984,7.452 -11.839,8.99c-2.568,2.218 -8.844,7.757 -10.138,9.07c-2.501,2.614 -7.798,8.438 -10.421,11.371c-2.345,2.693 -7.728,8.741 -9.763,10.625c-1.109,1.001 -2.263,2.042 -2.261,2.038c0.031,-0.468 -1.399,-3.038 -2.674,-4.786c-1.771,-2.338 -6.538,-7.906 -9.084,-10.802c-2.808,-3.137 -8.227,-9.149 -10.838,-12.019c-3.83,-4.09 -9.048,-9.242 -10.332,-10.387c-1.31,-1.162 -3.168,-2.597 -5.347,-4.154c-1.286,-0.888 -4.459,-2.707 -5.748,-3.295c-1.608,-0.73 -5.086,-1.891 -7.037,-2.309c-1.762,-0.372 -5.525,-0.797 -7.202,-0.845c-4.33,-0.091 -9.082,0.271 -14.722,0.898c-3.468,0.442 -10.572,1.44 -14.208,1.997c-3.955,0.653 -13.478,2.29 -15.494,2.734c-1.104,0.245 -4.344,1.145 -6.408,1.762c-1.344,0.418 -2.023,0.722 -1.937,0.998m-1.586,1.282c-0.007,-0.007 0.242,0.259 0.461,0.494c0.83,0.895 1.896,1.742 2.63,2.17c1.162,0.662 4.43,1.903 6.187,2.474c2.63,0.792 10.601,2.794 14.198,3.679c1.776,0.468 5.374,1.546 7.181,2.198c2.345,0.888 4.356,1.762 5.479,2.546c1.678,1.186 3.43,2.779 4.918,4.562c2.393,2.971 7.51,9.442 9.624,11.551c1.111,1.104 4.133,3.701 5.422,4.572c0.617,0.41 1.85,1.027 2.333,1.138c0.35,0.077 1.303,0.199 1.627,0.221c0.072,0.005 0.144,0.005 0.216,0m-0.962,1.025c-3.439,1.26 -9.636,3.034 -13.138,4.001c-4.138,1.092 -12.038,3.187 -15.806,4.193c-5.842,1.61 -10.387,3.146 -13.351,4.392c-1.32,0.557 -4.589,2.304 -5.94,3.281c-1.526,1.126 -3,2.362 -4.721,4.046c-2.582,2.606 -7.711,8.105 -10.21,10.819c-2.28,2.364 -6.562,6.264 -8.064,7.603c-0.305,0.274 -1.805,1.606 -1.91,2.023c-0.062,0.288 0.372,0.84 0.859,1.214c0.972,0.713 4.193,1.937 5.885,2.318c1.63,0.362 5.126,0.838 6.794,0.893c3.994,0.094 8.215,-0.163 13.706,-0.713c3.962,-0.444 11.746,-1.368 15.566,-1.85c3.432,-0.406 9.569,-1.027 13.027,-1.198c1.814,-0.055 6.026,0.05 7.14,0.12c1.795,0.125 5.05,0.631 7.085,0.991c2.698,0.518 8.998,2.002 10.709,2.16c0.679,0.06 2.378,0.151 2.705,0.166m-11.338,0.072c0.259,-0.043 1.361,0.684 1.718,1.03c0.97,0.953 6.218,8.446 8.393,11.63c0.79,1.104 3.446,4.31 4.056,4.97c1.056,1.14 3.384,3.286 4.81,4.358c1.354,1.015 4.406,2.851 5.844,3.528c1.757,0.821 4.858,1.913 6.794,2.388c1.488,0.36 5.011,0.881 6.526,0.977c1.486,0.089 4.754,0.086 6.864,-0.067c2.143,-0.19 5.35,-0.701 7.114,-1.032c1.205,-0.242 4.195,-0.967 6.708,-1.738c3.386,-1.13 12.259,-4.325 13.027,-4.582c0.132,-0.046 0.322,-0.103 0.566,-0.178l0.036,0.125m151.538,-160.846c0.005,0.029 0.026,0.086 0.065,0.17c0.629,1.392 2.21,4.925 2.815,6.636c0.655,1.874 2.834,10.565 3.59,14.064c0.684,3.545 1.978,11.642 2.306,14.309c0.398,3.665 1.07,10.265 1.349,13.2c0.492,7.526 1.466,23.518 1.946,31.985c0.156,3.494 0.475,12.3 0.511,16.399c-0.065,2.89 -0.24,9.216 -0.53,12.581c-0.146,1.596 -0.566,5.266 -0.787,7.176c-0.151,1.126 -0.9,5.278 -1.229,6.864c-0.461,1.975 -1.15,6.257 -1.565,7.334m0,0c-3.264,1.553 -9.979,4.632 -13.481,5.976c-3.559,1.291 -10.555,3.775 -13.994,4.966c-3.742,1.231 -11.021,3.559 -14.558,4.654c-3.725,1.099 -11.11,3.216 -14.772,4.234c-3.684,0.965 -11.17,2.839 -14.971,3.751c-3.931,0.838 -11.69,2.429 -15.518,3.178c-3.686,0.667 -10.56,1.814 -13.776,2.246c-3.818,0.468 -11.729,1.368 -14.254,1.546c-3.799,0.158 -11.683,0.42 -15.437,0.458c-3.017,-0.022 -10.961,-0.497 -14.786,-0.782c-5.693,-0.516 -10.022,-1.195 -10.459,-1.246c-0.746,-0.079 -1.91,0.05 -2.714,0.242c-1.02,0.247 -2.191,0.61 -3.49,1.056c-0.391,0.139 -1.246,0.442 -1.339,0.48c-0.079,0.034 -0.223,0.098 -0.432,0.197m23.721,-391.368c0.346,-0.768 0.428,-1.078 0.934,-1.675c0.917,-1.07 3.523,-3.672 4.927,-4.908c1.488,-1.258 4.572,-3.679 5.45,-4.298c1.98,-1.356 4.296,-2.784 5.94,-3.658c1.464,-0.77 4.81,-2.208 6.446,-2.75c1.762,-0.576 5.047,-1.342 6.545,-1.562c1.421,-0.206 4.735,-0.406 6.607,-0.31c1.565,0.086 4.548,0.574 6.25,1.015c2.861,0.77 6.216,2.57 6.545,2.806m-44.242,34.063c0.545,-0.461 0.862,-0.706 1.306,-0.994c1.426,-0.924 4.471,-2.659 5.983,-3.42c1.589,-0.77 4.622,-2.17 6.094,-2.767c4.166,-1.608 11.28,-3.77 14.424,-4.346c2.234,-0.401 5.534,-0.818 7.426,-0.902c1.882,-0.077 5.422,0.058 7.238,0.281c1.781,0.223 5.309,1.034 5.914,1.226c1.226,0.396 4.922,2.033 6.185,2.923c0.857,0.617 1.764,1.538 1.92,1.865c0.134,0.283 0.163,0.552 0.103,0.662m-56.592,5.472c-0.005,-0.345 0.459,-1.294 0.958,-1.87c0.79,-0.9 3.586,-3.59 4.607,-4.436c1.201,-0.967 3.308,-2.553 5.131,-3.779c1.45,-0.946 4.635,-2.7 6.183,-3.504c1.376,-0.709 5.537,-2.438 6.57,-2.8c2.488,-0.837 4.339,-1.343 6.815,-1.881c2.098,-0.427 5.066,-0.774 6.547,-0.832c1.599,-0.058 4.614,0.147 6.038,0.389c1.387,0.24 3.996,1.014 5.376,1.641c1.653,0.76 4.707,2.93 5.619,3.781c2.294,2.163 4.008,5.012 4.171,5.45c-0.012,0.002 -2.639,-2.275 -3.928,-3.168c-1.222,-0.821 -3.849,-2.247 -5.229,-2.788c-1.62,-0.629 -4.796,-1.357 -6.204,-1.529c-1.688,-0.2 -5.085,-0.296 -6.74,-0.217c-2.077,0.117 -5.637,0.543 -6.997,0.8c-1.714,0.326 -5.309,1.284 -6.227,1.583c-1.956,0.664 -5.127,1.963 -5.931,2.35c-0.825,0.396 -4.915,2.564 -6.232,3.296c-1.415,0.804 -5.894,3.919 -6.635,4.513m10.042,44.508c0.521,0.406 0.819,0.891 1.407,1.244c1.337,0.797 4.824,2.287 6.55,2.82c1.735,0.53 5.686,1.332 7.426,1.498c1.8,0.168 4.889,0.079 6.408,-0.144c0.643,-0.094 2.326,-0.432 2.858,-0.588c0.578,-0.173 -0.031,0.094 0,0m-46.346,-103.603c-0.13,0.439 -2.148,8.983 -3.259,12.718c-2.016,6.067 -6.78,19.865 -9.526,27.598c-2.825,7.752 -8.52,23.551 -9.924,28.075c-1.277,4.236 -2.522,9.002 -3.612,14.275c-0.742,3.787 -1.627,11.304 -1.807,13.663c-0.199,3.31 -0.36,10.788 -0.24,14.378c0.091,1.723 0.305,5.134 0.449,6.749c0.295,2.614 0.732,5.47 1.087,7.138c0.365,1.697 1.231,4.74 1.771,6.206c0.533,1.447 1.795,4.193 2.532,5.522c0.749,1.342 2.407,3.83 3.278,4.906c1.291,1.591 3.958,4.061 5.434,5.035c1.43,0.931 4.634,2.23 6.331,2.597c1.668,0.355 4.687,0.506 6.674,0.336c1.517,-0.134 5.702,-1.138 6.629,-1.43c1.644,-0.526 4.889,-2.066 6.262,-2.916c1.339,-0.833 4.222,-3.043 5.542,-4.248c1.502,-1.378 3.6,-3.895 4.409,-5.374c0.806,-1.486 1.956,-4.778 2.47,-6.821c0.262,-1.049 1.03,-5.174 1.169,-6.746c0.151,-1.757 0.173,-5.03 -0.019,-6.91c-0.254,-2.268 -0.694,-4.855 -1.253,-6.97c-0.953,-3.274 -2.976,-10.02 -4.051,-13.493c-1.133,-3.458 -3.47,-10.346 -4.673,-13.776c-1.262,-3.413 -3.83,-10.241 -5.138,-13.661c-1.282,-3.538 -3.641,-10.594 -4.738,-13.956c-1.135,-3.658 -3.187,-10.946 -3.768,-13.337c-0.751,-3.298 -1.903,-9.146 -2.666,-14.11c-0.286,-1.934 -0.943,-6.578 -1.022,-7.574c-0.026,-0.336 -0.216,-4.471 -0.113,-6.072c0.331,-4.606 1.022,-7.702 1.718,-10.445c0.341,-1.342 0.506,-2.17 0.612,-2.822m-20.974,8.878c-0.254,-0.658 -0.425,-0.986 -0.672,-1.162c-0.552,-0.389 -4.848,-2.839 -5.95,-3.36c-0.914,-0.43 -4.337,-1.802 -5.95,-2.302c-1.769,-0.542 -5.292,-1.123 -6.655,-0.953c-0.427,0.058 -0.967,0.216 -1.188,0.348c-0.202,0.132 -0.425,0.458 -0.466,0.674c-0.065,0.437 0.382,1.562 0.977,2.242c0.24,0.266 1.039,0.965 1.661,1.39c1.308,0.878 5.11,2.27 7.176,2.978c2.587,0.869 5.201,1.594 6.274,1.838c2.345,0.526 3.161,0.074 3.324,-0.125c-0.048,-0.415 -0.622,-0.883 -1.622,-1.51c-1.03,-0.614 -4.094,-1.858 -5.815,-2.542c-4.646,-1.771 -8.074,-2.921 -8.369,-2.89l8.534,5.414m8.455,0.334c0.029,0.046 -0.218,0.341 -0.48,0.521c-0.113,0.079 -1.889,0.869 -2.51,1.075m9.828,-15.702c-0.581,-0.041 -1.874,-4.343 -3.545,-7.017c-1.07,-1.771 -2.1,-3.665 -3.07,-5.594c-0.504,-1.027 -1.975,-4.428 -2.767,-6.557c-0.456,-1.303 -1.654,-5.318 -1.973,-6.598c-0.799,-3.434 -1.954,-10.294 -2.261,-13.927c-0.142,-2.306 -0.178,-5.698 -0.149,-6.624c0.074,-2.124 0.494,-5.681 0.893,-7.346c0.43,-1.783 1.723,-5.1 2.592,-6.624c0.876,-1.519 3.067,-4.265 4.255,-5.306c0.545,-0.473 2.328,-1.766 2.53,-1.894c0.691,-0.434 2.218,-1.075 2.678,-1.224c0.626,-0.199 2.028,-0.442 2.707,-0.468c0.67,-0.022 1.994,0.11 2.647,0.264c0.694,0.17 1.735,0.576 2.551,0.977c0.821,0.408 3.713,2.635 4.831,3.794c1.147,1.202 3.194,3.84 4.217,5.422c1.668,2.635 4.524,8.887 5.614,11.856c0.415,1.14 3.742,11.357 4.934,14.798c1.034,2.794 2.7,6.406 2.978,6.95c0.866,1.694 2.791,4.37 3.605,5.167c0.624,0.605 2.218,1.757 3.058,2.196c0.922,0.473 2.438,1.03 3.466,1.279c1.562,0.372 4.493,0.547 5.959,0.408c0.646,-0.062 1.714,-0.247 2.326,-0.449m-2.926,0.355c0.089,0.034 0.59,0.245 0.749,0.278c0.365,0.072 0.943,0.022 1.241,-0.094c0.574,-0.24 1.697,-0.972 2.366,-1.579c0.818,-0.754 1.613,-1.75 2.093,-2.58c1.159,-2.006 2.309,-4.637 3.074,-6.854c0.958,-2.923 3.154,-11.124 3.826,-13.903c0.794,-3.427 3.778,-22.886 4.963,-30.857c0.545,-3.59 1.61,-10.222 2.347,-14.126c1.13,-5.575 2.196,-10.087 3.526,-13.85c0.437,-1.21 2.239,-5.078 2.839,-6.046c0.514,-0.821 3.538,-4.81 4.74,-6.046c1.003,-1.025 3.61,-3.257 5.436,-4.649c1.502,-1.114 4.262,-2.726 6.55,-3.838c2.491,-1.162 4.594,-1.956 6.691,-2.479c2.328,-0.571 5.482,-1.03 6.842,-1.14c1.325,-0.103 4.994,-0.182 6.859,-0.089c1.764,0.094 5.438,0.59 7.07,0.953c1.891,0.422 4.978,1.349 7.106,2.131c1.411,0.53 5.158,2.246 6.684,3.065c3.854,2.172 7.423,4.536 11.083,7.142c3.862,2.83 8.813,6.802 11.51,9.12c2.011,1.8 8.503,8.268 10.279,10.198c3.005,3.362 6.943,8.155 9.341,11.441c2.201,3.115 6.185,9.106 8.095,12.127c1.85,3.036 5.441,9.266 7.214,12.396c1.834,3.341 5.405,9.962 7.142,13.243c1.668,3.283 4.79,10.006 6.245,13.49c0.679,1.704 2.004,5.287 2.657,7.114c0.6,1.807 1.483,4.69 2.095,7.102c0.406,1.759 1.219,5.899 1.373,6.967c0.228,1.726 0.576,5.201 0.696,6.926c0.067,1.106 0.101,5.645 0.055,7.538c-0.072,1.838 -0.377,5.398 -0.574,7.133c-0.314,2.323 -0.845,5.179 -1.219,6.914c-0.552,2.304 -1.258,4.699 -1.939,6.751c-0.562,1.637 -2.004,5.323 -2.534,6.434c-0.698,1.457 -2.491,4.459 -3.566,5.875c-1.152,1.507 -3.07,3.629 -4.958,5.527c-1.488,1.447 -4.346,3.778 -5.856,4.829c-1.55,1.073 -4.68,2.798 -6.391,3.557c-1.488,0.655 -5.364,1.896 -6.931,2.225c-1.382,0.286 -6.329,0.828 -7.258,0.886c-2.081,0.118 -3.962,0.12 -7.181,-0.019c-3.696,-0.223 -11.165,-0.686 -14.938,-0.926c-4.457,-0.242 -11.239,-0.389 -14.758,-0.43c-1.802,0.017 -5.832,0.163 -7.762,0.286c-2.412,0.175 -5.119,0.773 -6.106,1.248c-0.689,0.338 -2.453,1.481 -2.882,2.122c-0.166,0.254 -0.257,0.641 -0.3,1.037m-256.963,86.59c-0.386,1.049 -1.747,3.859 -2.974,6.151c-0.161,0.298 -0.262,0.48 -0.307,0.547c-0.055,0.079 -0.173,0.226 -0.353,0.437m83.885,34.961c0.002,-0.034 0.005,-0.074 0.01,-0.122c0.06,-0.744 -0.034,-1.507 -0.367,-2.136c-0.389,-0.708 -1.286,-1.728 -1.954,-2.208c-0.674,-0.473 -1.992,-0.984 -2.753,-1.037c-0.778,-0.043 -2.39,0.3 -3.146,0.665c-0.734,0.37 -1.954,1.426 -2.4,2.086c-0.442,0.67 -0.926,2.17 -0.938,2.911c0,0.754 0.466,2.078 0.926,2.678c0.451,0.571 1.644,1.435 2.34,1.702c0.691,0.252 2.15,0.391 2.921,0.29c0.744,-0.103 2.016,-0.545 2.654,-0.902c0.672,-0.384 2.508,-2.182 2.899,-2.678c0.137,-0.182 0.341,-0.451 0.523,-0.662m29.678,21.593c0.235,0.3 0.461,0.509 0.799,0.703c1.094,0.614 4.219,1.562 6.007,1.858c1.714,0.276 4.975,0.434 6.648,0.35c1.915,-0.101 5.213,-0.614 6.595,-1.03c0.938,-0.288 1.985,-0.792 2.825,-1.349c0.338,-0.233 0.725,-0.607 0.907,-0.902c0.166,-0.281 0.25,-0.883 0.18,-1.202c-0.168,-0.653 -1.166,-1.709 -1.87,-2.119c-0.962,-0.545 -2.114,-1.034 -3.098,-1.315c-1.409,-0.391 -4.5,-0.83 -6.127,-0.876c-1.406,-0.036 -4.822,0.302 -6.552,0.804c-0.77,0.228 -2.388,0.883 -2.986,1.219c-0.617,0.353 -1.723,1.14 -2.198,1.582c-1.193,1.13 -1.231,1.86 -1.186,1.961m-22.474,-80.4c0.571,-0.48 1.661,-1.582 2.102,-2.273c0.437,-0.694 1.092,-2.306 1.303,-3.151c0.202,-0.833 0.3,-2.472 0.214,-3.274c-0.101,-0.852 -0.66,-2.45 -1.116,-3.103c-0.463,-0.641 -2.078,-1.802 -2.966,-2.093c-0.888,-0.276 -2.959,-0.206 -3.881,0.146c-0.463,0.182 -1.366,0.739 -1.651,1.013c-0.386,0.379 -0.898,1.056 -1.102,1.5c-0.348,0.77 -0.425,2.234 -0.329,2.813c0.094,0.521 0.401,1.368 0.722,2.047c0.427,0.888 2.299,3.158 3.574,4.147c0.768,0.59 2.064,1.466 2.479,1.697c0.929,0.502 1.27,0.48 1.375,0.418m-41.227,-22.932c-0.086,0.466 -0.019,1.277 0.338,1.898c0.43,0.71 1.759,1.606 2.453,1.853c0.626,0.214 1.781,0.444 2.446,0.475c0.689,0.029 2.054,-0.127 2.712,-0.317c0.66,-0.197 1.884,-0.806 2.441,-1.219c0.545,-0.41 1.45,-1.382 1.817,-1.932c0.353,-0.538 0.859,-1.663 0.996,-2.218c0.132,-0.569 0.134,-1.637 -0.007,-2.119c-0.149,-0.478 -0.718,-1.318 -1.121,-1.658c-0.41,-0.334 -1.428,-0.811 -2.006,-0.938c-0.586,-0.12 -1.882,-0.12 -2.578,-0.012c-1.301,0.209 -3.751,1.236 -4.781,1.93c-0.593,0.413 -1.654,1.61 -1.915,2.359c-0.346,1.051 0.142,4.224 0.41,4.762m-111.672,178.411c-0.994,2.038 -2.266,4.342 -2.738,5.376c-0.71,1.606 -2.16,5.016 -2.789,6.679c-0.614,1.728 -1.783,5.352 -2.278,7.082c-1.126,4.217 -2.275,10.169 -3,14.873c-0.482,3.677 -1.306,11.268 -1.622,14.93c-0.274,3.799 -0.703,11.182 -0.864,14.76c-0.079,3.643 0,11.042 0.173,14.899c0.187,2.911 1.061,11.119 1.466,14.544c0.461,3.18 2.328,12.127 3.022,14.808c1.054,3.852 3.43,10.853 4.79,14.405c1.123,2.774 4.102,9.218 6.274,13.349c1.906,3.463 5.398,9.012 7.31,11.971c2.65,3.878 6.18,8.52 9.094,12.022c1.214,1.404 3.79,4.236 5.081,5.633c3.036,3.115 8.388,8.028 11.047,10.159c1.349,1.03 4.058,3.06 5.446,4.046c1.637,1.133 8.822,5.201 9.514,5.508c0.12,0.053 0.703,0.298 0.878,0.37m-24.998,13.666c0.799,-0.749 3.607,-2.479 4.68,-3.048c1.214,-0.626 9.756,-4.001 13.236,-5.287c3.401,-1.183 10.284,-3.348 13.836,-4.346c3.696,-0.96 10.978,-2.604 14.63,-3.322c7.255,-1.308 17.578,-2.258 18.089,-2.278c0.835,-0.029 2.244,0.01 2.436,0.046m-68.304,19.922c0.78,0.91 2.537,2.362 4.224,3.245c1.471,0.744 4.222,1.843 6.408,2.606c3.499,1.157 10.826,3.142 14.544,4.032c3.874,0.862 11.323,2.309 15.024,2.988c3.77,0.612 11.448,1.63 15.334,2.098c3.674,0.377 10.843,1.051 14.338,1.346c5.837,0.336 22.246,0.715 23.186,0.698c1.277,-0.031 1.387,-0.031 1.418,-0.024l-0.192,0.041m165.046,-75.533c-1.097,1.507 -3.71,5.146 -4.106,5.77c-0.506,0.799 -2.7,4.651 -3.173,5.393c-0.626,0.977 -3.134,4.291 -4.229,5.719c-2.474,3.096 -7.414,8.539 -10.087,11.311c-2.806,2.782 -8.496,8.323 -11.383,11.081c-3.264,3.065 -7.999,7.183 -10.702,9.418c-3.83,3.101 -10.075,7.699 -12.062,9.002c-3.06,1.954 -8.666,5.088 -12.502,6.974c-2.05,0.965 -8.995,3.811 -13.279,5.314c-3.444,1.116 -10.543,3.149 -14.172,4.085c-3.674,0.874 -10.985,2.518 -14.621,3.286c-3.521,0.67 -10.836,1.865 -14.491,2.35c-3.552,0.386 -12.012,0.989 -14.242,1.066c-2.702,0.079 -10.505,-0.468 -14.227,-0.828c-3.026,-0.36 -10.666,-1.658 -14.04,-2.34c-1.09,-0.242 -2.419,-0.569 -3.437,-0.862c-1.274,-0.374 -1.368,-0.408 -1.349,-0.425m-92.398,-57.71c0.014,-0.005 -1.2,0.763 -1.915,1.212c-1.462,0.905 -4.514,2.731 -5.786,3.624c-1.469,1.034 -4.313,3.389 -5.698,4.685c-1.454,1.392 -3.079,3.067 -4.375,4.666c-1.116,1.414 -3.415,4.39 -4.5,5.89c-1.246,1.805 -2.988,4.678 -3.938,6.322c-0.977,1.793 -2.671,4.932 -3.386,6.278m0.017,0.941c0.394,-0.046 1.45,0.178 2.004,0.456c0.665,0.341 1.296,0.905 1.783,1.603c0.552,0.799 1.169,1.841 1.606,2.69c0.314,0.554 1.037,0.926 1.997,1.097c0.994,0.168 9.994,0.691 14.527,0.739c1.838,-0.029 5.28,-0.115 6.883,-0.178c2.366,-0.144 6.35,-0.629 6.986,-0.79c0.098,-0.026 0.245,-0.067 0.439,-0.122l-0.187,-0.05m-34.654,-3.814c-1.577,0.701 -3.78,1.517 -5.506,1.999c-3.977,1.07 -11.155,2.539 -14.758,3.187c-3.934,0.67 -11.796,2.052 -15.727,2.765c-3.713,0.768 -9.833,2.179 -12.982,3.24c-2.203,0.756 -5.165,2.069 -6.406,2.777c-1.284,0.737 -3.828,2.626 -5.069,3.811c-1.147,1.102 -3.557,4.07 -4.195,4.925c-1.145,1.56 -5.863,9.019 -7.956,12.334c-1.951,2.959 -5.995,8.923 -8.081,11.777c-2.21,2.909 -6.259,7.968 -9.415,11.611c-2.566,2.861 -7.747,8.34 -10.318,10.925c-2.544,2.474 -8.52,7.896 -10.663,9.646c-1.375,1.085 -4.075,3.118 -5.566,4.164c-1.502,1.01 -4.514,2.921 -6.106,3.806c-1.646,0.871 -4.687,2.354 -6.434,3.029c-1.766,0.679 -4.766,1.49 -6.696,1.762c-1.642,0.226 -4.342,0.319 -6.756,0.298c-1.925,-0.067 -5.681,-0.209 -7.512,-0.283c-1.992,-0.05 -5.297,0.187 -6.95,0.41c-1.519,0.209 -5.124,1.034 -6.847,1.548c-1.865,0.574 -5.489,2.009 -6.876,2.657c-1.037,0.487 -4.387,2.268 -6.547,3.586c-1.546,0.984 -5.023,3.49 -5.875,4.181c-1.37,1.142 -4.217,3.66 -4.853,4.308c-0.722,0.739 -4.008,4.411 -4.882,5.486c-1.337,1.68 -3.19,5.114 -3.538,6.245c-0.11,0.362 -0.086,0.586 0.06,0.948m57.67,-28.406c0.014,0.005 -0.031,0 -0.046,0c-1.195,-0.05 -4.406,0.238 -6.37,0.6c-1.716,0.322 -4.798,1.188 -6.446,1.846c-1.61,0.646 -4.258,1.992 -6.257,3.127c-0.881,0.514 -4.128,2.635 -5.285,3.446c-1.051,0.758 -4.049,3.262 -5.482,4.478c-1.949,1.738 -3.828,3.581 -5.182,5.081c-1.255,1.43 -3.317,4.049 -4.001,5.071c-0.893,1.344 -2.038,3.746 -2.004,4.02m44.508,-27.336c-0.691,0.038 -1.519,0.245 -2.638,0.653c-1.855,0.696 -4.738,2.083 -6.451,3.125c-1.546,0.958 -4.824,3.276 -5.974,4.166c-1.157,0.91 -4.402,3.854 -5.518,5.047c-1.154,1.241 -3.338,4.082 -4.159,5.486c-0.862,1.483 -2.378,4.889 -2.935,6.792c-0.338,1.2 -0.641,2.508 -0.792,3.54c-0.113,0.79 -0.084,1.793 0.029,1.865m23.122,-29.314c0.67,-0.014 2.585,0.005 3.11,0.024c1.63,0.062 5.009,0.583 6.78,1.082c1.951,0.554 5.345,1.963 6.737,2.705c1.442,0.778 4.433,2.954 5.633,4.13c1.464,1.45 3.466,4.19 4.368,5.995c0.667,1.344 0.888,2.126 1.046,2.81m147.845,-103.776c-0.031,0.007 -0.084,0.019 -0.156,0.036c-0.734,0.158 -5.112,1.207 -6.122,1.404c-7.43,1.414 -22.812,4.241 -30.763,5.65c-3.367,0.511 -10.315,1.483 -13.898,1.946c-3.72,0.408 -10.752,1.135 -14.522,1.442c-3.37,0.218 -10.678,0.415 -14.794,0.401c-4.678,-0.048 -7.987,-0.127 -9.374,0.005c-0.761,0.077 -1.562,0.374 -2.052,0.739c-0.427,0.329 -0.922,1.33 -0.922,1.858c0.007,0.55 0.374,2.369 0.466,2.688c0.487,1.682 5.222,11.138 6.463,13.906c1.169,2.75 4.109,10.865 4.754,13.09c0.566,2.066 2.225,9.23 3.005,13.514c0.542,3.614 1.519,11.942 1.716,14.736c0.106,1.908 0.214,5.206 0.202,7.57c-0.127,4.361 -0.586,10.26 -1.142,14.69c-0.396,2.642 -2.018,10.526 -2.957,13.819c-1.102,3.605 -2.698,8.441 -3.648,10.882c-0.151,0.365 -0.9,2.148 -1.378,2.503c-0.302,0.221 -4.865,1.56 -6.859,2.148c-1.925,0.612 -5.402,1.812 -7.286,2.599c-1.342,0.588 -4.128,1.843 -5.597,2.683c-0.677,0.394 -4.193,2.662 -5.472,3.665c-1.512,1.188 -4.166,3.763 -5.354,5.203c-1.145,1.39 -3.053,4.186 -3.994,5.813c-0.922,1.654 -1.838,3.614 -2.604,5.76c-0.403,1.176 -0.919,2.827 -1.051,3.55c-0.13,0.732 -0.094,1.282 -0.022,1.714m17.465,0.941c0.19,-1.877 0.71,-4.351 1.277,-6.293c0.552,-1.877 1.826,-5.064 2.748,-7.001c0.986,-1.999 2.628,-4.834 3.619,-6.36c1.188,-1.764 3.194,-4.318 4.332,-5.527c1.238,-1.306 3.929,-3.492 5.27,-4.39c1.589,-1.056 3.655,-2.1 5.035,-2.705c-0.638,0.823 -2.278,3.862 -2.918,5.422c-0.859,2.182 -1.788,4.946 -2.23,6.778c-0.456,1.915 -1.018,5.65 -1.063,7.661c-0.041,2.059 0.305,5.345 0.66,6.751c0.209,0.806 0.785,2.393 1.046,2.918c0.11,0.218 0.218,0.391 0.324,0.535m3.12,-26.954c1.294,-1.524 3.041,-3.041 5.237,-4.541c1.531,-1.034 4.865,-2.503 6.319,-2.906c1.694,-0.463 4.951,-0.953 6.49,-0.991c1.68,-0.038 4.774,0.149 6.413,0.499c2.1,0.478 5.266,1.363 6.089,2.004c0.072,0.055 0.218,0.192 0.439,0.406m-3.034,-472.678c-0.773,1.978 -1.745,4.078 -2.863,5.947c-0.854,1.387 -3.002,4.699 -3.737,5.65c-0.725,0.931 -2.678,3.115 -4.174,4.577c-4.294,4.07 -6.319,5.597 -8.028,6.842m9.533,-7.032c1.14,0.451 4.09,2.174 5.635,3.214c1.601,1.104 3.936,2.935 5.4,4.356c1.2,1.188 3.734,3.749 5.004,5.124c1.879,2.088 6.607,8.582 8.618,11.558c0.996,1.541 2.678,4.303 3.833,6.362c2.602,4.87 4.632,9.082 5.801,12.602c0.95,2.952 2.662,10.471 3.487,14.242c0.353,1.798 1.104,5.851 1.43,7.908c0.235,1.752 0.756,5.988 0.821,7.135c0.012,0.23 0.079,1.903 0.072,1.913m-11.042,-47.604l-0.173,-0.038c3.389,-1.332 9.749,-3.384 13.342,-4.51c3.502,-1.03 10.267,-2.858 14.002,-3.643c1.692,-0.329 5.186,-0.893 6.744,-1.099c1.423,-0.178 4.906,-0.394 6.314,-0.348c0.818,0.031 1.644,0.257 1.759,0.343m-2.573,-10.438c-0.413,0.871 -0.883,2.062 -1.186,3.062c-0.466,1.56 -0.811,4.714 -0.794,5.587c0.005,0.118 0.022,0.341 0.055,0.67m-92.45,-63.902c0.49,-0.497 1.73,-1.742 2.65,-2.599c1.231,-1.116 4.548,-3.984 5.273,-4.526c0.797,-0.593 4.238,-2.532 5.909,-3.23c1.466,-0.61 4.802,-1.534 6.523,-1.834c2.974,-0.475 10.406,-1.498 14.117,-1.985c3.593,-0.523 10.73,-1.75 14.316,-2.501c4.258,-0.998 10.514,-2.798 13.848,-3.847c6.528,-2.194 18.979,-6.494 20.098,-6.778c0.742,-0.185 2.398,-0.475 3.168,-0.458c0.391,0.024 1.13,0.295 1.351,0.571c0.379,0.49 0.271,2.052 0.158,2.669c-0.372,1.997 -1.241,5.141 -1.718,6.547c-0.302,0.89 -1.834,4.786 -2.566,6.382c-0.768,1.61 -2.23,4.428 -3.295,6.271c-0.912,1.502 -2.695,4.205 -4.046,6.07c-1.114,1.469 -3.626,4.723 -4.411,5.599c-1.85,2.059 -6.461,6.36 -9.523,8.786c-1.236,0.96 -3.406,2.57 -5.119,3.667c-4.066,2.522 -8.801,5.206 -12.612,7.159c-4.217,2.045 -10.637,4.826 -13.183,5.782c-1.934,0.689 -4.798,1.591 -6.07,1.903c-0.475,0.115 -2.496,0.552 -3.305,0.72c-0.271,0.058 -0.756,0.158 -0.972,0.204m-34.03,-77.119c0.703,-0.538 1.766,-1.236 2.383,-1.512c1.565,-0.691 10.229,-2.938 13.867,-3.847c3.468,-0.948 10.769,-3.149 14.302,-4.253c4.322,-1.471 11.04,-4.118 14.294,-5.489c2.542,-1.116 4.886,-2.285 6.324,-3.05c2.119,-1.147 4.241,-2.431 5.594,-3.418c1.891,-1.409 3.821,-3.108 5.462,-4.764c1.39,-1.442 3.902,-3.941 5.155,-4.61c0.643,-0.326 1.896,-0.617 2.47,-0.293c0.557,0.324 1.318,1.356 1.55,1.846c0.576,1.238 1.361,4.337 1.56,5.777c0.185,1.344 0.346,3.95 0.17,6.218c-0.204,2.376 -0.646,5.249 -1.092,7.238c-0.766,3.228 -2.748,9.878 -3.974,13.214c-0.439,1.14 -2.239,5.234 -2.676,6.089c-0.83,1.622 -2.789,4.829 -3.833,6.228c-1.128,1.505 -3.305,3.895 -4.781,5.196c-1.224,1.07 -4.344,3.122 -5.659,3.811c-0.775,0.406 -4.229,1.999 -4.601,2.182c-0.247,0.122 -0.415,0.223 -0.506,0.29m-9.406,2.604c0.967,-0.144 3.907,-0.77 5.354,-1.205c1.651,-0.497 4.435,-1.567 6.622,-2.573c2.318,-1.104 3.542,-1.752 3.89,-1.946m-52.471,-23.734c-0.749,2.076 -3.331,3.677 -4.483,6.242c-1.723,3.773 -4.858,10.546 -6.266,13.546c-0.962,1.973 -11.23,20.095 -15.185,27.098c-2.906,5.426 -5.774,11.407 -6.782,13.682c-1.32,3.158 -3.924,10.788 -4.651,13.378c-1.121,4.346 -2.41,10.505 -3.029,14.018c-0.425,2.762 -1.358,11.165 -1.618,14.798c-0.25,4.699 -0.358,10.91 -0.346,14.522c0.046,2.652 0.542,11.933 0.802,14.635c0.408,3.655 1.282,9.984 2.102,14.638c0.902,4.639 2.328,10.752 3.23,14.23c0.698,2.522 3.449,11.045 4.392,13.574c1.382,3.526 3.967,9.538 5.94,13.603c1.634,3.197 5.503,10.075 6.922,12.36c2.05,3.132 5.815,8.448 8.642,12.05c1.822,2.254 7.183,8.357 9.35,10.706c2.16,2.282 7.867,7.558 10.567,10.008c3.12,2.75 9.204,7.855 12.242,10.25c2.942,2.206 8.863,6.547 11.923,8.674c2.993,2.002 9.091,5.966 12.199,7.932c2.928,1.766 8.882,5.268 11.909,7.001c3.214,1.706 7.39,4.211 9.154,5.083m-40.001,-282.943c0.002,0.014 -0.262,-1.337 -0.25,-2.719c0.014,-1.262 0.276,-4.985 0.518,-6.694c0.23,-1.502 0.95,-4.555 1.462,-6.149c0.526,-1.639 1.901,-4.91 2.678,-6.406c0.814,-1.55 2.801,-4.512 3.924,-5.834c1.126,-1.315 4.421,-4.162 5.491,-4.848c1.529,-0.958 3.389,-1.958 4.642,-2.539c1.274,-0.578 4.044,-1.601 5.398,-1.98c2.981,-0.809 8.431,-1.598 11.458,-1.697c1.416,-0.036 4.555,0.13 6.168,0.43c1.572,0.298 4.082,1.174 5.335,1.843c0.895,0.485 3.014,2.388 3.79,3.6c0.646,1.022 1.709,3.494 2.155,4.812c0.437,1.301 1.056,3.977 1.296,5.527c0.209,1.438 0.482,4.45 0.475,5.568c-0.012,1.054 -0.204,2.726 -0.403,3.43c-0.209,0.71 -0.866,1.91 -1.294,2.419c-0.317,0.37 -1.25,1.19 -1.73,1.474c-0.343,0.204 -2.885,1.526 -2.938,1.567m-36.83,-22.517c-0.13,-0.437 -0.19,-0.854 -0.115,-1.21c0.199,-0.948 1.723,-4.769 2.429,-6.154c0.756,-1.478 2.681,-4.56 3.775,-6.053c1.162,-1.582 3.439,-4.212 4.519,-5.258c0.948,-0.914 4.082,-3.427 4.855,-3.922c1.219,-0.78 3.377,-1.961 4.618,-2.498c1.222,-0.528 3.725,-1.346 5.011,-1.639c1.39,-0.312 4.67,-0.689 6.571,-0.646c1.774,0.048 5.009,0.65 6.401,1.19c1.361,0.535 3.559,2.016 4.327,2.914c0.742,0.878 1.654,2.911 1.908,4.02c0.293,1.306 0.336,4.282 0.046,6.091c-0.245,1.505 -1.03,4.33 -1.622,5.861c-1.162,2.978 -3.067,5.378 -3.24,5.539c-0.046,0.041 -0.127,0.106 -0.24,0.19m-20.27,-23.626c-0.11,-0.221 -0.118,-0.463 0.026,-0.816c0.389,-0.948 2.662,-3.919 3.698,-5.093c1.169,-1.32 3.917,-3.998 5.318,-5.167c0.919,-0.761 3.802,-2.868 5.474,-3.888c1.486,-0.902 4.596,-2.422 6.341,-3.07c1.426,-0.528 4.692,-1.375 6.403,-1.51c0.799,-0.058 2.354,-0.007 3.072,0.125c0.905,0.175 2.11,0.583 2.729,1.051c0.617,0.478 1.454,1.706 1.69,2.546c0.403,1.5 0.269,4.692 0.06,6.094c-0.223,1.476 -0.902,4.08 -1.418,5.448c-0.473,1.248 -1.903,3.953 -2.914,5.203c-0.47,0.576 -1.666,1.855 -2.225,2.45c-0.583,0.607 -1.975,1.922 -2.376,2.335m-1.116,39.012c1.25,-0.034 4.958,0.475 6.6,0.946c1.558,0.451 4.519,1.632 5.825,2.431c1.414,0.874 3.955,3.252 4.884,4.574c0.893,1.282 2.544,4.44 3.11,5.998c0.547,1.522 1.164,4.466 1.306,5.95c0.108,1.159 0.118,3.799 -0.168,6.005c-0.475,3.338 -2.05,8.887 -2.674,10.284c-0.036,0.082 -0.11,0.226 -0.226,0.434m4.186,-8.131c0.718,0.017 3.936,0.108 5.542,0.439c1.774,0.377 5.083,1.766 6.84,2.789c1.09,0.641 3.446,2.582 4.488,3.734c1.109,1.236 2.904,4.075 3.509,5.503c0.667,1.589 1.733,5.018 2.134,7.02c0.276,1.397 0.641,4.339 0.751,6.286c0.125,2.777 -0.173,10.006 -0.523,13.387c-0.149,1.265 -0.746,5.134 -1.08,6.85c-0.466,2.162 -1.231,5.146 -1.714,6.84c-0.523,1.678 -1.507,4.56 -2.285,6.576c-0.636,1.57 -2.16,4.843 -2.813,6.012c-1.015,1.81 -3.132,4.714 -4.255,5.902c-1.32,1.38 -4.037,3.538 -5.419,4.339c-1.577,0.907 -4.925,2.309 -6.59,2.813c-1.93,0.578 -5.654,1.322 -7.37,1.502c-1.958,0.202 -5.647,0.252 -7.346,0.134c-1.884,-0.134 -5.94,-0.739 -7.025,-0.955c-2.239,-0.482 -5.122,-1.277 -6.374,-1.702c-2.062,-0.73 -4.865,-1.898 -5.71,-2.278c-1.214,-0.559 -4.423,-2.282 -6.19,-3.281c-1.584,-0.924 -4.291,-2.77 -5.652,-3.739c-1.853,-1.392 -2.626,-2.076 -3.079,-2.494c-0.067,-0.06 -0.168,-0.151 -0.302,-0.271m72.686,-53.203c0.442,-0.01 1.258,-0.026 1.634,-0.034c1.913,-0.024 5.669,0.127 7.536,0.262c1.918,0.163 5.587,0.79 7.224,1.246c1.649,0.463 4.488,1.63 5.784,2.422c1.298,0.797 3.538,2.736 4.488,3.864c1.046,1.253 2.7,3.97 3.427,5.518c0.71,1.531 1.86,5.179 2.184,6.994c0.307,1.754 0.562,5.573 0.53,7.363c-0.038,1.87 -0.516,5.803 -0.746,6.881c-0.199,0.922 -1.565,5.94 -2.002,7.174c-0.461,1.289 -2.222,5.201 -2.743,5.933c-0.029,0.036 -0.065,0.094 -0.11,0.168m-38.328,12.365c0.662,-0.077 2.15,-0.067 3.041,-0.065c1.829,-0.022 5.671,-0.185 7.063,-0.312c1.793,-0.178 5.105,-0.768 6.78,-1.174c2.458,-0.6 8.23,-2.561 10.08,-3.456c0.422,-0.204 0.667,-0.331 1.058,-0.545m10.392,-48.984c0.18,-0.007 0.746,-0.098 1.147,-0.197c0.758,-0.194 11.179,-4.478 13.67,-5.206c1.128,-0.319 2.616,-0.624 3.413,-0.698c0.78,-0.065 2.405,0.055 2.952,0.151c0.893,0.163 2.722,1.056 3.554,1.75c0.828,0.698 1.982,2.438 2.371,3.574c0.209,0.624 0.406,1.601 0.509,2.458c0.098,0.862 -0.259,4.433 -0.643,6.017c-0.398,1.606 -1.601,5.083 -2.393,6.85c-1.392,3.022 -5.419,10.097 -6.84,12.346c-0.943,1.414 -2.933,4.212 -4.094,5.743c-1.586,2.023 -2.714,3.31 -4.198,4.714c-1.006,0.936 -3.677,2.95 -5.129,3.79c-0.607,0.35 -1.565,0.79 -2.573,1.21c-0.902,0.372 -1.634,0.581 -1.798,0.583m-56.568,-85.022c-0.01,-0.01 -0.005,-0.029 0.012,-0.058c0.223,-0.406 0.936,-1.094 1.704,-1.615c1.49,-0.994 4.006,-2.242 5.491,-2.767c1.361,-0.475 4.188,-1.133 5.758,-1.358c2.035,-0.286 5.474,-0.398 7.051,-0.228c0.842,0.098 2.498,0.552 3.084,0.922c0.533,0.355 1.075,1.284 1.085,1.903c-0.005,0.67 -0.365,1.68 -0.845,2.568c-1.824,3.23 -5.654,10.226 -6.811,12.97c-0.758,1.858 -1.87,5.066 -2.266,6.778c-0.391,1.699 -0.578,3.732 -0.607,4.054c-0.005,0.067 -0.014,0.132 -0.024,0.194m-64.044,73.831c0.794,0.535 1.658,1.006 2.374,1.207c1.442,0.396 3.602,0.605 6.166,0.708c2.402,0.067 4.582,0.034 6.713,-0.161c0.852,-0.091 2.534,-0.281 3.235,-0.461c0.283,-0.072 0.509,-0.182 0.617,-0.262l0.182,-0.187m210.341,118.639c-0.002,-0.005 -0.01,0.007 -0.01,0.01c0.202,0.9 3.235,9.022 4.966,13.111c1.423,3.226 4.985,10.706 6.322,13.224c2.131,3.845 5.46,9.283 7.358,12.233c1.942,2.894 5.95,8.762 8.119,11.755c3.036,4.02 5.318,6.686 6.578,7.874c0.343,0.324 0.722,0.622 1.315,1.051m-155.28,4.639c0.293,-0.886 0.785,-1.841 1.205,-2.568c0.878,-1.466 3.173,-5.22 3.737,-6.048c0.828,-1.2 3.422,-4.027 4.613,-5.016c1.44,-1.19 4.008,-2.878 5.69,-3.73c1.471,-0.739 5.112,-2.064 6.972,-2.544c1.994,-0.511 5.707,-1.135 7.27,-1.26c1.572,-0.12 4.93,-0.055 6.6,0.161c1.68,0.221 4.805,1.056 6.146,1.68c0.77,0.36 1.946,1.075 2.693,1.666c1.368,1.09 3.166,3.37 3.854,4.747c0.278,0.562 0.672,1.649 1.061,2.87c0.382,1.282 0.701,2.777 0.706,3.463c0.002,0.466 -0.034,0.816 -0.067,0.782m-50.136,14.782c-0.053,0.586 -0.12,0.936 -1.02,4.092c-0.494,1.745 -1.099,5.1 -1.205,7.099c-0.122,2.323 -0.038,4.411 0.262,6.72c0.13,0.929 1.046,5.1 1.589,6.54c0.934,2.422 2.15,5.184 3.072,6.845c1.913,3.37 4.754,7.082 5.683,8.083c1.008,1.073 3.211,2.51 3.91,2.758c0.17,0.06 0.653,0.182 0.794,0.218m-16.042,-26.417c0.005,-0.017 -1.061,0.799 -1.646,1.296c-1.318,1.147 -3.569,3.264 -4.658,4.57c-1.039,1.255 -2.902,4.01 -3.67,5.328c-0.799,1.406 -2.17,3.989 -2.933,5.638c-0.605,1.332 -1.829,4.666 -2.215,6.118c-0.468,1.781 -0.9,5.218 -0.878,6.898c0.026,1.582 0.401,4.752 0.725,6.283c0.42,1.908 1.027,3.838 1.925,6.233c1.435,3.672 2.82,5.746 2.986,5.962m7.802,13.687c0.636,0.734 1.315,1.368 1.994,1.738c1.236,0.658 4.318,1.759 5.822,2.107c1.69,0.386 4.946,0.722 6.998,0.701c2.086,-0.038 4.274,-0.343 6.984,-0.84c1.896,-0.379 5.254,-1.342 6.881,-1.925c1.507,-0.542 4.939,-2.035 6.917,-3.094c1.764,-0.962 4.625,-2.983 5.093,-3.626m-54.101,-35.527c0.014,-0.012 -0.826,1.073 -1.222,1.498c-0.478,0.509 -3.578,3.132 -5.021,4.342c-1.498,1.296 -4.462,4.027 -5.772,5.45c-1.658,1.846 -3.336,3.89 -4.183,5.39c-1.018,1.824 -2.124,4.723 -2.405,6.406c-0.257,1.586 -0.132,4.603 0.235,6.12c0.346,1.397 1.555,4.169 2.357,5.426c0.746,1.162 2.928,3.773 4.051,4.858c1.32,1.267 4.039,3.218 5.743,4.09c1.186,0.6 4.219,1.742 5.887,2.172c1.57,0.401 4.985,0.854 6.581,0.9c1.666,0.041 4.38,-0.091 6.974,-0.346c1.939,-0.245 3.756,-0.598 6.103,-1.133c0.727,-0.168 1.471,-0.403 1.699,-0.485m-35.254,-33.348c-0.077,-0.125 -0.341,-0.528 -0.511,-0.698c-0.605,-0.593 -2.167,-1.524 -3.053,-2.033c-2.465,-1.351 -4.502,-2.287 -6.163,-2.698c-2.081,-0.506 -4.586,-0.715 -5.998,-0.451c-0.71,0.139 -2.016,0.607 -2.604,0.929c-0.578,0.324 -1.574,1.121 -1.98,1.591c-0.406,0.478 -1.027,1.577 -1.26,2.213c-0.206,0.586 -0.516,2.263 -0.538,2.638c-0.062,1.226 0.446,4.692 1.099,6.521c0.581,1.606 2.155,4.69 3.096,6.132c0.847,1.289 2.906,3.778 4.015,4.894c1.466,1.466 4.222,3.655 5.518,4.498c1.258,0.811 4.87,2.47 6.053,2.952c0.977,0.389 2.561,0.826 3.415,0.948c0.727,0.096 1.145,0.079 1.217,0.06m31.814,-88.344c-0.062,-0.185 -0.18,-0.581 -0.223,-0.826c-0.149,-0.864 0.154,-4.973 0.317,-6.929c0.403,-3.821 1.27,-11.407 2.035,-14.47c0.485,-1.91 1.937,-5.155 2.657,-6.214c0.266,-0.386 1.584,-1.834 2.218,-2.366c0.698,-0.578 2.189,-1.502 3.034,-1.877c1.639,-0.718 4.663,-1.346 5.971,-1.464c1.361,-0.118 4.085,-0.002 5.448,0.235c1.373,0.245 4.07,1.049 5.311,1.608c1.243,0.566 3.742,2.17 4.45,2.729c1.519,1.21 3.418,3.288 4.783,5.34c2.686,4.054 3.122,6.526 3.185,6.569m-36.497,-8.405c-0.214,-0.422 -0.648,-1.289 -0.761,-1.548c-0.55,-1.289 -0.955,-4.651 -0.912,-6.413c0.122,-3.624 0.778,-7.716 1.202,-9.096c0.319,-1.015 0.982,-2.417 1.584,-3.358c0.468,-0.722 1.066,-1.322 1.661,-1.735c0.506,-0.341 1.51,-0.768 2.069,-0.893c0.528,-0.115 1.951,-0.156 2.29,-0.118c1.342,0.173 4.589,1.51 6.118,2.453c1.382,0.859 3.754,2.736 5.143,4.03c1.049,0.979 3.814,4.044 4.342,4.682c1.162,1.409 3.317,4.685 3.881,5.664c0.055,0.096 0.175,0.312 0.36,0.65m-45.833,8.246c-0.007,-0.002 0.012,0.01 0.019,0.012c1.217,0.545 2.359,1.025 2.803,1.231c0.576,0.266 4.531,2.302 5.738,3.012c1.411,0.876 4.834,3.058 5.669,3.677c0.674,0.502 1.61,1.315 2.206,1.932c0.29,0.305 0.413,0.449 0.595,0.682m269.282,100.07c2.165,0.617 10.555,2.755 13.97,3.598c4.174,1.018 12.05,2.959 15.754,3.886c1.865,0.499 10.478,3.331 12.938,4.279c4.294,1.757 11.105,5.016 13.032,6.034c2.899,1.574 9.245,5.94 12.305,8.086c3.242,2.381 9.19,7.025 12.022,9.365c2.765,2.371 8.263,7.224 10.997,9.706c2.693,2.532 8.05,7.678 10.711,10.291c2.654,2.676 7.747,8.052 10.207,10.781c2.434,2.779 7.308,8.657 9.838,11.885c2.299,3.043 6.941,9.264 8.717,12.026c1.126,1.783 5.261,8.801 6.998,12.209c1.457,2.976 4.229,9.667 5.434,13.26c0.533,1.694 1.481,5.146 1.91,6.895c0.396,1.738 1.027,5.254 1.294,7.02c0.238,1.747 0.533,5.218 0.631,6.95c0.067,1.718 0.031,5.138 -0.041,6.842c-0.106,1.728 -0.506,5.059 -0.876,7.135c-0.257,1.385 -1.286,5.39 -1.798,6.886c-0.514,1.498 -2.141,5.251 -2.789,6.494c-0.667,1.258 -2.695,4.694 -3.727,6.211c-1.075,1.522 -2.906,3.943 -4.591,5.928c-1.79,2.009 -3.25,3.53 -5.009,5.246c-1.769,1.661 -3.266,2.964 -5.134,4.469c-1.908,1.466 -4.106,3.002 -5.762,4.001c-1.651,0.991 -4.757,2.489 -6.101,2.974c-1.649,0.588 -5.362,1.274 -6.787,1.382c-1.529,0.11 -5.743,-0.545 -6.569,-0.811c-0.876,-0.29 -5.198,-2.333 -6.658,-3.281c-1.135,-0.744 -4.138,-3.096 -5.419,-4.205c-2.666,-2.381 -8.27,-8.141 -10.027,-10.13c-2.244,-2.652 -6.917,-8.326 -9.146,-11.328c-1.942,-2.69 -6.197,-8.669 -8.513,-11.957c-4.322,-6.377 -12.761,-19.126 -17.105,-25.615c-2.014,-2.926 -6.895,-9.91 -8.376,-11.861c-2.052,-2.606 -7.111,-8.909 -8.834,-10.898c-2.414,-2.707 -7.356,-7.944 -9.919,-10.505c-1.93,-1.867 -7.973,-7.234 -10.721,-9.497c-3.516,-2.782 -8.515,-6.454 -11.426,-8.494c-2.959,-1.98 -8.15,-5.294 -12.137,-7.663c-2.899,-1.685 -8.21,-4.613 -12.494,-6.761c-3.358,-1.642 -2.973,-1.428 -6.453,-3.048m-16.572,-7.553c-3.281,-1.234 -14.72,-5.419 -18.55,-6.679c-2.582,-0.818 -3.538,-1.085 -4.968,-1.385c-0.043,-0.01 -0.089,-0.017 -0.132,-0.024m111.991,-108.706c0.338,-0.01 0.574,-0.029 0.95,-0.084c1.824,-0.259 4.838,-0.42 6.701,-0.466c2.594,-0.012 11.09,0.319 14.981,0.523c3.862,0.286 10.846,1.178 13.798,1.63c8.326,1.313 28.318,4.519 32.179,5.27c2.602,0.598 9.398,2.414 13.121,3.449c3.581,1.109 10.622,3.461 14.074,4.697c3.434,1.291 10.426,4.022 13.985,5.46c3.341,1.454 9.754,4.474 13.044,6.293c3.187,1.834 10.051,6.18 12.288,7.754c3.926,2.868 8.81,6.869 11.482,9.334c2.105,2.004 7.418,7.862 9.576,10.594c2.179,2.88 5.822,8.011 8.378,11.957c2.398,3.871 6.094,10.488 7.37,13.042c1.027,2.167 2.326,5.208 3.038,7.001c0.641,1.716 2.052,5.585 2.386,6.636c0.612,1.932 2.078,9.211 2.695,13.589c0.434,3.674 0.943,11.873 0.986,14.599c-0.005,3.338 -0.269,10.135 -0.622,13.92c-0.204,1.843 -0.778,5.916 -1.003,7.176c-0.329,1.69 -1.01,4.764 -1.601,6.847c-0.518,1.728 -1.74,5.062 -2.405,6.478c-0.888,1.879 -2.808,4.966 -3.842,6.257c-1.154,1.435 -3.686,4.001 -4.884,4.987c-1.421,1.164 -4.394,3.144 -5.786,3.878c-1.694,0.888 -4.874,2.112 -6.331,2.453c-1.721,0.394 -4.944,0.641 -6.487,0.547c-1.8,-0.113 -5.042,-0.77 -6.533,-1.286c-1.776,-0.622 -5.078,-2.285 -6.319,-3.053c-2.242,-1.44 -4.097,-2.774 -5.299,-3.641c-1.721,-1.282 -8.018,-6.804 -10.579,-9.103c-4.776,-4.541 -17.34,-17.206 -23.038,-22.999c-2.618,-2.592 -8.268,-8.11 -11.666,-11.294c-3.106,-2.803 -8.17,-7.178 -10.435,-9.122c-3.629,-3.01 -8.374,-6.535 -11.263,-8.662c-3.319,-2.41 -9.686,-6.953 -13.19,-9.276c-2.28,-1.442 -8.549,-5.112 -12.622,-7.236c-1.234,-0.624 -4.781,-2.258 -6.401,-2.666c-0.598,-0.146 -2.537,-0.566 -3.379,-0.751c-1.255,-0.3 -2.174,-0.552 -3.228,-0.895c-0.434,-0.144 -0.77,-0.269 -0.943,-0.348c-0.046,-0.022 -0.079,-0.043 -0.103,-0.067m-11.182,-105.42c0.838,-0.199 6.144,-1.913 10.078,-3.024c2.887,-0.751 10.608,-2.366 14.342,-3.103c3.43,-0.593 10.486,-1.762 14.376,-2.299c3.941,-0.466 11.998,-1.217 16.08,-1.562c3.377,-0.252 9.622,-0.581 13.819,-0.648c3.593,-0.002 10.853,0.058 14.474,0.194c3.622,0.19 10.786,0.763 14.374,1.092c3.538,0.406 10.553,1.363 14.227,1.973c4.507,0.833 10.514,2.218 13.843,3.094c3.552,1.039 9.862,3.223 13.543,4.786c1.606,0.708 4.915,2.364 6.55,3.25c1.579,0.895 4.548,2.825 5.981,3.83c1.387,1.01 4.027,3.161 5.302,4.267c1.274,1.142 4.106,4.008 5.064,5.069c1.073,1.207 3.641,4.632 4.174,5.426c0.994,1.483 3.014,5.014 3.696,6.446c0.823,1.738 1.874,4.536 2.364,6.278c0.485,1.8 1.133,5.28 1.246,6.821c0.13,1.838 0.012,4.81 -0.259,6.42c-0.139,0.794 -0.65,2.549 -1.001,3.413c-0.35,0.857 -1.313,2.498 -1.865,3.25c-0.91,1.222 -3.353,3.418 -4.716,4.282c-1.428,0.898 -4.411,2.27 -5.938,2.808c-1.205,0.422 -4.474,1.31 -6.838,1.74c-2.004,0.355 -4.205,0.487 -6.96,0.444c-2.242,-0.062 -4.896,-0.367 -7.116,-0.763c-1.068,-0.202 -5.328,-1.224 -6.914,-1.798c-1.757,-0.638 -4.174,-1.939 -5.398,-2.906c-1.824,-1.452 -3.506,-2.556 -5.801,-3.948c-3.79,-2.218 -11.916,-6.934 -13.33,-7.654c-0.526,-0.264 -1.728,-0.78 -2.042,-0.912m-95.299,-99.258c-1.433,2.707 -4.402,7.796 -6.955,11.718c-4.296,6.377 -12.898,19.346 -17.203,25.937c-1.954,3.048 -10.461,16.588 -12.492,19.871m-51.682,94.46c-3.518,6.48 0.181,-0.669 -4.123,7.277c-3.382,6.264 -9.895,18.427 -13.027,24.329c-3.389,6.6 -10.044,19.865 -13.308,26.532c-1.356,2.964 -2.966,6.518 -3.218,7.109c0,0.005 -0.002,0.017 -0.002,0.012m149.481,-228.797c-0.005,-0.007 1.631,-1.875 -2.797,5.133c-4.236,6.725 -12.254,19.613 -16.039,25.778c-3.888,6.533 -11.386,19.286 -14.993,25.507c-3.43,6.041 -11.004,19.471 -15.151,26.858c-3.206,5.736 -9.626,17.566 -13.356,24.248m-27.295,47.549c-4.02,7.061 -2.093,4.002 -6.314,11.368c-4.183,7.27 -11.796,20.508 -15.228,26.477c-3.528,6.149 -10.306,18.086 -13.558,23.875c-1.668,3.067 -5.134,9.533 -6.931,12.931c-1.625,3.199 -4.8,9.967 -6.298,13.262c-1.406,3.245 -4.301,10.406 -5.659,13.867c-0.564,1.538 -1.5,4.061 -1.735,4.661m3.242,-8.381c-0.077,0.322 -1.562,4.627 -2.822,8.282c-1.337,3.854 -2.825,9.355 -3.734,12.862c-0.938,3.919 -2.479,11.198 -3.214,14.83c-1.265,6.89 -3.766,21.103 -4.999,28.423c-0.67,4.128 -1.939,12.254 -2.537,16.248c-0.518,3.85 -1.481,11.431 -1.927,15.163c-0.374,3.641 -1.056,10.87 -1.361,14.46c-0.542,8.443 -1.231,25.908 -1.284,31.315c0.029,2.875 0.247,9.852 0.384,13.553c0.214,3.924 0.619,9.086 0.634,9.338m-7.693,-152.106c0,-0.017 -0.105,1.275 -0.328,5.482c-0.434,8.122 -1.378,24.346 -1.886,32.448c-0.247,3.595 -0.833,11.424 -1.171,15.66c-0.756,6.869 -2.431,20.854 -3.353,27.967c-1.181,7.469 -3.686,22.903 -5.011,30.869c-0.653,3.989 -1.774,11.057 -2.242,14.138c-0.91,6.725 -1.97,16.711 -2.158,18.643c-0.067,0.653 -0.204,1.961 -0.295,2.575c-0.014,-0.101 -0.024,-0.168 -0.026,-0.204c-0.005,-0.036 -0.007,-0.089 -0.007,-0.158m0.043,-0.238c-0.05,0.343 -0.158,1.02 -0.154,1.202c0.012,0.506 0.302,1.214 0.655,1.656c0.274,0.324 1.421,1.066 2.093,1.332c1.375,0.538 3.338,0.902 6.132,1.169c1.872,0.156 4.452,0.175 6.934,0.079c6.209,-0.372 7.514,-0.506 7.726,-0.53c0.007,0 0.034,0 0.024,0m-11.808,-208.298c0.098,0.005 0.197,0.065 0.499,0.307c3.089,2.465 8.774,6.629 11.767,8.779c3.24,2.249 9.672,6.614 12.864,8.734c0.881,0.578 0.991,0.655 1.248,0.84c-0.077,-0.038 -0.132,-0.067 -0.161,-0.084c-0.031,-0.014 -0.082,-0.043 -0.149,-0.084m48.674,-253.8c3.312,1.459 10.258,4.469 13.649,5.834c2.875,1.164 8.88,3.876 11.914,5.302c7.224,3.554 21.456,10.601 28.464,14.093c4.27,2.189 9.802,5.297 12.701,6.97c1.735,1.056 4.973,3.046 6.478,3.974c0.254,0.166 0.667,0.434 0.823,0.535l-0.209,-0.062m-104.966,-64.481c0.653,0.149 9.758,2.477 13.207,3.456c3.77,1.116 11.196,3.362 14.851,4.488c3.187,1.058 9.922,3.463 13.334,4.711c4.615,1.783 20.614,8.494 28.066,11.645c7.212,3.082 21.36,9.07 28.296,11.978c3.046,1.267 9.554,4.03 13.018,5.525c3.226,1.45 10.781,4.922 13.229,6.168c6.612,3.518 7.622,5.234 8.194,5.645m-138.478,-54.559c-0.007,-0.002 0.019,-0.005 0.026,-0.005c0.439,0.038 1.79,0.245 3.014,0.456c0.847,0.156 2.479,0.478 3.266,0.643c1.733,0.396 4.591,1.056 5.717,1.32m-26.198,278.51c0.168,0.144 0.288,0.245 0.362,0.3c0.134,0.103 4.603,3.19 5.333,3.715c1.778,1.296 3.454,2.686 4.956,4.07c1.445,1.382 3.665,3.672 4.709,4.932c0.504,0.626 0.2,0.421 0.354,0.613m-273.167,5.74c2.059,1.013 3.886,1.738 6.043,2.436c3.343,0.986 10.584,2.906 13.901,3.744c3.876,0.895 11.1,2.482 14.448,3.175c3.686,0.698 11.222,2.04 15.067,2.681c3.862,0.571 11.491,1.656 15.259,2.17c3.713,0.451 11.162,1.27 14.496,1.541c3.499,0.245 10.786,0.71 14.573,0.931c3.758,0.137 11.314,0.348 15.11,0.422c3.778,0.012 11.323,-0.012 15.089,-0.048c3.746,-0.101 11.117,-0.341 14.738,-0.482c3.686,-0.199 11.081,-0.655 14.786,-0.91c3.648,-0.298 11.402,-0.979 15.511,-1.366c3.53,-0.379 10.908,-1.2 14.755,-1.642c3.672,-0.473 11.285,-1.536 15.223,-2.124c3.739,-0.638 11.15,-1.97 14.827,-2.669c3.78,-0.802 11.17,-2.424 14.782,-3.245c3.506,-0.85 10.457,-2.599 13.898,-3.502c7.706,-2.246 24.71,-7.589 28.548,-8.971c0.19,-0.065 0.379,-0.132 0.566,-0.199m-271.31,23.734c1.363,0.67 4.538,2.218 6.353,3.094c2.153,0.989 5.042,2.011 6.619,2.53c4.099,1.279 10.202,2.897 13.97,3.78c3.415,0.71 10.642,2.054 14.083,2.618c3.691,0.55 11.462,1.474 15.197,1.882c3.802,0.36 11.402,0.994 15.202,1.27c7.286,0.394 22.207,0.89 29.851,0.977c7.632,-0.019 21.953,-0.36 28.771,-0.557c7.526,-0.382 23.035,-1.26 31.015,-1.759c3.895,-0.286 11.815,-0.914 15.842,-1.255c7.459,-0.749 22.507,-2.386 30.098,-3.276c3.708,-0.504 11.263,-1.613 15.108,-2.218c4.032,-0.727 11.386,-2.086 14.705,-2.719c4.882,-0.979 10.284,-2.347 13.738,-3.254c3.835,-1.054 10.963,-3.077 14.568,-4.322c0.883,-0.314 0.711,-0.477 0.708,-0.477m-267.735,-10.968c0.122,1.524 1.411,9.473 2.059,13.478c0.617,4.339 1.505,11.863 1.927,15.701c0.718,7.661 2.023,22.886 2.609,30.446c0.245,3.696 0.71,11.119 0.929,14.849c0.173,3.773 0.475,11.436 0.605,15.322c0.077,3.761 0.163,11.431 0.17,15.338c-0.053,3.742 -0.194,11.023 -0.286,14.563c-0.156,3.463 -0.595,10.747 -0.876,14.568c-0.382,4.128 -1.176,12.019 -1.591,15.782c-0.386,2.822 -0.881,5.633 -1.14,7.032c-0.137,0.732 -0.396,1.735 -0.744,2.995l-0.091,-0.211m2.321,-12.986c-0.47,1.738 -1.721,7.226 -4.181,16.315c-0.286,1.08 -0.624,2.489 -0.746,3.182c-0.156,0.943 -0.026,1.954 0.367,2.275c0.578,0.456 1.714,0.943 2.347,1.102c2.054,0.509 4.726,0.878 6.955,0.89c3.132,-0.041 11.09,-0.338 15.137,-0.518c5.945,-0.324 6.979,-0.413 7.421,-0.454m-7.699,-146.297c-0.091,1.666 -0.288,3.818 -1.022,9.077c-0.588,4.843 -1.325,12.182 -1.711,16.195c-0.312,3.838 -0.862,11.546 -1.013,15.005c-0.094,3.55 -0.101,11.47 -0.065,15.593c0.065,3.516 0.247,10.889 0.425,14.131c0.245,3.535 0.811,11.237 1.13,15.403c0.365,3.847 1.14,11.278 1.55,14.866c0.47,3.526 1.634,10.865 2.234,14.422c0.672,3.511 2.141,10.685 3.034,14.501c3.194,12.883 3.461,14.362 3.456,15.254c-0.01,0.523 -0.242,1.039 -0.581,1.31c-0.252,0.192 -0.574,0.247 -0.674,0.185l-0.098,-0.226m-43.522,-177.35c0.696,1.56 1.966,4.44 2.539,5.755c0.962,2.218 5.414,10.963 7.296,14.573c0.802,1.546 2.954,5.734 3.449,6.823c0.113,0.25 0.713,1.642 0.806,1.858m-6.42,-31.531c0.223,1.049 1.356,4.426 2.062,6.091c0.439,1.006 1.013,2.174 1.476,2.933c0.384,0.619 0.946,1.416 1.243,1.711m-13.387,-7.43c0.262,1.62 0.708,4.512 0.953,6.492c0.948,8.023 2.974,26.081 3.346,31.027c0.439,7.063 1.231,21.583 1.586,29.04c0.113,3.619 0.283,10.927 0.338,14.614c-0.005,3.598 -0.084,10.781 -0.158,14.364c-0.293,6.902 -1.31,17.971 -1.759,21.694c-0.336,2.405 -0.888,5.47 -1.262,6.694c-0.118,0.377 -0.281,0.691 -0.521,1.068m0.394,0.485c0.713,0.857 1.375,1.421 2.1,1.658c0.842,0.262 4.313,0.653 6.571,0.725c2.532,0.043 6.072,-0.156 6.338,-0.166c0.499,-0.022 0.982,-0.019 1.514,-0.005c0.055,0.002 0.101,0.002 0.134,0m218.911,-98.611c0,-0.007 -0.019,0.058 -0.108,0.516c-0.372,1.819 -1.15,5.474 -1.56,7.31c-0.864,3.794 -2.299,11.285 -2.885,15.029c-0.502,3.703 -1.255,10.954 -1.601,14.623c-0.293,3.552 -0.842,10.769 -1.102,14.431c-0.216,3.864 -0.59,11.546 -0.749,15.362c-0.084,3.586 -0.194,11.491 -0.101,14.306c0.211,3.907 0.658,9.994 0.792,11.753c0.053,0.662 0.278,3.118 0.281,3.19c0,0.043 -0.007,0.067 -0.026,0.07m0.586,0.084c-0.6,0.854 -1.274,1.541 -2.105,1.86c-1.099,0.406 -4.846,1.058 -6.281,1.2c-4.02,0.365 -9.818,0.094 -11.143,-0.065c-0.979,-0.12 -2.122,-0.37 -2.856,-0.6m3.516,-94.394c0.007,0.348 0.017,0.542 0.046,0.934c0.235,3.42 0.636,10.944 0.802,15.046c0.173,7.548 0.446,23.078 0.384,30.178c-0.106,3.89 -0.408,11.65 -0.607,15.518c-0.262,3.722 -0.972,11.287 -1.33,14.842c-0.494,4.025 -2.585,16.759 -2.587,16.805c-0.002,0.065 0.01,0.154 0.034,0.274m21.013,-537.351c1.049,0.845 1.064,0.994 1.674,1.373c1.296,0.794 4.517,2.122 6.23,2.626c1.817,0.528 5.155,1.171 6.994,1.38c1.625,0.182 5.285,0.276 7.056,0.154c1.894,-0.134 5.28,-0.698 6.763,-1.087c1.387,-0.365 4.524,-1.502 6.211,-2.338c2.779,-1.385 5.426,-3.6 6.494,-4.548c0.444,-0.394 0.706,-0.689 1.092,-1.202l2.417,-1.834c0.209,0.084 0.353,0.144 0.43,0.178c0.266,0.118 3.214,1.433 7.02,3.751c1.19,0.746 4.699,3.079 6.302,4.159c2.954,2.081 7.32,5.364 11.87,9.19c2.882,2.494 9.082,7.894 12.401,10.8c2.546,2.206 6.725,5.782 10.116,8.162c1.752,1.205 4.699,2.942 6.259,3.713c1.56,0.766 5.059,2.162 6.986,2.741c1.79,0.535 5.604,1.31 7.277,1.517c1.963,0.211 4.322,0.374 6.653,0.403c2.364,-0.036 5.254,-0.252 7.044,-0.439c1.128,-0.134 6.034,-1.025 7.171,-1.301c1.8,-0.461 4.716,-1.301 7.111,-2.126c2.366,-0.876 5.114,-2.059 6.763,-2.825c1.025,-0.49 5.191,-2.786 6.077,-3.35c1.373,-0.89 3.996,-2.777 5.453,-4.02c1.349,-1.157 3.802,-3.626 4.771,-4.757c1.234,-1.462 3.05,-3.919 3.886,-5.328c0.809,-1.375 2.083,-4.236 2.503,-5.573c0.569,-1.834 0.886,-4.81 0.725,-6.23c-0.082,-0.684 -0.444,-2.098 -0.634,-2.58c-0.346,-0.869 -1.291,-2.549 -1.778,-3.192c-0.514,-0.667 -1.848,-1.922 -2.467,-2.326c-0.432,-0.274 -2.246,-1.169 -3.312,-1.375c-0.221,-0.043 -2.686,-0.298 -3.562,-0.317c-1.649,-0.031 -5.453,0.377 -7.394,0.634c-1.67,0.25 -5.15,0.77 -6.958,1.042c-3.54,0.454 -10.097,1.073 -14.311,1.26c-3.701,0.084 -10.277,-0.264 -14.878,-0.696c-1.87,-0.209 -4.529,-0.698 -6.977,-1.243c-1.517,-0.35 -4.98,-1.445 -6.377,-2.009c-1.793,-0.744 -4.454,-2.023 -6.278,-3.031c-1.654,-0.919 -3.643,-2.374 -5.827,-4.123c-1.714,-1.406 -4.051,-3.842 -5.086,-5.359c-0.982,-1.457 -2.086,-4.066 -2.4,-5.628c-0.139,-0.715 -0.077,-2.131 -0.082,-2.275" style="fill:none;stroke:#000;stroke-width:5.6px;"/></g></svg>