<svg width="500" height="515" viewBox="0 0 500 515" fill="none" xmlns="http://www.w3.org/2000/svg">
<path d="M307.171 513.759C306.541 514.934 305.872 515.064 300.807 514.979C293.462 514.869 292.391 514.629 291.216 512.831C289.521 510.247 289.358 499.737 290.865 490.402C292.19 482.216 294.001 466.999 297.132 437.819C298.067 429.075 299.073 420.818 299.359 419.48C299.982 416.592 299.898 416.572 293.203 418.26L288.657 419.409L287.923 424.557C285.754 439.773 285.507 443.694 285.455 463.085C285.41 482.975 285.377 483.482 284.111 483.631C283.397 483.715 281.793 484.105 280.546 484.494C277.26 485.527 266.59 485.429 265.707 484.358C265.188 483.735 265.434 481.437 266.642 475.757C269.409 462.721 270.63 445.616 270.214 425.79L270.149 422.525L259.596 423.706C243.66 425.498 208.645 425.933 192.221 424.557C185.26 423.966 176.928 423.038 173.714 422.486C170.499 421.934 166.7 421.337 165.272 421.168L162.674 420.857L162.349 431.444C161.934 445.006 162.012 469.083 162.499 475.796C163.031 483.248 164.81 497.036 165.986 502.879C167.031 508.079 166.85 510.156 165.278 510.76C164.771 510.954 161.434 511.312 157.862 511.558C147.173 512.292 146.004 511.149 147.699 501.593C148.225 498.646 148.848 493.356 149.095 489.844L149.53 483.462L143.114 483.073C136.49 482.677 132.756 481.69 132.178 480.171C131.99 479.691 132.159 477.198 132.542 474.627C134.568 461.001 135.003 452.172 134.626 431.977C134.419 420.727 134.211 408.938 134.172 405.776L134.1 400.025L127.606 400.466C118.534 401.083 104.241 402.602 100.131 403.387C94.7795 404.407 94.5197 404.705 96.6432 407.328C99.3642 410.697 101.76 415.722 103.352 421.389C104.605 425.855 104.78 428.121 104.826 440.416C104.878 454.899 104.384 459.365 101.806 467.856C101.066 470.271 100.637 472.42 100.845 472.634C101.053 472.842 102.196 472.517 103.377 471.914C105.8 470.674 112.034 469.895 114.515 470.518C116.21 470.946 118.19 472.556 118.19 473.517C118.19 473.822 115.924 474.043 113.157 474.004C108.845 473.945 107.514 474.218 103.878 475.899C97.0524 479.054 94.2989 483.761 94.7145 491.538C94.8444 493.894 94.6821 494.297 93.5911 494.297C92.7014 494.297 92.0845 493.589 91.552 491.979C90.6753 489.324 91.1104 486.156 92.9157 482.047C93.7859 480.054 93.8833 479.437 93.2404 479.97C91.9871 481.008 89.9739 485.514 89.0193 489.422C87.9803 493.628 87.2789 494.479 85.5775 493.57C84.4865 492.986 84.3437 492.46 84.6879 490.311C84.9086 488.902 85.3438 487.247 85.649 486.643C85.9542 486.033 86.8114 484.157 87.5582 482.482C88.3115 480.801 89.6687 478.938 90.5909 478.334C93.2989 476.562 92.0065 476.588 87.9089 478.399C83.5059 480.34 78.9407 484.52 75.1547 490.077C72.0831 494.589 71.4531 495.121 70.3167 494.18C68.9465 493.044 69.3426 491.739 72.3363 487.565C75.895 482.605 79.2329 479.256 83.0709 476.815C86.4153 474.692 93.0001 472.589 94.8185 473.063C96.6303 473.536 98.0589 469.291 100.04 457.573C101.215 450.601 101.903 432.172 101.04 430.776C100.897 430.542 100.618 428.861 100.41 427.03C99.8772 422.246 96.9485 414.547 94.5132 411.528C93.3573 410.1 92.0715 408.276 91.6429 407.471C91.2208 406.666 90.6233 406.01 90.3246 406.01C90.0194 406.01 88.6946 407.691 87.3763 409.743C86.0581 411.794 82.6877 416.981 79.8953 421.266C71.7259 433.801 61.2641 443.493 49.4905 449.433C47.2761 450.556 45.4578 451.601 45.4578 451.77C45.4578 451.932 46.9189 452.692 48.7113 453.464C52.0492 454.899 56.1079 458.781 55.6663 460.112C55.1793 461.566 53.4908 461.209 50.627 459.041C45.25 454.977 37.9637 453.503 33.8141 455.645C30.0476 457.593 26.2421 463.604 25.5473 468.7C25.0472 472.303 23.2289 474.893 22.0211 473.705C20.4365 472.154 21.8587 463.981 24.3913 460.079C25.9044 457.749 25.5018 457.736 22.3198 460.014C20.6703 461.196 17.5597 464.279 15.4167 466.87C11.3515 471.771 10.3904 472.433 10.3904 470.317C10.3904 467.168 16.2154 459.592 21.1638 456.308C23.099 455.029 24.6771 453.867 24.6771 453.737C24.6771 453.601 23.8718 453.73 22.8912 454.029C13.9555 456.729 5.89003 464.143 3.62364 471.738C3.42232 472.433 2.64954 472.874 1.64297 472.874C0.298722 472.874 0 472.563 0 471.16C0 465.526 10.9293 453.899 18.1831 451.815C19.0793 451.556 20.7093 450.945 21.8132 450.446C24.3589 449.303 33.1387 448.836 36.4376 449.667C38.4313 450.179 39.4509 450.076 41.3926 449.193C60.1406 440.643 72.8169 428.426 81.824 410.23C83.967 405.9 86.5256 401.596 87.5062 400.661C89.7726 398.506 94.812 396.526 100.462 395.571C108.482 394.215 118.463 391.722 121.658 390.274C124.223 389.119 125.106 388.255 126.451 385.587C128.496 381.53 136.192 373.987 141.374 370.962L145.251 368.696L142.471 364.717C138.419 358.92 136.328 355.213 132.919 347.78C126.431 333.608 123.411 320.463 123.158 305.279L123.028 297.437L118.58 295.84C116.138 294.957 112.781 293.483 111.131 292.555C109.475 291.633 107.54 290.556 106.826 290.16C104.793 289.05 99.7149 285.765 99.3577 285.323C99.1824 285.109 97.4225 283.726 95.4613 282.253C87.6946 276.43 78.6679 266.588 72.0116 256.689C67.9074 250.586 67.9139 250.606 63.8877 242.42C59.173 232.838 59.4068 233.41 57.1209 226.191C51.5231 208.501 50.9776 183.859 55.8611 169.064C56.1533 168.168 56.9001 165.688 57.5236 163.546C59.7965 155.698 66.5307 142.812 75.0833 129.945C81.285 120.617 80.9993 120.818 91.8247 118.014L98.3966 116.313L98.5005 111.366C98.6174 105.686 100.721 99.5707 103.91 95.5978C104.982 94.2735 105.852 92.8908 105.852 92.5273C105.852 92.1572 106.443 90.2811 107.163 88.3531C108.625 84.4516 112.755 79.849 116.08 78.4208C117.242 77.921 118.19 77.0706 118.19 76.5318C118.19 74.6752 123.613 69.6311 127.594 67.794C135.607 64.0872 140.088 63.7302 142.361 66.6255C144.03 68.7483 143.354 71.7279 139.971 77.168C137.601 80.9721 137.27 81.9069 137.841 83.1533C138.536 84.6853 137.328 89.0607 135.302 92.3C134.51 93.5724 134.529 94.0268 135.445 95.799C136.23 97.3181 136.445 99.1423 136.269 102.927L136.042 108.01L137.99 108.425C139.068 108.653 140.737 109.302 141.705 109.867C143.309 110.795 143.569 110.795 144.627 109.847C146.329 108.328 155.699 105.446 158.933 105.446C161.265 105.446 161.849 105.705 162.447 107.023C163.064 108.367 162.836 109.211 160.934 112.703C158.55 117.085 155.855 124.038 155.855 125.797C155.855 126.388 156.368 126.868 157.005 126.868C158.745 126.868 162.518 130.302 163.882 133.126C164.544 134.502 165.349 136.138 165.668 136.762C165.986 137.378 166.246 138.287 166.246 138.787C166.246 139.546 166.811 139.546 169.98 138.8C174.811 137.664 176.922 137.683 179.227 138.878C180.448 139.507 181.253 139.611 181.519 139.183C182.253 137.995 189.546 134.658 191.41 134.658C195.378 134.658 198.222 138.521 197.683 143.175C197.189 147.453 194.04 153.594 190.429 157.347C186.533 161.384 185.189 163.858 186.877 163.89C190.585 163.955 197.91 165.338 202.346 166.811C208.119 168.727 218.243 173.9 222.918 177.315C225.38 179.113 226.211 179.425 226.938 178.828C227.562 178.308 229.263 178.204 232.276 178.503C236.114 178.879 236.848 178.776 237.751 177.73C240.602 174.452 245.933 165.727 249.927 157.788L254.388 148.94L247.167 148.933C234.692 148.927 222.081 146.363 222.107 143.837C222.12 142.312 222.704 141.637 225.99 139.391C229.601 136.911 237.484 128.816 239.985 125.005L241.848 122.168L240.251 120.883C237.835 118.942 231.952 113.275 227.867 108.958C219.529 100.148 210.268 84.7243 206.846 73.9481C205.969 71.1761 205.43 68.6184 205.645 68.2614C206.086 67.5538 217.541 68.0926 222.672 69.0599C224.321 69.3715 227.86 69.9752 230.536 70.4036C238.387 71.6565 244.167 72.8575 249.368 74.3051C252.044 75.0517 255.122 75.8891 256.2 76.1682C257.285 76.4474 258.817 77.0251 259.609 77.4536C260.408 77.8755 261.058 78.0768 261.058 77.895C261.058 77.7132 261.811 77.8496 262.74 78.2001C263.662 78.5507 264.318 78.6156 264.201 78.3494C264.077 78.0768 262.61 75.3763 260.941 72.3382C252.927 57.7968 252.18 47.1634 258.609 39.0424C261.993 34.7708 267.889 32.8363 271.656 34.7644C273.682 35.803 277.942 39.9966 277.942 40.9509C277.942 41.3988 278.319 41.9961 278.78 42.2817C280.241 43.1841 284.267 53.4279 285.403 59.1276C285.884 61.5555 287.832 65.5154 289.378 67.2227C290.728 68.7158 294.605 68.8521 296.58 67.4694C300.541 64.6974 302.535 57.0308 303.58 40.529C304.619 24.2089 307.561 15.2504 314.289 7.89532C316.107 5.90238 319.263 3.32519 321.309 2.15669C324.724 0.209185 325.491 0.0339097 330.868 0.00145129C335.706 -0.0245154 337.608 0.287086 341.907 1.81912C348.46 4.15612 350.973 5.43498 357.72 9.86879C364.558 14.361 370.189 19.6128 376.267 27.1691C388.417 42.2687 397.054 57.0568 401.847 70.9554C404.12 77.5574 404.224 78.2326 404.237 86.6198C404.25 97.2142 403.133 100.863 397.866 107.393C389.268 118.046 377.098 121.123 349.863 119.533C344.07 119.189 340.933 119.234 340.933 119.649C340.933 120.844 345.791 126.037 348.401 127.628C356.948 132.847 366.169 134.36 377.3 132.367C380.689 131.756 385.514 131.12 388.015 130.958C392.398 130.666 392.632 130.724 394.587 132.652C397.84 135.859 398.327 140.845 395.885 146.019C394.444 149.076 393.703 149.959 388.541 154.75C381.605 161.177 366.818 164.747 357.168 162.326C349.155 160.313 337.076 153.237 329.244 145.967C326.971 143.857 315.808 136.606 314.834 136.606C314.555 136.606 312.977 139.306 311.327 142.611C308.106 149.063 302.067 159.528 296.424 168.415C294.501 171.447 292.917 174.147 292.904 174.407C292.891 174.66 294.716 174.822 296.969 174.751C300.359 174.653 301.444 174.9 303.301 176.198C304.535 177.062 305.73 178.042 305.963 178.38C306.197 178.724 308.223 179.25 310.464 179.555C315.165 180.197 319.373 182.398 322.913 186.072C325.9 189.162 325.984 190.935 323.276 193.31C319.542 196.589 316.302 197.868 311.301 198.043C306.918 198.192 300.145 197.082 296.937 195.693C295.579 195.102 295.476 195.219 295.476 197.316V197.433C295.476 198.179 295.476 198.692 295.716 199.036C296.229 199.776 297.865 199.731 303.041 199.594L303.424 199.581C310.34 199.4 319.705 201.315 322.25 203.431C322.705 203.807 323.802 204.677 324.698 205.359C326.218 206.521 326.27 206.742 325.478 208.767C325.017 209.962 324.582 211.176 324.504 211.468C324.432 211.76 326.569 213.168 329.244 214.603C331.92 216.038 335.056 217.92 336.199 218.79C337.901 220.082 339.219 220.42 343.343 220.621C348.005 220.842 364.214 224.159 367.234 225.509C367.948 225.827 371.312 226.743 374.702 227.541C378.092 228.346 381.306 229.222 381.845 229.489C382.384 229.761 384.716 230.638 387.041 231.443C394.859 234.143 411.289 243.004 412.432 245.14C412.99 246.179 412.62 247.042 410.302 250.087C402.509 260.33 391.06 280.656 395.19 276.917C397.191 275.112 415.724 274.353 429.082 275.534C449.461 277.339 461.916 281.312 471.767 289.141C477.378 293.607 483.84 302.468 485.755 308.33C486.216 309.745 487.002 311.848 487.496 313.004C487.989 314.159 488.411 316.717 488.437 318.697C488.509 324.592 486.229 326.799 480.021 326.825L476.982 326.838L479.794 329.194C487.976 336.049 496.893 354.551 499.139 369.332C501.685 386.074 498.393 405.296 491.775 412.365C487.632 416.786 482.612 417.182 475.242 413.67C469.891 411.119 454.487 399.83 443.142 390.151C430.557 379.414 412.796 366.521 406.522 363.568C405.276 362.977 404.815 362.866 405.503 363.321C421.244 373.656 422.868 374.889 429.622 381.627C433.576 385.574 438.291 390.813 440.09 393.26C443.278 397.59 451.331 412.255 451.331 413.729C451.331 414.131 451.889 415.702 452.578 417.215C454.162 420.72 454.351 421.415 455.526 428.082C457.318 438.228 456.597 443.954 452.454 452.64C449.318 459.203 444.337 464.643 438.895 467.421C433.758 470.05 426.478 470.362 421.114 468.181C412.913 464.844 406.815 458.911 395.6 443.337C376.929 417.409 366.721 405.588 354.856 396.162C347.609 390.404 338.881 385.023 334.952 383.899C333.167 383.387 333.043 383.516 330.621 388.359C325.893 397.818 317.555 419.759 317.555 422.733C317.555 423.187 317.289 424.063 316.958 424.68C316.36 425.823 312.185 443.084 311.347 447.881C311.094 449.31 310.671 450.77 310.399 451.127C310.132 451.484 309.762 452.945 309.587 454.373C309.405 455.801 308.464 461.352 307.483 466.707C305.554 477.256 304.989 492.038 306.074 503.457C306.743 510.487 306.769 510.682 307.373 511.649C307.652 512.091 307.561 513.038 307.171 513.759ZM235.757 361.451C241.335 362.594 244.764 362.678 250.992 361.834C256.518 361.081 259.791 360.101 260.545 358.984C260.824 358.569 264.558 358.244 269.961 358.16C288.897 357.861 308.295 354.927 333.465 348.546C339.68 346.968 342.466 346.176 343.856 345.599C344.57 345.3 348.207 344.118 351.934 342.969C355.662 341.827 359.461 340.496 360.376 340.022C361.292 339.542 362.513 339.152 363.097 339.152C365.162 339.139 366.104 336.757 367.994 326.812C369.078 321.099 369.572 296.489 368.695 291.757C368.468 290.51 367.955 286.907 367.565 283.752C366.403 274.327 364.273 266.218 361.026 258.818C359.74 255.89 359.22 255.358 357.324 255.007C355.045 254.579 344.395 255.066 337.037 255.936C333.491 256.351 332.478 256.241 330.705 255.215L328.595 254.001V256.247C328.595 257.481 328.231 258.766 327.783 259.104C325.9 260.538 312.314 265.913 311.431 265.576C310.905 265.368 309.658 263.946 308.665 262.414C307.671 260.876 306.022 258.454 305.009 257.026L303.158 254.43L303.6 257.026C304.022 259.461 305.554 266.108 306.243 268.478C306.463 269.224 305.236 270.483 302.151 272.671C298.099 275.553 284.812 287.991 287.033 286.829C287.572 286.544 290.339 284.752 293.19 282.844C296.041 280.935 299.047 279.202 299.879 278.994C304.639 277.8 300.301 282.194 288.93 290.088C278.585 297.268 274.987 300.345 264.954 310.615C254.369 321.456 253.59 321.813 249.752 317.594C242.719 309.862 237.679 303.987 237.679 303.52C237.679 302.741 227.581 294.892 222.425 291.666C217.97 288.874 217.827 288.835 212.366 288.9C204.651 288.998 185.728 291.919 185.728 293.023C185.728 293.243 186.922 293.477 188.377 293.535C192.209 293.685 200.605 295.632 203.313 296.995C204.592 297.638 206.898 299.858 208.437 301.936C209.982 304.013 213.015 307.389 215.184 309.434C218.275 312.361 218.957 313.328 218.34 313.945C217.132 315.153 217.399 316.886 218.847 317.262C220.47 317.684 220.522 318.775 218.951 319.612C218.295 319.963 214.717 320.865 210.996 321.618C200.806 323.683 194.144 325.448 191.143 326.883C189.656 327.591 185.715 330.746 182.377 333.901C179.039 337.049 175.363 340.418 174.201 341.392C173.038 342.359 172.09 343.411 172.09 343.716C172.09 345.164 176.746 345.053 182.266 343.476C190.468 341.132 195.715 340.412 202.333 340.71C207.736 340.951 220.944 343.028 223.581 344.047C225.399 344.755 224.503 345.93 221.873 346.287L219.49 346.611L221.925 351.396C224.016 355.498 224.88 356.498 227.964 358.387C230.023 359.647 233.367 360.964 235.757 361.451ZM118.794 291.549C120.781 292.321 122.691 292.886 123.028 292.802C123.717 292.627 124.398 290.4 124.879 286.752C125.515 281.915 127.347 274.508 128.542 271.957C130.464 267.861 130.769 266.342 129.808 265.745C128.327 264.836 129.029 260.064 131.367 255.15C135.503 246.438 140.698 239.246 150.972 228.015C153.056 225.736 153.095 225.607 151.751 225.418C150.017 225.172 149.998 223.769 151.569 213.532C152.875 205.067 152.251 195.011 150.426 195.044C149.056 195.063 139.315 196.926 137.029 197.608C135.782 197.971 133.529 198.277 132.029 198.277H129.301L130.84 201.685C133.269 207.079 134.23 211.189 134.367 216.778C134.451 220.407 134.217 222.348 133.568 223.224C132.659 224.458 132.639 224.458 131.957 223.192C131.581 222.484 131.081 220.024 130.84 217.719C129.548 205.145 124.691 196.42 113.313 186.241C109.209 182.567 107.956 181.788 106.423 181.95C103.527 182.255 104.033 180.236 107.8 176.529C109.586 174.77 111.047 173.147 111.047 172.914C111.047 172.686 109.56 172.641 107.741 172.816C104.624 173.115 104.449 173.056 104.657 171.693C104.832 170.57 105.949 169.843 109.748 168.363C112.424 167.324 114.956 166.474 115.365 166.467C116.216 166.467 123.106 162.663 126.204 160.482C130.451 157.502 133.847 153.783 137.847 147.726C143.783 138.741 146.075 135.054 145.868 134.84C145.764 134.743 143.367 135.262 140.542 136.002C126.736 139.624 118.716 141.436 109.144 143.117C104.546 143.922 99.2473 146.46 94.9224 149.933C91.8377 152.406 90.0584 152.88 90.7078 151.05C91.3312 149.303 92.8767 147.7 96.6367 144.909C101.085 141.604 104.43 140.209 109.378 139.585C110.073 139.494 110.904 138.826 111.235 138.092C111.56 137.352 112.56 136.366 113.456 135.885C116.236 134.399 121.561 128.03 123.522 123.843C125.243 120.182 126.775 112.08 126.262 109.341C126.165 108.808 126.061 107.51 126.035 106.458L125.983 104.556L124.197 106.205C116.424 113.379 99.6175 120.675 86.2984 122.649C83.8047 123.019 83.1293 123.434 82.2461 125.141C81.6617 126.271 79.5966 129.673 77.6549 132.711C70.8037 143.409 68.8166 146.992 64.7968 155.821C61.2057 163.728 58.186 173.582 57.3872 180.016C57.2378 181.229 56.9716 182.456 56.7962 182.742C56.1793 183.735 56.4196 203.204 57.108 208.014C57.8613 213.305 59.2445 219.452 60.816 224.568C70.005 254.384 93.6885 281.746 118.794 291.549ZM212.353 404.712C213.801 405.835 215.015 405.965 223.717 405.906C244.511 405.783 262.084 401.07 280.468 390.696C287.676 386.626 298.034 377.836 304.866 369.981C308.041 366.327 313.698 357.66 313.048 357.446C312.691 357.323 308.665 357.822 304.1 358.549C290.969 360.646 282.091 361.367 272.532 361.12C264.577 360.919 263.655 361.003 263.655 361.977C263.655 363.217 261.33 364.093 255.538 365.035C239.757 367.592 229.951 365.69 222.457 358.601C218.879 355.219 216.899 351.285 216.899 347.553C216.899 345.839 216.788 345.787 210.827 345.001L204.755 344.196L201.651 346.566C196.196 350.733 193.663 351.707 185.403 352.83C182.214 353.259 180.747 353.473 179.273 353.518C177.928 353.557 176.578 353.453 173.902 353.252L173.285 353.207C166.434 352.7 164.59 352.045 161.862 349.163C160.706 347.942 159.381 346.936 158.933 346.936C158.479 346.936 156.654 345.956 154.868 344.755C150.628 341.898 148.459 337.841 149.381 334.498C150.446 330.655 152.004 329.765 157.94 329.61C161.343 329.519 163.518 329.155 164.213 328.551C165.908 327.078 167.986 326.163 169.655 326.163C170.772 326.163 171.493 325.552 172.246 323.968C173.61 321.112 177.019 317.243 178.623 316.737C179.506 316.457 179.883 315.743 179.883 314.348C179.883 311.738 181.091 307.687 182.89 304.24C183.929 302.26 184.24 300.819 183.981 299.222C183.662 297.294 183.305 296.918 181.422 296.567C179.571 296.216 179.234 295.885 179.234 294.379C179.234 292.594 180.552 290.997 182.643 290.251C183.266 290.03 183.779 289.218 183.779 288.446C183.779 287.673 184.364 286.089 185.085 284.934C186.331 282.915 186.338 282.766 185.247 281.545C184.617 280.844 182.208 279.487 179.883 278.527C172.61 275.521 172.421 275.378 172.356 272.905C172.324 271.671 172.837 269.575 173.493 268.25C174.149 266.926 174.688 265.641 174.688 265.394C174.688 265.147 172.954 266.595 170.837 268.614C168.726 270.633 166.811 272.282 166.59 272.282C166.375 272.282 165.083 271.717 163.726 271.022C158.42 268.322 149.822 266.452 141.887 266.277L134.328 266.115L133.393 268.711C131.717 273.366 128.71 285.473 127.912 290.783C126.126 302.643 127.606 320.002 131.542 333.303C133.756 340.788 140.068 354.246 144.491 360.893C148.452 366.859 158.907 378.187 163.68 381.692L166.927 384.068L171.291 383.056C180.961 380.809 189.449 379.823 193.066 380.517C194.468 380.79 194.839 381.186 194.689 382.244C194.514 383.49 193.955 383.653 188.325 384.036C176.5 384.847 164.551 387.976 155.673 392.592C153.076 393.942 152.173 394.715 152.751 395.085C153.53 395.591 157.505 396.811 159.791 397.253C160.349 397.363 162.693 397.909 164.992 398.473C172.908 400.408 188.728 402.284 203.911 403.089C209.288 403.374 211.073 403.719 212.353 404.712ZM226.704 228.8C230.555 229.839 233.004 230.053 239.024 229.865C248.875 229.56 256.271 227.21 270.798 219.764C295.359 207.183 295.599 207.079 305.541 204.444L308.788 203.58L304.242 203.515C292.884 203.36 277.241 202.821 273.396 202.451C267.519 201.886 255.181 199.205 249.368 197.231C243.797 195.336 234.595 190.61 231.062 187.831C229.744 186.793 228.419 185.942 228.12 185.942C227.821 185.942 226.62 185.066 225.445 183.995C224.269 182.924 223.178 182.047 223.022 182.047C222.86 182.047 221.347 181.08 219.652 179.905C212.775 175.121 204.378 171.096 197.741 169.402C193.975 168.441 183.13 167.61 183.13 168.285C183.13 168.532 184.078 168.804 185.234 168.889C186.396 168.967 187.448 169.356 187.578 169.739C187.708 170.129 188.526 170.719 189.397 171.051C191.566 171.875 194.202 177.724 197.131 188.215C200.878 201.62 202.404 205.528 207.138 213.798C208.937 216.947 215.093 223.133 218.762 225.49C220.49 226.593 224.061 228.08 226.704 228.8ZM210.405 421.759C217.496 422.019 237.679 421.733 243.524 421.291C256.453 420.311 280.384 417.117 289.956 415.105C291.742 414.728 294.053 414.267 295.099 414.079C296.138 413.897 297.164 413.631 297.385 413.501C297.599 413.365 299.073 413.067 300.664 412.826C302.249 412.593 304.054 412.132 304.665 411.801C305.281 411.47 306.457 411.19 307.282 411.171C308.113 411.158 310.808 410.47 313.282 409.652L317.769 408.165L322.088 397.837C324.465 392.157 327.536 385.315 328.92 382.64C332.77 375.181 341.329 361.107 346.219 354.181C348.635 350.759 350.538 347.877 350.441 347.786C350.35 347.695 347.992 348.234 345.2 348.994C340.719 350.214 339.972 350.636 338.79 352.642C338.05 353.888 335.965 357.199 334.16 359.991C328.731 368.371 327.906 369.735 324.582 375.824C322.828 379.037 321.133 382.101 320.809 382.64C320.49 383.179 318.984 385.763 317.477 388.392L314.724 393.17L317.438 395.422C322.088 399.285 321.77 399.609 309.438 403.712C294.924 408.535 270.253 413.333 250.992 415.072C237.939 416.247 221.457 417.007 214.95 416.721C211.561 416.572 204.638 416.286 199.566 416.072C177.24 415.15 155.544 411.184 148.848 406.802L147.335 405.809L147.738 412.826L151.309 414.001C155.037 415.228 156.394 415.598 159.102 416.137C159.998 416.312 161.752 416.708 162.999 417.02C164.245 417.325 167.025 417.766 169.168 418C171.311 418.227 173.941 418.682 175.012 419C176.811 419.539 200.677 421.402 210.405 421.759ZM199.04 412.463C214.561 413.196 216.028 413.196 231.51 412.476C243.563 411.918 253.557 411.061 265.603 409.548C279.189 407.847 304.801 401.894 312.211 398.72L314.334 397.805L309.438 393.955C306.749 391.839 302.801 388.697 300.671 386.977L296.8 383.848L292.936 386.814C290.819 388.444 288.767 389.781 288.384 389.781C287.995 389.781 287.683 390.054 287.683 390.385C287.683 390.722 287.027 391.19 286.222 391.436C285.416 391.676 284.176 392.404 283.462 393.046C279.565 396.552 263.766 403.498 254.064 405.971C242.387 408.951 237.803 409.503 224.691 409.49C213.755 409.483 211.489 409.301 208.08 408.172C205.865 407.438 202.027 406.802 199.352 406.724C196.722 406.646 194.41 406.49 194.209 406.374C194.007 406.263 191.65 405.984 188.975 405.757C180.234 405.017 177.006 404.647 174.038 404.063C172.428 403.738 168.629 403.011 165.596 402.44C162.564 401.868 157.719 400.57 154.836 399.557C148.394 397.292 147.147 397.629 148.387 401.297C148.894 402.803 149.881 404.076 150.965 404.608C157.959 408.094 178.876 411.509 199.04 412.463ZM373.41 304.383L373.416 311.556L376.014 306.363C377.442 303.507 379.313 299.56 380.176 297.599C381.04 295.639 383.488 290.38 385.612 285.914C387.735 281.448 390.495 275.579 391.742 272.872C394.593 266.66 400.529 256.767 403.97 252.482C404.542 251.768 405.652 250.113 406.432 248.808L407.854 246.432L404.107 244.16C392.32 237.032 381.118 232.819 360.597 227.788L359.604 227.548C350.804 225.392 346.973 224.451 346.538 225.282C346.2 225.925 347.895 227.619 350.889 230.618L351.324 231.06C354.701 234.455 358.013 237.227 358.675 237.227C360.454 237.227 371.182 241.011 375.676 243.231C384.742 247.698 394.768 253.774 395.087 255.001C395.294 255.793 394.729 257.15 393.586 258.597C389.171 264.206 381.43 279.111 376.02 292.406C375.222 294.366 374.306 296.255 373.988 296.593C373.663 296.931 373.403 300.436 373.41 304.383ZM294.826 510.338C295.722 510.786 298.002 511.162 299.904 511.169C302.885 511.175 303.314 511.019 303.022 510.039C302.216 507.3 301.366 491.356 301.645 484.235C301.944 476.633 303.203 466.415 304.574 460.54C304.944 458.937 306.282 452.802 307.541 446.908C309.769 436.469 311.464 429.893 314.308 420.616C316.23 414.371 316.613 412.203 315.698 412.768C315.295 413.021 314.451 413.333 313.821 413.469C313.198 413.605 310.496 414.287 307.821 414.982C302.216 416.436 302.138 416.559 302.034 424.057C301.996 426.66 301.534 432.795 301.008 437.689C299.417 452.413 298.794 458.534 298.054 466.707C297.664 470.992 297.067 476.25 296.729 478.392C295.456 486.494 294.216 493.427 293.527 496.296C293.138 497.932 292.904 501.574 293.008 504.398C293.19 509.117 293.333 509.585 294.826 510.338ZM150.848 507.501C150.524 508.02 162.174 507.67 162.7 507.144C162.836 507.008 162.551 505.157 162.063 503.035C158.388 486.935 156.881 444.947 159.343 427.108C159.836 423.538 160.128 420.422 159.992 420.188C159.856 419.948 158.576 419.558 157.154 419.318C155.732 419.078 154.401 418.617 154.199 418.286C153.998 417.961 153.271 417.695 152.589 417.695C151.913 417.695 150.322 417.202 149.069 416.604C147.809 416.007 146.634 415.663 146.452 415.845C146.27 416.027 146.53 417.611 147.036 419.37C147.855 422.226 148.783 426.699 150.68 436.846C152.81 448.232 154.004 483.3 152.634 493.972C152.31 496.472 151.855 500.412 151.621 502.729C151.387 505.047 151.037 507.189 150.848 507.501ZM292.722 137.93C300.807 140.092 308.827 138.404 311.016 134.087C312.808 130.555 315.477 121.753 315.802 118.312L316.087 115.268L311.834 114.813C302.606 113.826 295.502 115.131 285.618 119.636C283.942 120.396 282.117 120.844 281.559 120.63C281.001 120.415 280.539 120.48 280.539 120.779C280.539 121.428 283.676 129.978 284.501 131.568C284.825 132.185 285.085 133.126 285.085 133.658C285.085 135.1 287.806 136.619 292.722 137.93ZM126.457 194.252C127.016 195.076 127.847 195.602 128.308 195.427C128.762 195.251 130.256 194.914 131.62 194.687C139.809 193.291 147.14 191.668 147.679 191.129C148.024 190.785 148.322 189.402 148.348 188.059C148.368 186.851 148.355 185.988 148.679 185.274C149.543 183.352 152.823 182.528 165.59 179.107C170.856 177.698 171.123 177.542 171.532 175.549L171.954 173.459L169.59 173.874C168.285 174.095 165.323 174.465 162.999 174.686C160.674 174.907 157.654 175.653 156.284 176.341C153.849 177.562 146.712 178.159 141.893 177.549C139.529 177.25 132.204 175.316 129.646 174.309C128.068 173.693 127.275 173.829 124.45 175.186C122.613 176.069 119.216 177.133 116.891 177.555C114.567 177.971 112.235 178.445 111.709 178.594C111.06 178.782 112.001 179.97 114.619 182.249C119.184 186.222 125.022 192.142 126.457 194.252ZM270.305 481.443C270.753 481.742 273.61 481.911 276.643 481.813L282.163 481.638L281.838 477.418C281.241 469.628 281.591 444.051 282.39 437.17C282.832 433.418 283.644 428.244 284.196 425.667C284.754 423.09 285.105 420.727 284.981 420.415C284.858 420.097 283.007 420.22 280.864 420.675C278.721 421.136 276.24 421.525 275.344 421.551L273.721 421.59L273.708 438.955C273.708 448.505 273.5 458.073 273.26 460.216C272.539 466.577 270.805 476.951 270.123 478.996C269.649 480.398 269.701 481.047 270.305 481.443ZM135.367 479.171C135.204 479.742 136.471 479.885 140.14 479.704C142.893 479.567 145.575 479.437 146.114 479.411C146.946 479.372 147.095 477.425 147.14 466.22C147.173 458.989 147.296 450.738 147.42 447.881C147.647 442.669 147.192 437.41 146.043 431.977C145.705 430.373 144.945 426.134 144.361 422.564C143.445 417 142.926 415.533 140.731 412.307C139.322 410.236 138.068 408.646 137.945 408.769C137.822 408.892 137.964 412.482 138.257 416.747C139.841 439.598 138.503 468.479 135.367 479.171ZM370.487 278.007L370.987 280.169L374.306 279.721C376.131 279.474 377.624 279.234 377.624 279.189C377.624 278.501 385.209 264.31 387.378 260.941C388.976 258.454 390.288 256.208 390.288 255.962C390.288 255.481 382.332 250.859 374.053 246.523C369.546 244.166 361.714 240.972 361.714 241.498C361.714 241.621 362.604 242.978 363.695 244.504C369.111 252.119 370 253.8 370.039 256.546C370.065 258.552 369.643 259.805 368.487 261.187C366.903 263.063 366.896 263.089 367.935 266.868C369.364 272.1 370.085 275.054 370.026 275.489C370 275.69 370.208 276.826 370.487 278.007ZM269.006 179.587C269.811 179.84 272.422 179.957 274.805 179.84C283.157 179.438 288.261 174.978 296.787 160.625L301.223 153.159L297.255 152.342C295.073 151.894 292.56 151.056 291.683 150.478C290.164 149.485 290.105 149.492 290.553 150.647C290.813 151.316 291.469 154.25 292.014 157.178L293.001 162.488L289.943 166.773C285.02 173.667 279.799 176.815 273.234 176.841C269.876 176.854 269.253 176.627 266.993 174.588C265.616 173.342 264.032 171.076 263.473 169.557C259.389 158.379 260.694 134.08 266.409 114.859C267.467 111.288 268.409 108.075 268.493 107.718C268.578 107.361 268.993 106.192 269.415 105.121C271.149 100.713 271.376 99.707 271.727 94.7344L272.097 89.5411L270.13 94.4098C267.987 99.733 262.447 116.482 261.98 119.078C261.817 119.974 261.116 123.33 260.421 126.544C258.557 135.171 257.914 142.916 258.181 153.588C258.434 163.851 259.103 167.681 261.473 172.44C263.032 175.569 266.409 178.769 269.006 179.587ZM132.633 392.404C132.899 392.605 135.088 392.553 137.503 392.28C139.919 392.014 144.069 391.78 146.725 391.761C151.141 391.728 151.926 391.514 155.816 389.216C158.161 387.833 160.752 386.49 161.57 386.236C162.771 385.866 162.914 385.594 162.304 384.86C161.882 384.354 161.115 383.938 160.589 383.938C160.063 383.938 156.849 381.14 153.439 377.713L147.244 371.487L142.835 374.5C137.737 377.986 132.99 382.536 130.717 386.113L129.126 388.619L130.639 390.326C131.47 391.274 132.367 392.209 132.633 392.404ZM277.916 114.43C278.312 115.917 278.793 117.131 278.987 117.131C279.176 117.131 280.26 116.417 281.403 115.553C284.196 113.417 292.761 109.399 295.521 108.925C296.748 108.717 300.236 108.237 303.275 107.867C308.366 107.25 309.054 107.309 311.983 108.601C313.73 109.373 315.295 109.867 315.458 109.704C315.626 109.535 315.568 108.367 315.328 107.095C314.828 104.426 312.795 102.349 308.269 99.8888C305.314 98.2789 304.619 98.162 299.775 98.4671C293.203 98.8891 288.417 100.902 282.786 105.614C277.507 110.022 276.981 110.97 277.916 114.43ZM188.325 284.759C188.325 285.161 188.981 284.888 189.786 284.148C192.683 281.487 199.138 278.773 202.56 278.773C206.8 278.773 208.69 279.708 210.742 282.805C211.671 284.2 212.775 285.233 213.203 285.09C215.821 284.22 212.684 279.124 208.112 276.826C205.709 275.618 204.833 274.787 204.683 273.58C204.463 271.788 202.475 267.367 201.151 265.699C200.683 265.108 198.917 263.979 197.228 263.187C195.533 262.395 193.994 261.486 193.8 261.168C193.325 260.402 186.883 260.434 184.831 261.22C183.935 261.557 182.695 262.603 182.084 263.537C181.013 265.173 181.039 265.459 182.838 271.081C184.039 274.839 185.15 277.163 185.948 277.592C187.085 278.202 187.163 278.066 186.87 276.079C186.267 272.035 188.728 268.439 193.286 266.692C195.91 265.693 196.202 265.699 197.787 266.738C199.391 267.783 201.592 271.775 202.073 274.489C202.248 275.502 201.677 275.865 198.975 276.488C193.423 277.761 188.325 281.721 188.325 284.759ZM231.036 141.955C232.01 142.091 233.685 142.117 234.757 142.013C235.828 141.909 238.601 141.637 240.926 141.403C248.225 140.676 258.518 136.586 258.427 134.45C258.415 134.029 255.258 131.614 251.42 129.082L244.446 124.479L242.524 127.693C241.465 129.458 238.049 133.334 234.932 136.307C229.503 141.481 229.335 141.728 231.036 141.955ZM268.733 197.965L268.902 197.991C274.435 198.796 275.74 198.984 275.909 198.627C275.968 198.517 275.909 198.354 275.838 198.14L275.831 198.121C275.682 197.673 272.506 195.706 268.766 193.739C259.395 188.805 242.426 183.359 233.133 182.294L229.562 181.885L233.192 184.521C237.16 187.41 248.044 193.083 249.615 193.083C250.148 193.083 250.752 193.343 250.946 193.661C251.433 194.44 261.843 196.965 268.733 197.965ZM306.898 387.723L312.035 391.488L315.769 384.477C317.821 380.621 319.503 377.194 319.503 376.856C319.503 376.35 309.97 372.253 308.795 372.253C308.593 372.253 306.171 374.551 303.411 377.369L298.398 382.478L300.08 383.218C301.002 383.62 304.074 385.652 306.898 387.723ZM275.662 102.68L276.117 107.555L279.793 103.959C283.657 100.174 290.371 96.1496 294.138 95.3641C296.177 94.9422 296.274 94.8253 295.209 94.0463C293.891 93.0855 278.806 87.269 277.624 87.269C277.357 87.269 276.085 92.2676 275.656 94.9681C275.409 96.5261 275.409 99.9927 275.662 102.68ZM299.047 193.122C302.249 193.843 306.372 194.252 309.795 194.174C314.808 194.07 315.652 193.862 318.451 192.038L321.562 190.013L318.743 187.734C314.23 184.079 311.847 183.119 307.34 183.151C302.762 183.183 296.658 185.683 295.398 188.039C294.761 189.227 294.82 189.325 295.885 188.857C296.554 188.565 299.411 188.24 302.236 188.137C305.061 188.033 307.678 187.637 308.048 187.267C308.879 186.436 311.503 186.377 311.996 187.182C313.555 189.701 308.204 191.954 302.015 191.376C299.56 191.149 296.722 191.181 295.703 191.454C294.079 191.889 294.495 192.097 299.047 193.122ZM156.173 227.08L154.277 229.599L159.453 225.886C162.297 223.847 166.064 221.049 167.83 219.68C171.415 216.882 181.513 211.072 191.072 206.3C197.469 203.106 199.456 200.971 195.306 201.763C192.845 202.224 180.825 208.034 176.766 210.715C175.227 211.727 173.675 212.558 173.305 212.558C172.032 212.558 161.369 220.309 159.719 222.432C158.81 223.607 157.212 225.697 156.173 227.08ZM277.65 287.407C278.702 288.732 279.942 289.809 280.397 289.809C282.384 289.809 281.754 287.647 278.481 283.181C273.708 276.69 272.097 274.346 272.097 273.918C272.097 273.716 271.383 272.463 270.513 271.133C269.643 269.802 267.571 265.355 265.909 261.246C261.181 249.567 259.304 249.126 262.765 260.506C263.701 263.589 265.344 267.867 266.422 270.01C268.519 274.184 274.52 283.486 277.65 287.407ZM292.553 147.408C296.19 149.109 302.632 149.524 303.768 148.128C304.132 147.68 305.21 145.921 306.158 144.214L307.879 141.111L306.061 141.617C302.392 142.636 294.034 142.111 290.767 140.65C287.397 139.15 287.3 139.261 288.495 143.201C289.189 145.499 289.78 146.11 292.553 147.408ZM157.531 171.791L156.18 172.914L157.609 172.94C163.375 173.024 165.752 167.337 166.577 151.524L166.999 143.422L164.921 140.631C162.551 137.456 162.018 137.404 163.083 140.462C164.116 143.422 163.401 159.963 162.063 164.156C160.908 167.779 159.505 170.135 157.531 171.791ZM256.168 218.42C252.966 219.16 251.745 219.121 248.128 218.161C244.433 217.174 243.452 215.733 245.173 213.831C247.18 211.61 249.693 210.611 253.265 210.611C257.427 210.611 260.408 212.052 260.408 214.071C260.408 216.336 259.018 217.758 256.168 218.42ZM150.251 125.07C151.563 125.927 151.894 125.609 152.654 122.811C153.069 121.292 154.498 117.715 155.836 114.859C157.979 110.288 158.135 109.639 157.135 109.464C155.862 109.243 148.413 111.054 146.601 112.028C145.491 112.619 145.491 112.768 146.517 114.729C148.394 118.325 148.543 118.734 149.037 121.701C149.303 123.291 149.848 124.81 150.251 125.07ZM286.865 188.61C288.209 188.825 289.638 189.045 290.04 189.097C290.443 189.149 291.125 188.338 291.553 187.306C292.748 184.423 295.631 182.197 300.658 180.275C302.203 179.678 302.216 179.633 300.982 178.996C300.275 178.626 297.742 178.159 295.352 177.945L291.008 177.562L284.423 188.215L286.865 188.61ZM213.489 151.128C212.6 152.108 210.996 152.9 209.398 153.146C207.177 153.491 206.502 153.302 205.015 151.926C204.021 151.004 203.508 150.543 203.398 149.998C203.274 149.433 203.586 148.771 204.235 147.401L204.294 147.285C205.8 144.104 211.612 142.435 214.074 144.474C215.463 145.629 215.139 149.31 213.489 151.128ZM255.674 89.4697C262.467 91.5535 265.467 90.2032 262.025 86.6133C259.557 84.0426 256.914 82.9066 252.141 82.3678C248.622 81.9718 248.037 82.0627 247.654 83.0559C246.784 85.315 249.667 87.626 255.674 89.4697ZM106.514 96.8961C106.508 97.37 107.443 96.8117 108.599 95.6627C111.294 92.9622 115.222 91.1965 118.56 91.177C122.236 91.1575 127.503 92.8389 129.782 94.7474C132.055 96.6624 132.477 96.7339 132.477 95.2018C132.477 90.0474 118.95 86.3602 112.027 89.6255C109.579 90.7875 106.54 94.7864 106.514 96.8961ZM232.601 164.358C231.367 165.344 231.257 165.344 229.309 164.26C225.1 161.93 224.841 155.081 228.912 153.88C230.809 153.322 233.744 155.938 234.38 158.755C234.932 161.216 234.387 162.936 232.601 164.358ZM223.412 205.411C220.457 206.917 219.412 207.021 218.327 205.937C216.548 204.158 217.918 198.01 220.256 197.264C222.178 196.66 225.042 197.556 226.646 199.257C228.049 200.75 228.068 200.906 227.042 202.464C226.458 203.366 224.821 204.69 223.412 205.411ZM282.682 198.471C283.053 199.452 283.76 199.607 287.189 199.445C291.014 199.263 291.267 199.153 291.449 197.576C291.995 192.895 282.942 189.948 281.014 194.18C280.41 195.511 280.449 195.959 281.254 196.563C281.799 196.972 282.442 197.829 282.682 198.471ZM183.649 158.625C183.266 161.229 183.76 161.138 185.611 158.281C187.098 155.99 187.104 155.873 186.15 151.192C184.812 144.623 183.39 141.799 181.435 141.799C179.565 141.799 179.558 141.838 181.117 144.61C182.539 147.142 184.085 155.678 183.649 158.625ZM140.757 406.224L143.841 410.23L144.212 407.458C144.413 405.932 144.906 404.361 145.303 403.965C145.835 403.433 145.66 402.745 144.647 401.382C143.504 399.83 142.802 399.518 140.471 399.518C138.068 399.518 137.672 399.713 137.672 400.869C137.672 401.609 139.062 404.017 140.757 406.224ZM132.477 82.4587C134.743 83.6596 135.075 83.5882 135.075 81.8744C135.075 79.8555 131.425 78.1222 126.275 77.7003C122.743 77.4081 122.145 77.5445 120.431 79.0311L118.515 80.6864L121.216 80.3294C124.087 79.9529 129.775 81.024 132.477 82.4587ZM161.732 345.352C163.784 347.533 164.304 347.338 163.564 344.67C162.856 342.1 163.804 335.478 165.317 332.395C166.551 329.889 166.538 329.876 164.349 331.005C162.232 332.102 161.356 334.245 160.68 339.996C160.291 343.365 160.401 343.93 161.732 345.352ZM182.922 322.397C183.929 324.468 184.844 326.163 184.961 326.163C185.072 326.163 185.728 325.857 186.416 325.494C187.63 324.845 187.604 324.689 185.728 320.963C184.656 318.846 183.779 316.665 183.779 316.12C183.779 314.549 182.766 314.964 181.89 316.886C181.182 318.431 181.312 319.1 182.922 322.397ZM171.454 336.251C172.019 337.75 172.253 337.874 173.149 337.127C173.928 336.478 174.103 335.537 173.844 333.323C173.649 331.706 173.727 329.123 174.012 327.578L174.532 324.773L172.662 326.565C171.116 328.045 170.791 328.889 170.791 331.434C170.791 333.128 171.09 335.296 171.454 336.251ZM114.599 173.121C114.067 175.251 114.281 175.277 118.768 173.634C123.217 172.011 123.366 171.823 121.431 170.33C118.418 168.019 115.58 169.181 114.599 173.121ZM188.358 266.997C186.604 268.478 185.026 269.685 184.851 269.685C184.676 269.685 184.338 268.789 184.098 267.692C183.487 264.933 185.15 263.193 188.39 263.193C189.741 263.193 191.001 263.446 191.195 263.752C191.384 264.063 190.104 265.524 188.358 266.997ZM178.669 175.134C177.87 176.088 177.98 176.205 179.643 176.198C180.669 176.198 183.046 176.01 184.922 175.783C187.819 175.432 188.215 175.231 187.546 174.426C185.513 171.979 180.987 172.336 178.669 175.134ZM142.867 130.731C142.867 131.503 143.257 131.549 145.264 131.016C146.997 130.549 148.563 126.868 147.023 126.868C145.919 126.868 142.867 129.705 142.867 130.731ZM178.558 349.831C179.435 350.883 181.831 351.214 181.831 350.279C181.831 349.98 181.24 349.201 180.519 348.546C178.863 347.053 177.175 348.163 178.558 349.831ZM364.708 258.273C364.922 258.837 365.331 259.298 365.61 259.298C366.052 259.298 366.909 257.766 366.909 256.974C366.909 256.825 366.325 256.702 365.61 256.702C364.182 256.702 364.136 256.78 364.708 258.273ZM130.685 109.561C132.237 110.185 133.126 109.983 133.126 109.016C133.126 108.484 132.561 108.042 131.867 108.042C130.353 108.042 129.535 109.094 130.685 109.561ZM177.714 170.005C177.402 170.81 177.701 170.791 179.578 169.895C182.058 168.714 182.104 168.045 179.662 168.655C178.792 168.876 177.915 169.48 177.714 170.005Z" fill="#055AF7"/>
</svg>
