<svg width="500" height="443" viewBox="0 0 500 443" fill="none" xmlns="http://www.w3.org/2000/svg">
<path d="M211.209 441.358C203.672 443.858 191.986 443.465 183.928 440.443C178.359 438.35 171.973 433.1 169.741 428.778C165.959 421.454 168.255 417.112 178.957 411.334C187.221 406.877 192.147 403.031 195.549 398.393C198.475 394.406 204.276 383.5 204.276 381.993C204.276 381.574 204.682 380.318 205.183 379.204C205.961 377.458 206.752 374.482 209.145 364.292C209.724 361.838 210.495 348.51 210.058 348.51C209.884 348.51 209.119 350.32 208.36 352.536C204.463 363.938 198.656 376.711 194.668 382.65C190.34 389.105 188.752 391.295 185.587 395.179C176.7 406.078 164.988 413.595 153.47 415.785C147.547 416.913 133.386 417.112 129.353 416.133C127.938 415.785 125.771 415.367 124.53 415.193C117.841 414.252 103.108 407.959 94.4771 402.368C89.2228 398.96 78.875 389.047 75.7238 384.402C72.6561 379.874 70.9904 375.79 71.5371 374.096C71.7879 373.31 72.0323 369.175 72.0773 364.91C72.1673 356.176 72.9712 353.908 76.9071 351.248C80.0391 349.135 84.7017 349.341 95.0301 352.059C103.455 354.275 109.089 355.544 116.169 356.826C123.141 358.082 138.177 356.73 143.502 354.366C144.209 354.056 146.383 353.155 148.325 352.369C156.165 349.212 162.705 344.008 165.4 338.79C167.297 335.105 167.342 329.527 165.516 324.303C163.438 318.383 160.911 314.37 159.252 314.37C157.605 314.37 157.638 314.892 159.515 318.312C164.435 327.318 164.847 334.481 160.737 339.756C159.477 341.386 158.248 342.713 158.004 342.713C157.766 342.713 156.969 343.273 156.236 343.956C153.644 346.378 143.502 350.919 137.637 352.291C131.25 353.786 117.854 354.204 113.597 353.045C112.356 352.71 110.626 352.298 109.738 352.137C108.015 351.821 104.568 350.958 100.413 349.798C94.4835 348.149 93.1265 347.815 88.7855 346.945C83.5055 345.895 78.8879 346.211 75.6723 347.853C70.4181 350.546 68.5916 354.771 68.8231 363.751C68.9839 370.225 68.9646 370.321 67.6591 369.619C65.1316 368.266 59.1314 362.024 55.5621 357.045C45.9025 343.557 41.5164 330.532 42.4039 317.945C43.002 309.481 45.941 304.025 50.5779 302.775C53.7549 301.919 55.7743 302.872 61.5238 307.929C63.7425 309.88 66.6558 312.29 68.0064 313.282L70.4631 315.092L70.4438 309.7C70.4309 306.737 70.7075 303.6 71.0483 302.737C71.3892 301.874 72.0387 299.426 72.4825 297.3C72.9262 295.174 73.4536 293.145 73.6529 292.791C73.8459 292.437 74.0903 291.632 74.1867 291C74.5147 288.868 78.2512 279.747 81.1131 274.085C83.409 269.55 83.827 268.204 83.2868 267.193C81.4539 263.759 84.8174 249.304 89.5315 240.383C91.0943 237.42 92.3741 234.663 92.3741 234.251C92.3741 233.845 92.9529 232.428 93.6603 231.107C95.3645 227.925 95.2938 226.669 93.0686 220.575C88.3803 207.699 79.8333 198.339 67.0546 192.084C57.9802 187.64 53.2083 186.603 42.5325 186.757C35.3232 186.86 29.6445 187.601 29.7474 188.413C29.786 188.754 30.3519 189.334 31.0079 189.701C33.3295 191.009 37.1625 196.42 38.378 200.104C39.5871 203.782 39.6835 209.953 38.5774 212.594C37.7156 214.636 37.5484 214.746 36.7959 213.728C36.3457 213.116 35.7991 210.192 35.5933 207.235C35.0081 198.906 31.3745 193.031 25.5414 190.957C20.5251 189.179 19.7533 188.632 17.6889 185.411C15.02 181.243 11.3478 178.184 5.78485 175.498C3.2574 174.274 0.839285 172.85 0.401965 172.328C-2.24767 169.127 8.87824 172.026 13.9846 175.871C15.7081 177.172 18.1713 179.588 19.4639 181.243C20.7502 182.899 21.8949 184.252 22.0043 184.252C22.6731 184.252 19.2196 177.997 16.0361 173.43C12.5955 168.496 11.933 167.903 7.48268 165.732C7.08395 165.539 6.71737 165.359 6.37652 165.191C3.19952 163.645 2.31845 163.22 2.33775 162.846C2.35061 162.666 2.58213 162.492 2.85867 162.215C4.042 161.03 8.64029 161.61 11.2385 163.265C14.0425 165.056 18.0041 169.243 20.8917 173.462C22.0364 175.143 23.0911 176.522 23.2326 176.522C23.9915 176.522 22.4737 171.066 20.6023 167.085C17.9269 161.416 13.7466 157.442 8.11937 155.226C4.00342 153.609 2.7622 152.34 4.33141 151.348C8.46021 148.733 18.6986 155.406 23.5027 163.845C26.0559 168.335 27.818 177.874 26.7826 181.63C26.4418 182.854 26.2681 183.962 26.3967 184.084C26.5254 184.213 28.4676 184.02 30.7185 183.659C43.2657 181.649 58.0831 183.131 65.7941 187.157C66.7973 187.678 67.9421 188.11 68.3472 188.11C68.7524 188.116 71.6464 189.817 74.7784 191.891C79.5567 195.054 87.0684 202.088 90.9206 206.997C92.4577 208.961 95.4675 215.544 96.8694 220.002C98.9339 226.592 99.3197 227.41 100.381 227.41C101.448 227.41 108.233 213.85 110.047 208.085C111.635 203.016 112.163 196.13 111.288 191.756C109.057 180.606 99.4162 169.114 86.3481 162.054C81.3639 159.355 79.7432 159.085 80.8365 161.139C82.5087 164.264 79.8719 172.657 77.2158 172.657C76.0903 172.657 76.0067 170.016 77.0422 167.143C77.6724 165.391 77.5374 164.283 76.1096 159.69C75.19 156.727 74.1674 152.559 73.833 150.434C72.7333 143.432 74.0645 133.486 76.4312 130.961C78.1869 129.093 79.1387 129.086 78.5921 130.948C78.3541 131.747 77.9297 133.988 77.6403 135.934C77.1386 139.296 77.1644 139.393 78.1162 137.866C80.1291 134.639 85.8786 129.499 87.4671 129.499C90.3482 129.499 89.8916 131.225 86.168 134.446C82.7852 137.37 79.5117 142.395 79.5117 144.668C79.5117 145.293 80.8173 144.276 82.7723 142.137C88.2838 136.088 99.2554 131.727 100.535 135.064C101.018 136.314 99.1911 137.873 97.236 137.879C94.7793 137.892 89.4607 140.881 86.1487 144.108C81.0809 149.062 78.6435 154.833 81.2803 155.658C90.2518 158.466 101.995 167.027 107.944 175.092C111.082 179.35 113.873 185.521 114.902 190.455C115.931 195.395 115.301 204.304 113.552 209.535C111.899 214.469 107.712 223.545 105.918 226.07C105.191 227.094 104.6 228.176 104.613 228.473C104.619 228.775 106.304 230.212 108.349 231.668L112.073 234.315L117.494 230.495C124.517 225.548 133.431 221.052 141.894 218.192C145.605 216.942 149.226 215.815 149.933 215.686C150.859 215.525 151.161 215.048 151.013 213.992C150.698 211.789 151.804 210.913 155.888 210.121C157.921 209.721 161.895 208.948 164.725 208.401C167.966 207.77 173.375 207.402 179.362 207.402L188.848 207.415L195.761 210.069C199.562 211.525 205.871 213.393 209.781 214.211C220.251 216.401 228.303 218.643 232.895 220.633C233.956 221.091 235.545 221.683 236.432 221.947C239.583 222.875 254.182 230.25 257.977 232.821C263.7 236.705 275.592 246.309 276.981 248.171C277.174 248.428 278.569 250.09 280.074 251.862C285.123 257.769 291.567 266.523 297.252 275.186C300.352 279.908 303.612 284.643 304.493 285.705L306.095 287.638L305.651 284.836C304.956 280.423 304.339 279.296 295.637 266.619C293.354 263.302 291.258 260.294 290.968 259.939C290.679 259.585 288.743 257.118 286.672 254.464C282.319 248.879 274.833 241.092 270.196 237.323C265.572 233.568 258.491 228.743 256.497 227.983C255.558 227.622 254.639 227.101 254.452 226.824C253.841 225.896 238.117 218.566 233.217 216.923C224.38 213.96 220.065 212.697 216.174 211.937C212.103 211.138 205.074 208.877 203.91 207.995C201.768 206.372 200.578 175.111 202.289 165.178C203.537 157.912 204.296 155.909 205.826 155.896C208.392 155.883 208.444 155.754 210.367 144.636C212.187 134.156 222.206 111.971 232.625 95.3587C237.352 87.8157 244.375 77.7347 246.079 76.0341C246.259 75.8602 248.047 73.683 250.053 71.203C256.613 63.106 265.585 54.9575 274.704 48.8252C276.125 47.8654 280.119 45.9329 283.585 44.5158C290.724 41.6107 296.731 40.6058 299.175 41.9134C300.036 42.3772 300.872 42.622 301.033 42.4609C301.194 42.2999 300.853 39.4978 300.274 36.232C299.464 31.6521 298.917 30.0997 297.895 29.4426C295.554 27.9418 285.856 24.0511 278.235 21.5518C270.067 18.8786 269.231 18.4341 269.231 16.7464C269.231 12.4241 287.708 3.07752 299.155 1.60885C300.371 1.44782 302.712 1.02267 304.358 0.649064C308.275 -0.226982 322.205 -0.214103 326.218 0.674826C333.241 2.22723 334.694 3.38027 332.72 5.8216C332.289 6.35625 328.449 9.98282 324.185 13.8735C312.359 24.6888 311.458 25.4811 309.69 26.6406L308.043 27.7228L309.516 32.2511C310.326 34.744 311.349 38.5187 311.786 40.6444C312.416 43.6784 312.873 44.5673 313.902 44.7799C317.812 45.5593 320.417 45.9587 320.899 45.8492C321.748 45.6495 331.228 48.4 331.903 49.0442C332.237 49.3598 332.964 49.6239 333.511 49.6239C334.057 49.6239 336.199 50.9509 338.263 52.5806C344.038 57.1218 353.756 60.0656 369.879 62.1591C383.314 63.9047 384.349 64.375 384.349 68.7616C384.349 75.1516 373.963 81.3934 358.74 84.1569L352.367 85.3163L354.592 87.6031C357.087 90.1539 360.811 97.5488 361.782 101.852C362.277 104.08 362.219 104.892 361.486 105.704C360.972 106.271 360.554 106.915 360.554 107.14C360.554 108.029 354.888 112.809 351.466 114.818L347.839 116.938L346.392 124.99C344.116 137.673 343.903 138.948 342.463 148.501C340.791 159.542 340.476 176.689 341.826 182.789C342.598 186.274 343.331 187.517 347.408 192.284C353.634 199.563 354.457 200.787 355.692 204.555C356.521 207.093 356.933 208.472 357.692 208.704C358.56 208.961 359.885 207.718 362.811 204.961C362.946 204.832 363.081 204.703 363.223 204.568C368.921 199.196 373.069 195.949 378.464 192.626C381.455 190.777 381.957 190.654 383.146 191.447C383.879 191.936 384.883 193.489 385.378 194.893C386.143 197.057 387.802 209.039 389.134 221.934C389.32 223.706 389.912 228.923 390.452 233.529C391.738 244.506 392.099 247.926 392.787 247.99C393.082 248.023 393.449 247.398 393.983 246.483C394.054 246.367 394.124 246.245 394.202 246.116C396.742 241.8 404.819 237.001 411.681 235.719C416.743 234.779 423.637 235.288 428.255 236.943C432.049 238.302 438.371 242.47 438.371 243.61C438.371 243.958 439.142 245.253 440.081 246.489C441.483 248.332 441.799 249.453 441.85 252.725C441.934 258.29 439.683 261.82 433.335 266.097C430.737 267.85 428.28 269.292 427.869 269.305C426.82 269.344 423.27 272.533 422.383 274.227C421.245 276.41 422.1 277.492 426.705 279.708C430.235 281.409 431.946 281.808 436.615 282.04C440.216 282.221 443.361 282.008 445.297 281.46C446.969 280.984 448.628 280.578 448.982 280.552C449.336 280.526 450.783 279.979 452.198 279.328C454.937 278.079 455.587 277.795 464.095 274.078C472.777 270.284 474.63 269.499 475.897 269.048C478.43 268.152 483.292 267.914 485.691 268.577C488.617 269.376 493.795 273.608 495.248 276.385C495.801 277.435 496.676 279.103 497.197 280.088C499.409 284.301 500.29 289.97 499.917 297.622C499.724 301.7 499.274 305.9 498.92 306.962C498.573 308.025 497.782 310.634 497.171 312.76C496.56 314.885 495.57 317.642 494.984 318.879C490.495 328.29 489.389 330.416 487.936 332.406C487.023 333.65 485.994 335.15 485.64 335.75C485.286 336.342 483.363 338.809 481.363 341.218C479.234 343.795 477.434 346.713 477.016 348.272C476.623 349.741 475.871 351.293 475.344 351.737C474.816 352.175 474.385 352.832 474.385 353.2C474.385 353.56 473.504 355.731 472.424 358.024C471.343 360.311 470.572 362.295 470.713 362.437C470.848 362.572 471.896 362.359 473.035 361.967C476.122 360.884 485.723 361.548 488.855 363.062C493.229 365.162 492.733 366.592 486.482 369.96C480.598 373.13 468.694 379.365 458.41 384.666C454.757 386.554 448.68 390.432 444.905 393.279C437.02 399.25 431.56 402.567 422.936 406.658C417.219 409.363 415.019 410.175 404.286 413.505C391.398 417.512 377.487 418.008 356.695 415.199C347.511 413.962 339.337 412.268 325.504 408.738C315.117 406.091 316.005 406.355 301.708 401.601C295.695 399.604 287.682 396.429 283.901 394.548C278.1 391.662 276.904 391.269 276.26 392.042C275.849 392.544 275.128 392.957 274.672 392.957C274.215 392.957 273.733 393.285 273.598 393.685C273.218 394.831 270.948 393.813 266.974 390.728C264.17 388.544 262.884 386.927 261.244 383.507C259.514 379.913 257.726 377.748 251.481 371.674C232.458 353.193 221.576 339.228 206.309 313.726C204.508 310.718 202.443 307.529 201.73 306.64L200.43 305.03L200.829 307.285C201.054 308.521 201.614 310.479 202.077 311.633C202.964 313.823 202.431 314.415 201.061 312.76C199.594 310.988 192.186 306.009 186.784 303.168C179.484 299.323 177.793 298.447 177.375 297.158C177.246 296.746 177.24 296.295 177.233 295.69C176.95 280.733 175.06 266.677 172.526 260.667C171.947 259.295 171.477 257.807 171.477 257.356C171.477 255.984 184.333 251.43 194.308 249.279C197.138 248.667 199.022 248.01 198.488 247.823C197.955 247.63 194.147 247.288 190.025 247.063C182.455 246.651 170.275 247.7 160.274 249.62C155.387 250.561 154.19 250.393 154.216 248.776C154.242 247.076 153.335 226.617 153.155 224.833C153.065 223.944 152.949 222.643 152.898 221.934C152.731 219.577 151.94 218.971 149.888 219.622C148.853 219.95 146.267 220.736 144.145 221.361C140.351 222.482 130.003 227.184 124.742 230.18C121.88 231.803 115.526 236.499 115.526 236.982C115.526 237.143 117.552 239.275 120.028 241.716C124.575 246.193 125.72 248.667 123.257 248.667C122.536 248.667 119.012 245.929 115.166 242.386C104.516 232.563 99.6156 229.709 97.5897 232.157C95.4224 234.766 94.387 242.038 94.2327 255.733C94.1684 261.221 93.9175 266.439 93.6796 267.328C93.0493 269.705 91.4673 269.37 91.0878 266.787L90.7663 264.609L89.0684 267.212C86.586 271.032 79.8011 285.1 78.2962 289.57C75.6273 297.474 74.2446 305.384 74.5211 311.079C74.8298 317.365 75.0742 317.662 80.8365 318.886C83.7627 319.51 87.9687 319.594 97.7184 319.214C122.292 318.274 126.408 318.37 129.643 319.987C131.212 320.773 132.537 321.353 132.588 321.275C132.64 321.198 134.08 318.525 135.797 315.336C139.187 309.024 141.746 305.996 143.675 305.996C144.357 305.996 146.479 304.431 148.39 302.518C151.547 299.355 152.197 299.001 155.56 298.582C160.634 297.944 165.496 298.659 173.137 301.165C187.922 306.016 200.328 314.654 208.65 325.888C210.65 328.587 214.322 333.263 216.817 336.271C219.306 339.279 222.772 343.776 224.515 346.256C226.258 348.736 227.917 350.861 228.2 350.977C228.483 351.1 228.715 351.46 228.715 351.789C228.715 352.117 229.512 353.309 230.483 354.436C236.747 361.696 242.921 368.453 245.892 371.294C247.796 373.11 250.163 376.048 251.16 377.819C252.883 380.885 252.941 381.265 252.407 385.729C251.719 391.404 249.5 400.036 247.558 404.551C247.024 405.788 246.298 407.527 245.937 408.416C244.362 412.301 240.58 419.058 238.175 422.266C235.139 426.33 228.773 432.179 224.213 435.103C219.21 438.311 216.579 439.58 211.209 441.358ZM366.445 356.143L366.901 356.324C370.342 357.709 371.763 358.282 372.046 357.928C372.246 357.683 371.885 356.981 371.268 355.789L371.152 355.57C369.159 351.705 368.2 343.061 368.554 332.026C368.798 324.219 368.683 321.43 368.097 320.96C367.66 320.618 364.123 320.148 360.232 319.916C356.341 319.684 350.585 319.182 347.44 318.808C344.09 318.403 341.569 318.357 341.331 318.699C340.501 319.916 337.697 321.456 336.315 321.456C333.974 321.456 330.501 317.803 327.967 312.663C326.031 308.734 325.587 307.123 325.549 303.813C325.51 300.315 325.851 299.072 328.057 294.724C331.157 288.598 331.633 287.986 339.389 280.198C345.974 273.589 355.473 265.614 362.001 261.221C367.808 257.318 378.735 252.557 381.95 252.538C382.58 252.532 384.252 253.305 385.674 254.245C387.423 255.405 388.471 255.746 388.915 255.301C389.854 254.361 388.928 251.372 387.346 250.264C383.802 247.771 371.982 250.586 364.412 255.72C363.525 256.326 361.731 257.459 360.419 258.252L358.033 259.688L359.666 254.986C360.566 252.396 361.679 249.408 362.136 248.345C362.592 247.282 365.782 239.455 369.223 230.953C372.664 222.45 376.027 214.379 376.696 213.019C377.371 211.654 377.918 210.204 377.924 209.799C377.924 209.386 378.362 208.22 378.889 207.203C379.821 205.406 381.776 198.642 381.776 197.205C381.776 195.724 378.908 196.574 376.053 198.9C369.57 204.175 361.267 212.729 360.869 214.552C360.354 216.904 361.846 222.765 364.367 228.273L366.329 232.563L363.917 236.589C361.403 240.782 359.074 245.749 356.669 252.049C355.897 254.084 355.132 255.752 354.971 255.752C354.811 255.752 353.904 254.812 352.958 253.665C350.199 250.335 344.675 244.074 341.839 241.059C340.167 239.288 339.363 237.916 339.607 237.272C339.82 236.718 339.73 235.938 339.408 235.539C337.299 232.93 331.916 221.909 330.089 216.459C325.665 203.26 324.179 195.183 323.594 181.179C323.375 176.129 323.086 171.633 322.944 171.195C322.803 170.757 322.539 168.663 322.353 166.537C321.709 159.136 320.764 154.968 319.574 154.299C318.944 153.944 317.208 152.392 315.716 150.852C311.87 146.871 310.442 142.691 308.172 128.79L307.799 126.471L299.927 126.098C295.599 125.891 291.605 125.544 291.046 125.331C290.486 125.112 289.496 123.283 288.853 121.26L287.676 117.582L286.814 122.091C285 131.631 283.38 146.904 283.38 154.46V162.35H285.187C288.512 162.35 289.007 163.342 290.049 172.013C290.576 176.444 291.194 182.094 291.412 184.574C291.792 188.844 292.197 192.084 294.634 210.34C298.319 237.929 302.982 260.377 308.834 278.723C310.712 284.61 311.375 286.936 312.783 287.548C313.683 287.941 314.899 287.631 316.938 287.103C317.13 287.052 317.323 287 317.529 286.949C320.147 286.279 324.166 284.945 326.456 283.992C328.752 283.032 330.726 282.349 330.848 282.472C330.97 282.594 330.565 283.47 329.948 284.417C328.038 287.335 326.526 290.041 324.365 294.401C322.494 298.176 322.295 299.123 322.346 304.064C322.391 308.186 322.751 310.306 323.793 312.65C324.558 314.364 325.182 316.058 325.182 316.419C325.182 317.031 320.127 316.689 317.304 315.89C314.95 315.22 316.404 317.301 323.169 324.251C330.764 332.065 336.598 338.526 339.254 342.069C340.18 343.305 341.324 344.729 341.8 345.231C342.27 345.727 343.363 347.254 344.218 348.613C345.505 350.649 346.148 351.087 347.859 351.087C350.643 351.093 360.599 353.799 366.445 356.143ZM244.568 186.184L244.941 187.794L245.597 186.184C247.635 181.224 252.677 171.246 254.594 168.399C255.809 166.583 256.967 164.682 257.166 164.16C257.668 162.853 264.929 161.687 272.833 161.642L279.322 161.603L279.778 150.865C280.589 131.966 281.097 128.758 287.779 100.454C290.177 90.2956 293.252 83.6995 297.946 78.6172L301.528 74.7394L299.342 73.8247C298.139 73.3222 295.348 72.7039 293.142 72.4526C286.84 71.7376 287.348 70.5395 294.261 69.8181C301.799 69.0322 309.895 74.675 317.947 86.3405C322.693 93.2072 325.073 96.0028 326.166 96.0028C326.578 96.0028 327.446 95.4166 328.096 94.6952C329.202 93.4649 329.227 92.8271 328.52 84.5498C327.697 74.8875 325.96 67.5313 323.542 63.3701C322.681 61.895 320.397 59.2797 318.468 57.5534C314.519 54.0299 308.062 51.5306 299.458 50.2101C293.419 49.2761 293.026 49.1665 293.026 48.3871C293.026 46.1197 306.172 47.1632 313.22 49.9911C321.549 53.3278 326.121 58.3006 329.71 67.9049C331.099 71.6217 331.24 72.3624 332.366 81.7026L333.086 87.6997L336.926 92.3311C339.041 94.882 341.016 97.2396 341.318 97.5681C342.116 98.4184 343.717 94.225 345.08 87.7126C347.415 76.6267 345.479 66.2688 339.749 59.1058C335.459 53.7465 328.449 50.7576 314.571 48.3678C312.095 47.9362 307.175 46.97 303.638 46.2099C300.101 45.4498 296.191 44.8636 294.956 44.9087C290.647 45.044 282.537 48.4451 274.055 53.6627C271.662 55.1378 262.498 63.0416 259.559 66.1657C252.497 73.683 245.912 82.1149 239.024 92.46C237.14 95.2942 235.062 98.399 234.406 99.3588C233.75 100.319 233.217 101.407 233.217 101.774C233.217 102.142 232.985 102.444 232.709 102.444C232.426 102.444 231.763 103.385 231.236 104.538C230.702 105.691 228.876 109.214 227.178 112.364C223.171 119.804 217.672 132.951 215.833 139.483C214.052 145.809 212.54 153.455 212.984 153.893C213.164 154.073 214.277 153.873 215.454 153.448C217.981 152.534 228.56 151.703 230.741 152.25C232.2 152.617 232.258 152.875 232.387 159.587C232.458 163.407 233.088 169.436 233.783 172.979C236.091 184.709 236.143 184.773 236.67 176.522C237.294 166.653 237.757 164.605 239.352 164.605C240.284 164.605 240.657 165.101 240.78 166.537C241.05 169.79 242.49 177.263 244.568 186.184ZM369.879 412.829C385.989 413.846 389.05 413.743 396.067 411.946C413.231 407.547 425.753 402.104 437.741 393.833C444.41 389.233 456.7 377.027 460.352 371.378C463.645 366.276 467.311 360.202 467.311 359.847C467.311 359.712 468.617 356.833 470.205 353.444C473.62 346.178 473.948 342.713 471.652 338.223C469.465 333.939 468.289 333.534 466.038 336.271C463.594 339.241 456.59 353.47 454.95 358.797C453.445 363.693 450.532 370.025 447.677 374.598C446.57 376.37 445.175 378.618 444.577 379.59C443.271 381.71 440.943 382 440.943 380.041C440.943 379.32 441.541 377.503 442.274 376.015C443.008 374.527 443.696 372.878 443.799 372.344C445.336 364.524 445.567 362.063 445.13 357.941C444.866 355.409 444.57 352.601 444.474 351.692C444.056 347.66 437.136 337.56 434.789 337.56C434.377 337.56 433.862 338.906 433.631 340.555C433.406 342.204 432.975 343.866 432.673 344.259C432.364 344.645 431.946 346.095 431.734 347.473C431.226 350.784 423.232 366.952 420.827 369.548C419.785 370.669 417.431 373.716 415.592 376.312C412.28 380.995 409.501 382.985 410.241 380.138C410.517 379.101 410.241 378.689 409.083 378.399C407.482 377.999 405.765 379.069 399.301 384.486C397.443 386.045 395.925 387.121 395.925 386.882C395.925 385.865 398.092 382.393 400.144 380.112L402.363 377.652L399.308 376.904C391.166 374.908 383.224 370.824 379.005 366.469C376.567 363.951 369.602 360.73 359.911 357.638C356.502 356.549 345.222 354.308 343.157 354.308C342.154 354.308 341.144 353.998 340.906 353.612C340.514 352.981 338.43 353.071 331.613 354.024C326.874 354.681 319.079 357.161 314.314 359.519C308.178 362.559 303.824 366.514 301.946 370.766C301.072 372.75 300.294 373.632 299.425 373.632C298.737 373.632 298.171 373.362 298.171 373.033C298.171 372.698 297.612 372.254 296.93 372.035C294.969 371.41 284.891 363.126 278.717 357.065C275.624 354.024 273.09 351.731 273.09 351.963C273.09 353.019 281.148 366.353 285.791 372.988C289.457 378.225 289.393 379.61 285.393 381.639C282.55 383.082 278.878 386.528 278.878 387.745C278.878 388.332 288.274 393.06 292.383 394.548C303.059 398.406 316.159 402.516 324.539 404.635C327.189 405.311 329.941 406.007 330.649 406.194C332.334 406.632 335.646 407.347 343.511 408.964C354.02 411.128 362.367 412.352 369.879 412.829ZM359.589 316.76C383.101 317.688 383.719 317.694 383.989 316.786C386.883 307.078 387.166 305.771 386.214 306.357C385.757 306.64 385.847 306.08 386.446 304.966C390.87 296.675 391.102 295.825 391.07 288.005C391.031 280.688 390.986 280.468 388.645 275.992C385.79 270.523 382.124 266.059 380.49 266.059C379.493 266.059 373.93 270.697 368.998 275.637C367.171 277.467 360.515 286.427 357.981 290.459L355.807 293.925L357.634 297.416C359.55 301.081 363.12 304.592 366.631 306.26C371.249 308.457 381.738 308.36 381.648 306.125C381.622 305.52 381.969 302.421 382.413 299.239C383.854 288.952 382.169 279.895 377.783 274.285C374.644 270.278 376.972 269.228 381.828 272.455C386.375 275.476 386.928 276.951 387.095 286.472C387.23 293.918 387.063 295.348 385.378 301.165C384.349 304.708 383.461 308.109 383.404 308.727C383.224 310.699 380.51 312.902 376.831 314.061C371.165 315.845 363.068 315.15 357.48 312.406C355.106 311.233 352.322 309.384 351.299 308.296C349.762 306.66 349.344 306.486 348.875 307.285C348.56 307.819 347.293 309.958 346.058 312.051C344.823 314.138 343.89 315.916 343.981 316C344.077 316.084 351.1 316.425 359.589 316.76ZM336.347 277.505C334.88 278.646 333.556 279.586 333.408 279.586C332.514 279.586 329.523 275.515 328.198 272.5C324.14 263.263 322.41 253.053 322.899 241.233C323.24 233.078 324.224 228.904 326.076 227.77C326.951 227.236 327.427 227.378 328.276 228.447C329.62 230.122 333.176 234.991 335.948 238.934C337.093 240.57 338.469 242.36 339.003 242.921C339.537 243.488 339.974 244.248 339.974 244.628C339.974 245.001 340.379 245.465 340.881 245.659C341.376 245.845 342.733 247.398 343.897 249.105C348.707 256.171 354.605 261.756 356.534 261.08C358.316 260.455 357.197 261.679 355.235 262.497C353.177 263.36 346.72 268.352 341.582 273.061C340.167 274.355 337.813 276.359 336.347 277.505ZM304.982 42.3772C305.207 43.498 305.709 43.8265 307.233 43.8265C308.776 43.8265 309.13 43.5882 308.905 42.6993C306.609 33.6683 305.747 29.0175 306.101 27.6132C306.352 26.6019 310.866 21.7064 317.446 15.31C328.205 4.84894 328.34 4.68146 326.443 4.30141C311.915 1.38985 288.988 5.75718 276.318 13.8477C276.035 14.0281 275.778 14.1891 275.54 14.3308C274.691 14.8526 274.151 15.1811 274.151 15.5096C274.151 16.1731 276.376 16.8301 282.737 19.0267C286.447 20.3086 292.229 22.7177 295.573 24.3796L301.657 27.4007L303.175 34.1643C304.011 37.881 304.821 41.5785 304.982 42.3772ZM352.991 175.233C352.257 175.233 351.556 175.543 351.428 175.916C350.894 177.52 350.264 175.388 350.264 171.974C350.264 164.354 353.222 153.661 356.759 148.501C362.721 139.799 375.738 130.845 382.484 130.8C385.236 130.787 386.921 132.359 386.921 134.948C386.921 136.681 383.584 142.234 379.905 146.627C378.992 147.722 375.455 151.947 372.053 156.012C363.268 166.499 354.611 175.233 352.991 175.233ZM350.232 81.1165C350.296 81.6382 358.669 80.5689 362.605 79.5383C364.837 78.9586 367.146 78.3917 367.731 78.2758C372.336 77.3675 380.49 71.4349 380.49 68.9935C380.49 67.5184 379.995 67.3252 374.021 66.4427C356.264 63.821 355.306 63.6342 347.794 61.2959C345.878 60.7033 345.698 60.7484 346.129 61.7275C348.064 66.1142 349.589 71.9373 349.871 76.0341C350.058 78.688 350.219 80.9812 350.232 81.1165ZM324.539 218.347C324.539 220.955 312.834 215.802 306.924 210.591C300.435 204.864 302.358 197.714 310.153 198.59C313.863 199.009 315.812 200.394 318.352 204.413C320.41 207.679 324.539 216.968 324.539 218.347ZM461.234 376.892L459.008 379.829L466.301 376.151C470.308 374.128 474.276 372.041 475.112 371.513C475.948 370.985 478.623 369.51 481.048 368.241C485.119 366.108 485.35 365.883 483.942 365.361C481.781 364.55 474.199 365.084 470.475 366.302C467.787 367.184 467.041 367.815 465.388 370.643C464.327 372.466 462.455 375.275 461.234 376.892ZM418.904 360.756C420.421 361.947 421.65 362.398 421.65 361.767C421.65 361.619 421.817 361.058 422.023 360.524C422.274 359.867 421.708 359.19 420.306 358.462C419.154 357.87 414.035 353.283 408.935 348.278C403.835 343.267 399.334 339.17 398.928 339.17C397.443 339.17 397.848 341.347 400.028 345.045C402.941 349.992 406.723 353.547 412.55 356.82C415.148 358.276 418.01 360.047 418.904 360.756ZM292.383 119.836C292.975 120.951 293.444 120.777 298.654 117.505C301.747 115.559 304.365 113.736 304.467 113.446C304.667 112.886 302.654 112.036 298.364 110.876C295.252 110.032 291.747 107.34 291.721 105.768C291.702 104.808 291.644 104.802 291.104 105.717C290.403 106.921 291.406 118.007 292.383 119.836ZM361.988 193.798C361.48 195.318 360.554 194.506 360.554 192.542C360.554 190.397 362.541 186.616 364.657 184.715C367.596 182.087 371.918 182.635 372.953 185.765C374.156 189.366 370.708 192.542 365.268 192.864C363.602 192.96 362.123 193.379 361.988 193.798ZM363.358 311.124C367.068 311.858 371.236 311.922 370.49 311.227C370.155 310.918 368.747 310.299 367.358 309.855C365.975 309.41 363.859 308.463 362.663 307.761C360.007 306.189 356.09 301.184 355.602 298.743C355.042 295.935 354.495 296.147 352.521 299.922L350.682 303.439L352.566 305.423C354.836 307.819 359.73 310.402 363.358 311.124ZM380.895 243.816C381.539 245.497 384.529 244.815 385.063 242.869C385.79 240.228 385.687 234.032 384.889 232.273C384.04 230.405 381.506 230.012 380.883 231.648C380.368 232.995 380.375 242.47 380.895 243.816ZM295.959 122.993C295.676 123.45 306.558 123.244 307.021 122.787C307.175 122.626 307.104 121.312 306.86 119.856C306.474 117.588 306.23 117.273 305.13 117.621C303.651 118.091 296.345 122.374 295.959 122.993ZM388.33 268.532L389.815 270.33L390.002 265.537C390.111 262.902 390.066 260.622 389.905 260.461C389.507 260.062 383.063 263.392 383.063 263.998C383.063 264.268 383.912 264.996 384.953 265.614C385.995 266.226 387.513 267.54 388.33 268.532ZM86.8368 261.511L86.5539 264.371L88.4896 261.511C90.2518 258.896 90.4254 258.181 90.4318 253.227C90.4383 250.245 90.3225 247.932 90.1746 248.081C89.6215 248.635 87.1069 258.748 86.8368 261.511ZM352.984 103.088C354.495 103.269 356.238 103.469 356.856 103.533C357.724 103.623 357.904 103.32 357.621 102.206C357.422 101.407 357.19 100.267 357.1 99.6616C356.727 97.1365 355.621 97.2267 352.92 100.003L350.238 102.766L352.984 103.088ZM348.334 109.53C348.334 110.947 348.585 112.107 348.888 112.107C349.498 112.107 355.409 107.707 355.409 107.243C355.409 107.082 353.82 106.953 351.872 106.953H348.334V109.53Z" fill="#055AF7"/>
</svg>
