<svg width="500" height="509" viewBox="0 0 500 509" fill="none" xmlns="http://www.w3.org/2000/svg">
<path d="M329.365 507.079C331.895 508.136 334.082 509 334.232 509C334.775 509 335.181 507.16 334.775 506.509C334.313 505.758 326.248 501.572 323.837 500.827C322.425 500.395 322.488 500.345 324.462 500.314C327.772 500.27 333.051 501.703 339.061 504.288C346.626 507.548 348.875 506.353 342.721 502.348C339.635 500.339 330.783 497.11 328.366 497.11C327.591 497.11 326.96 496.784 326.96 496.39C326.96 495.883 328.297 495.789 331.583 496.065C336.762 496.503 340.516 497.61 345.957 500.295C349.943 502.26 351.948 502.598 351.948 501.296C351.948 499.244 348.231 496.728 341.553 494.256C334.169 491.528 325.811 491.759 314.91 494.995C311.393 496.04 311.256 496.04 309.6 494.801C307.201 493.011 298.999 482.973 296.069 478.248C294.714 476.058 292.496 472.153 291.147 469.575C289.791 466.996 287.792 463.336 286.705 461.439C284.706 457.972 276.36 439.599 276.36 438.667C276.36 438.391 277.366 436.858 278.597 435.256C281.089 431.995 292.602 414.467 292.602 413.916C292.602 413.722 293.658 413.516 294.945 413.459C298.718 413.284 319.477 404.022 324.262 400.374C325.355 399.542 326.529 398.859 326.873 398.859C327.216 398.859 328.054 398.146 328.735 397.283C329.415 396.413 331.477 395.18 333.307 394.541C337.137 393.215 348.862 387.395 351.623 385.461C353.735 383.978 355.577 382.845 356.946 382.188C358.108 381.631 367.647 374.453 368.502 373.496C368.846 373.108 370.776 371.418 372.794 369.729L376.455 366.668L380.74 366.837C383.133 366.931 385.613 366.687 386.369 366.28C387.599 365.623 387.693 365.21 387.362 361.681C386.793 355.579 385.169 351.943 382.077 349.866C379.547 348.164 378.56 346.28 380.215 346.305C380.646 346.311 382.121 346.837 383.495 347.469C389.248 350.116 390.011 353.145 390.098 373.828C390.135 382.608 390.198 390.774 390.235 391.976C390.273 393.177 390.067 401.5 389.779 410.456C389.248 427.171 389.829 436.301 391.616 439.23C392.035 439.918 392.384 441.727 392.384 443.254C392.384 445.369 392.715 446.289 393.784 447.159C395.589 448.623 397.313 448.592 401.805 447.04C404.972 445.938 406.084 445.851 410.4 446.358C417.347 447.171 433.651 446.714 440.342 445.513C447.57 444.224 456.884 441.364 464.393 438.135C467.66 436.727 470.608 435.369 470.952 435.118C471.295 434.868 474.744 433.059 478.617 431.094C482.49 429.136 486.007 427.183 486.425 426.764C487.231 425.957 494.696 423.891 496.802 423.891C498.388 423.891 500 422.277 500 420.681C500 419.999 498.357 417.527 496.346 415.187C493.172 411.494 492.635 410.487 492.254 407.558C491.817 404.104 488.424 393.39 487.431 392.32C487.131 391.995 486.881 391.325 486.881 390.831C486.881 389.635 481.909 378.158 480.847 376.906C480.385 376.362 480.01 375.442 480.01 374.866C480.01 374.284 479.747 373.321 479.429 372.726C479.11 372.125 476.162 366.143 472.876 359.434C469.59 352.726 466.485 346.53 465.979 345.667C465.467 344.803 463.068 340.053 460.644 335.109C458.227 330.166 455.622 325.328 454.854 324.358C453.454 322.593 449.119 320.347 448.207 320.916C447.932 321.079 447.432 318.895 447.089 316.06C445.721 304.727 441.21 299.721 424.725 291.21C413.268 285.296 411.918 284.445 411.918 283.131C411.918 282.524 412.493 281.51 413.199 280.872C415.267 278.994 419.458 272.505 421.451 268.093C425.318 259.532 425.718 258.543 426.692 255.057C429.903 243.611 431.634 235.395 432.833 225.826C434.101 215.72 433.77 185.218 432.277 174.824C431.709 170.862 431.115 166.501 430.959 165.124C430.803 163.747 430.547 161.776 430.397 160.743C430.247 159.711 429.822 156.845 429.46 154.379C429.097 151.913 428.092 145.68 427.223 140.536C426.161 134.241 425.693 129.259 425.78 125.311C425.943 118.239 425.393 116.975 420.239 112.594C410.544 104.359 406.09 98.1697 405.334 91.893C404.903 88.2946 403.829 86.5612 400.749 84.5211C397.344 82.2619 393.034 80.954 388.999 80.954H385.488L376.092 90.3097L373.138 87.6626C368.59 83.5949 368.415 83.476 363.63 81.2857C357.37 78.4258 354.853 78.0441 353.191 79.7087C351.892 81.0103 351.892 81.9428 353.172 85.0217C355.353 90.2409 356.783 96.5489 357.345 103.426C357.833 109.39 357.808 109.253 358.47 110.31C358.845 110.917 358.614 111.524 357.733 112.238C354.84 114.584 346.807 125.229 344.396 129.904C343.908 130.843 342.684 133.233 341.672 135.223C340.66 137.213 339.51 139.266 339.129 139.779C337.074 142.52 332.314 156.507 332.907 158.052C333.313 159.11 339.648 162.327 344.983 164.185C354.128 167.364 365.835 167.971 372.688 165.625L376.249 164.398L376.436 166.325C376.586 167.871 377.011 168.366 378.56 168.822C380.403 169.373 380.534 169.623 381.365 174.455C381.846 177.239 382.221 181.914 382.202 184.837C382.146 191.883 380.097 196.67 375.224 201.132C373.362 202.841 371.507 204.236 371.107 204.23C370.708 204.23 369.533 203.661 368.502 202.96C365.404 200.863 353.847 195.187 348.512 193.141C342.197 190.719 336.143 188.942 329.771 187.621C324.024 186.439 308.594 185.913 302.654 186.695C302.466 186.72 302.291 186.745 302.123 186.77C300.667 186.964 299.761 187.089 298.974 186.839C297.55 186.389 296.513 184.736 293.402 180.143C291.771 177.734 290.291 175.619 290.116 175.45C289.785 175.13 288.985 173.628 283.95 163.872L281.046 158.24L280.652 165.124C280.19 173.153 279.521 175.625 277.154 178.115C274.874 180.512 271.894 181.708 268.196 181.708C260.799 181.708 254.671 178.766 252.809 174.317C250.554 168.941 253.453 151.945 257.301 147.921C258.288 146.888 259.225 146.187 259.394 146.356C259.65 146.613 258.931 149.548 257.776 152.921C257.601 153.434 257.351 154.679 257.22 155.681C257.089 156.682 256.739 157.808 256.445 158.184C254.99 160.036 254.54 170.356 255.795 173.122C257.101 175.994 261.63 178.278 266.453 178.497C271.238 178.716 273.649 177.752 275.754 174.799C277.072 172.94 277.11 172.49 276.773 161.181C276.223 142.376 275.217 122.939 274.536 117.876C273.818 112.576 273.755 99.5966 274.436 97.2248C274.88 95.6603 275.017 96.4801 277.035 112.87C278.159 121.988 278.828 130.273 279.428 142.514C279.746 149.01 280.24 154.542 280.527 154.817C281.814 156.037 296.425 157.883 306.402 158.084C314.604 158.246 316.697 157.702 315.891 155.612C315.685 155.074 313.23 152.345 310.431 149.554C307.632 146.757 304.94 143.872 304.44 143.133C303.94 142.395 301.873 139.366 299.843 136.4C297.812 133.433 296.269 130.911 296.407 130.805C296.55 130.692 299.193 128.878 302.285 126.775C313.773 118.959 321.869 110.742 329.584 99.0709C336.15 89.1395 338.792 83.0317 336.993 81.9178C336.131 81.3796 325.948 81.3483 316.341 81.8427C309.169 82.2181 299.824 83.2257 286.068 85.1156C283.182 85.5098 283.107 85.4786 283.788 84.2144C284.175 83.4885 284.756 82.7376 285.081 82.5373C285.887 82.0367 289.373 75.0778 290.391 71.9363C292.621 65.0713 293.308 58.0248 292.315 52.2737C291.478 47.405 288.642 43.331 285.1 41.9105C281.883 40.6213 277.185 40.6213 274.093 41.9105C271.394 43.0369 262.805 51.4602 261.399 54.3639C260.899 55.3902 259.562 57.5742 258.432 59.2075C257.295 60.8471 256.37 62.3178 256.37 62.4867C256.37 63.1188 252.322 69.4894 250.348 71.9613C246.887 76.3043 243.208 76.1729 239.966 71.5921C237.405 67.975 236.93 62.6181 238.192 51.4414C238.835 45.7216 239.141 29.2694 238.66 25.8838C237.286 16.0838 233.794 9.12492 228.022 4.66924C226.198 3.25493 224.455 2.10347 224.142 2.09721C223.83 2.09721 222.731 1.63412 221.7 1.0709C219.101 -0.355921 210.33 -0.355921 205.695 1.06464C201.46 2.3663 194.788 6.27128 190.259 10.1074C185.686 13.9749 171.125 28.9314 166.365 34.645C154.57 48.8068 143.938 65.065 141.071 73.3256C138.991 79.3144 138.172 85.66 138.947 89.8341C139.871 94.8593 142.37 101.286 144.607 104.403C146.499 107.05 151.447 110.967 155.507 113.045C158.237 114.44 166.771 117.106 170.787 117.82C172.68 118.158 178.302 119.146 183.281 120.023C188.26 120.899 192.689 121.75 193.12 121.919C194.538 122.463 193.932 125.117 191.908 127.188C189.16 130.01 186.904 131.068 181.095 132.257C176.685 133.158 174.854 133.189 165.509 132.514C151.191 131.475 146.187 132.113 142.645 135.424C140.234 137.683 140.259 139.992 142.733 143.734C147.312 150.655 155.632 155.743 170.787 160.881C177.653 163.209 187.254 163.584 192.789 161.738C195.007 161 197.424 159.836 198.149 159.16C198.874 158.484 199.654 157.927 199.879 157.927C200.591 157.927 206.501 152.852 212.96 146.688C219.12 140.812 224.648 136.024 225.267 136.024C225.442 136.024 225.748 137.37 225.941 139.016C226.135 140.661 227.185 145.662 228.265 150.124C230.033 157.389 231.064 162.32 231.689 166.532C231.801 167.302 232.076 169.135 232.295 170.6C232.926 174.805 235.093 185.788 236.742 193.141C238.854 202.54 238.823 202.784 235.612 203.648C232.007 204.624 227.491 206.977 222.637 210.407C218.383 213.417 204.521 226.834 204.521 227.941C204.521 228.292 203.727 229.788 202.753 231.271C201.197 233.643 198.38 239.65 197.98 241.446C197.905 241.803 197.674 242.516 197.468 243.036C197.268 243.555 196.537 246.647 195.85 249.92C193.857 259.394 193.051 268.525 193.532 276.153C193.938 282.643 196.256 294.251 197.674 296.898C198.28 298.031 198.08 298.106 194.488 298.106C188.591 298.106 185.774 295.29 183.85 287.467C182.482 281.917 180.964 265.358 180.483 250.858C179.577 223.198 178.602 215.945 174.373 205.225C171.6 198.197 167.389 192.071 160.674 185.318C154.614 179.217 147.043 173.785 138.928 169.717C134.087 167.289 125.266 163.566 124.354 163.559C124.067 163.559 122.099 162.89 119.981 162.076C115.14 160.205 110.242 158.753 105.819 157.871C103.927 157.495 100.272 156.769 97.6985 156.256C90.9268 154.905 70.0684 154.598 63.7465 155.762C52.4645 157.827 44.5185 161.576 38.1653 167.821C31.5623 174.317 28.5451 183.748 31.325 189.217L32.4369 191.407L42.7381 191.182C48.3978 191.063 54.7197 191.257 56.7812 191.626C58.8427 191.989 61.7975 192.465 63.3404 192.684C66.4951 193.116 73.298 194.618 76.1466 195.5C84.2739 198.016 91.8639 200.663 92.3574 201.151C92.6822 201.47 93.4318 201.733 94.019 201.733C96.1367 201.733 117.039 212.922 123.38 217.447C134.58 225.438 148.686 240.407 154.945 250.94C164.747 267.442 176.591 291.247 175.529 292.311C174.648 293.2 172.43 291.379 171.275 288.825C164.222 273.199 154.421 255.233 147.849 245.883C146.006 243.261 136.673 232.804 133.193 229.462C116.683 213.611 90.7957 201.207 62.4034 195.55C58.3304 194.743 51.6337 194.192 42.7256 193.936C38.7713 193.817 34.2173 193.523 32.5993 193.272C30.0318 192.872 29.126 193.072 25.4279 194.862C15.2829 199.762 6.33105 209.756 2.75781 220.163C0.290283 227.347 -0.671722 238.242 0.490204 245.852C0.646362 246.884 0.964966 248.993 1.19611 250.545C1.42099 252.097 2.8515 255.921 4.36951 259.044C9.46698 269.538 18.9936 277.442 32.3432 282.248C39.4147 284.795 55.4818 287.073 63.0281 286.598C76.2028 285.765 98.2732 285.008 101.447 285.277C103.339 285.44 106.994 285.721 109.568 285.897C120.887 286.691 131.144 288.344 141.427 291.028C148.042 292.755 159.262 297.48 156.744 297.48C156.538 297.48 151.391 296.229 145.306 294.702C139.222 293.168 129.676 291.066 124.098 290.014C114.559 288.231 112.978 288.112 97.8609 288.049C80.1259 287.974 75.5906 288.218 67.7133 289.67C64.796 290.208 61.8412 290.74 61.154 290.853C53.5765 292.123 42.0259 296.235 33.3802 300.747C16.8383 309.37 6.83087 321.054 4.026 335.041C0.0466919 354.872 11.6534 369.19 34.917 373.133C57.6432 376.982 78.1956 370.586 103.945 351.637C105.838 350.247 107.868 348.827 108.462 348.483C109.549 347.857 115.49 343.777 124.873 337.218C139.509 326.987 148.573 321.843 161.311 316.523C164.259 315.29 165.134 315.741 165.153 318.495C165.178 321.123 170.113 331.874 173.786 337.3C183.337 351.386 196.625 364.478 210.162 373.152C213.073 375.01 216.44 377.182 217.639 377.97C220.363 379.754 227.16 382.877 233.038 385.036C237.142 386.544 237.892 387.12 242.146 391.988C246.675 397.17 257.695 407.652 261.917 410.793C263.598 412.039 264.266 413.203 265.141 416.407C266.728 422.202 268.514 427.903 270.388 433.153C270.469 433.385 270.551 433.604 270.626 433.817C271.275 435.625 271.663 436.689 271.531 437.684C271.325 439.217 269.907 440.581 266.39 444.255C261.924 448.917 256.027 453.241 252.16 454.706C250.611 455.288 248.081 455.638 246.094 455.544C240.965 455.306 237.461 452.641 229.134 442.653C226.697 439.737 222.362 435.137 219.495 432.434C213.123 426.432 208.463 423.979 202.116 423.291C201.997 423.278 202.534 422.208 203.315 420.919C204.446 419.035 204.714 417.702 204.671 414.192C204.602 409.329 203.796 406.532 202.303 405.956C200.485 405.261 200.054 406.582 200.729 410.793C201.61 416.269 200.86 418.672 197.181 422.12C192.502 426.501 181.401 430.744 174.536 430.775C170.244 430.794 168.289 431.301 168.289 432.39C168.289 433.979 170.837 434.661 175.885 434.43C181.114 434.192 181.082 434.286 175.285 436.445C173.936 436.946 173.299 437.553 173.436 438.216C173.905 440.488 184.193 437.978 187.792 434.718C189.497 433.172 189.834 434.217 188.323 436.345C186.58 438.798 184.243 440.469 177.728 443.917C174.804 445.463 172.318 447.052 172.199 447.44C171.456 449.881 179.071 448.229 184.168 444.843C189.847 441.07 192.139 438.36 194.494 432.653C196.706 427.283 197.306 426.826 201.716 427.177C208.825 427.746 215.94 432.759 224.53 443.26C226.066 445.137 229.571 448.967 232.32 451.777C236.305 455.845 238.048 457.146 240.934 458.216C245.126 459.775 247.368 459.881 251.816 458.723C256.595 457.484 261.386 454.286 268.021 447.91C272.562 443.542 274.043 442.434 274.311 443.216C276.716 450.162 285.793 468.949 288.86 473.329C289.466 474.193 290.741 476.302 291.697 478.023C293.727 481.678 296.132 485.101 300.255 490.188C301.885 492.204 303.222 494 303.222 494.187C303.222 494.369 302.447 494.3 301.504 494.031C298.256 493.098 289.129 493.242 285.587 494.269C282.02 495.308 279.484 497.154 279.484 498.699C279.484 499.932 280.689 499.851 285.837 498.286C291.372 496.603 299.168 496.859 304.784 498.918C306.845 499.669 310.331 500.689 312.53 501.19C316.747 502.141 321.769 503.9 329.365 507.079ZM434.12 358.959C431.89 361.024 431.578 360.636 431.115 355.216C430.928 353.064 430.253 350.404 429.61 349.303C428.485 347.369 428.479 347.169 429.529 344.065C431.221 339.039 431.521 331.968 430.428 323.138C429.785 317.975 429.622 314.101 429.947 311.736C430.528 307.562 430.078 306.285 428.56 307.806C427.992 308.375 427.211 309.439 426.817 310.165C425.974 311.748 425.999 321.523 426.855 325.954C427.854 331.111 427.311 339.183 425.649 343.946C423.831 349.159 418.921 355.805 414.817 358.608C413.149 359.753 411.531 360.686 411.225 360.686C410.919 360.686 410.644 358.646 410.607 356.149C410.363 338.614 410.201 336.611 408.645 331.899C407.795 329.321 406.452 326.079 405.672 324.702C404.285 322.268 403.779 321.436 400.83 316.799C398.588 313.269 395.052 312.049 395.052 314.802C395.052 315.334 396.401 317.499 398.044 319.615C400.993 323.388 405.29 332.343 405.946 336.067C406.259 337.863 406.534 348.232 406.371 352.2L406.296 354.034L404.36 352.2C396.945 345.147 390.342 334.765 389.067 328.144C387.93 322.237 384.738 314.377 383.476 314.377C382.214 314.377 382.064 315.647 382.889 319.227L383.645 322.512H381.502C380.328 322.512 372.563 324.771 364.254 327.537C351.536 331.761 343.215 334.146 320.557 340.047C319.27 340.385 317.159 340.942 315.872 341.28C314.585 341.624 310.999 342.469 307.907 343.163C304.815 343.852 300.742 344.828 298.849 345.322C296.956 345.817 293.727 346.637 291.665 347.137C289.604 347.644 286.23 348.533 284.169 349.121C273.218 352.244 270.794 352.275 264.441 349.384C261.892 348.22 257.907 346.067 255.583 344.59C253.259 343.12 251.154 341.893 250.898 341.868C250.642 341.849 248.749 340.573 246.687 339.046C244.626 337.513 241.952 335.591 240.753 334.772C239.553 333.958 238.004 332.756 237.317 332.112C236.63 331.461 234.381 329.584 232.32 327.938C224.142 321.392 218.37 316.079 216.733 313.576C215.84 312.205 215.865 311.786 217.015 308.438C217.702 306.435 218.264 304.301 218.264 303.694C218.264 303.087 217.121 300.384 215.728 297.693L213.191 292.787L216.933 296.698C218.989 298.851 221.094 300.609 221.606 300.609C222.118 300.609 224.036 299.32 225.866 297.743C228.871 295.159 236.611 290.922 245.644 286.917C247.468 286.109 249.118 285.058 249.299 284.589C249.58 283.85 248.999 282.023 246.338 275.264C246.069 274.576 245.688 273.262 245.488 272.348C245.294 271.434 244.945 270.17 244.72 269.532C244.495 268.9 246.987 270.984 250.254 274.169C253.528 277.355 256.708 279.958 257.32 279.958C257.938 279.958 259.306 279.301 260.374 278.5C265.859 274.351 273.037 271.391 282.058 269.545L287.442 268.443L290.491 271.115C292.165 272.586 294.458 274.939 295.576 276.341L297.612 278.9L294.526 280.978C290.703 283.562 289.235 285.484 290.203 286.654C290.772 287.336 291.247 287.255 292.84 286.197C302.254 279.983 311.837 277.386 330.128 276.078C342.621 275.189 355.184 275.99 366.628 278.406C370.751 279.276 375.112 280.146 376.311 280.346C377.51 280.546 378.66 280.809 378.854 280.928C379.21 281.141 385.825 282.617 391.304 283.706C392.853 284.013 396.083 284.72 398.488 285.283C400.893 285.847 403.56 286.441 404.422 286.604C408.645 287.405 411.587 288.525 418.446 291.942C422.551 293.982 426.205 295.891 426.567 296.172C426.93 296.46 429.004 297.637 431.171 298.794C436.581 301.673 440.923 306.385 442.16 310.697C443.334 314.802 445.015 326.549 445.458 333.802C445.708 337.775 445.533 339.903 444.783 342.112C442.572 348.639 438.755 354.672 434.12 358.959ZM278.234 406.163C270.263 410.155 268.164 410.355 263.979 407.514C262.373 406.419 255.827 400.261 249.436 393.834C239.397 383.728 237.486 382.076 235.381 381.688C232.132 381.087 219.826 375.067 213.579 371.024C203.196 364.303 190.009 352.288 182.307 342.538C180.264 339.959 178.384 337.75 178.128 337.638C177.871 337.519 177.659 337.118 177.659 336.749C177.659 336.374 177.272 335.623 176.803 335.078C175.341 333.389 171.087 324.871 169.9 321.261C167.983 315.428 167.189 308.388 167.758 302.205C168.476 294.37 168.601 294.295 176.178 297.349C185.605 301.154 189.478 302.08 194.494 301.717C198.961 301.398 200.148 301.836 200.148 303.807C200.148 304.746 201.466 307.969 204.977 315.597C205.539 316.817 206.888 319.227 207.969 320.948C211.061 325.866 217.19 328.213 221.65 326.179C223.08 325.522 223.611 325.779 227.766 329.127C230.271 331.142 232.713 333.176 233.194 333.651C235.693 336.086 250.229 346.111 255.746 349.202C257.638 350.26 261.63 352.181 264.622 353.47C270.782 356.117 272.006 356.143 280.421 353.852C283.169 353.101 286.543 352.238 287.917 351.937C289.291 351.637 293.927 350.498 298.225 349.409C308.469 346.806 314.117 345.41 325.086 342.769C330.065 341.574 335.406 340.222 336.955 339.765C338.505 339.315 342.015 338.314 344.764 337.538C351.242 335.716 368.321 330.022 369.127 329.415C369.471 329.152 370.595 328.745 371.626 328.507C373.706 328.025 381.046 325.291 382.645 324.408C384.713 323.263 384.357 324.646 382.083 326.592C380.796 327.7 379.422 329.552 379.022 330.716C378.622 331.887 377.267 336.048 376.005 339.978C374.749 343.902 372.794 349.115 371.67 351.562C370.539 354.009 369.402 356.712 369.14 357.569C368.883 358.42 368.321 359.541 367.89 360.06C366.728 361.468 366.353 363.69 367.159 364.359C367.553 364.685 368.827 365.198 369.983 365.498L372.088 366.043L369.065 368.527C362.661 373.784 347.794 383.759 342.453 386.375C330.521 392.232 319.058 395.017 305.284 395.405L298.281 395.599L291.54 399.235C287.83 401.238 281.845 404.354 278.234 406.163ZM413.505 274.557C412.412 276.184 412.256 276.247 411.843 275.183C411.587 274.538 411.356 273.168 411.325 272.135C411.3 271.103 411.019 269.851 410.707 269.357C410.319 268.75 410.519 267.968 411.331 266.935C411.987 266.103 412.412 265.233 412.275 265.008C412.137 264.782 411.843 263.387 411.619 261.904C410.544 254.657 403.329 238.305 397.682 230.301C392.272 222.628 382.196 212.303 375.811 207.885L374.374 206.89L376.942 204.856C379.916 202.503 384.126 196.295 385.219 192.665C386.737 187.628 385.719 174.129 383.495 169.817C382.702 168.284 382.764 168.159 384.638 167.358C389.842 165.155 391.166 164.31 394.789 160.912C396.932 158.91 399.768 155.587 401.086 153.534C402.429 151.444 403.941 149.798 404.528 149.798C407.746 149.779 416.916 143.371 416.916 141.137C416.916 140.036 414.78 140.255 413.093 141.538C411.131 143.027 406.983 145.411 406.346 145.411C406.071 145.411 405.978 144.71 406.146 143.847C406.721 140.818 404.56 142.213 401.049 147.132C393.196 158.134 390.398 160.806 383.607 163.803L379.965 165.412L380.378 163.541C380.603 162.508 381.034 159.629 381.34 157.139C382.121 150.787 382.951 146.231 383.982 142.626C384.926 139.328 386.937 137.182 392.865 133.158C394.583 131.994 399.3 127.945 403.348 124.172C411.525 116.543 412.818 115.942 417.903 117.413C422.313 118.69 422.926 120.204 422.026 127.538C421.639 130.655 421.27 135.743 421.201 138.84C421.114 142.708 420.739 145.161 419.996 146.663C418.834 149.022 415.854 152.395 413.999 153.453C413.074 153.978 412.993 154.323 413.561 155.236C413.955 155.856 414.798 156.263 415.435 156.15C417.347 155.793 421.876 151.713 422.32 149.948C422.544 149.047 423.088 147.62 423.525 146.775L424.325 145.236L424.65 147.357C424.837 148.521 425.149 150.461 425.349 151.669C426.686 159.661 427.879 169.479 428.785 179.83C429.16 184.136 429.603 189.061 429.772 190.782C430.334 196.545 430.103 215.144 429.385 222.403C427.367 242.66 421.101 263.255 413.505 274.557ZM387.124 125.943C384.594 128.84 383.183 129.516 383.183 127.82C383.183 126.769 378.935 120.486 376.23 117.551C373.806 114.916 373.712 114.678 374.593 113.333C375.705 111.637 376.199 109.459 376.617 104.421C377.385 95.2097 377.398 95.1722 381.827 89.784L385.994 84.7151H389.43C393.215 84.7213 398.269 86.7114 400.299 88.9955C400.949 89.7277 401.711 91.7553 401.98 93.495C402.81 98.7204 405.284 103.22 410.069 108.157L414.48 112.72L412.337 113.12C411.156 113.345 408.964 114.359 407.464 115.379C405.959 116.393 404.547 117.232 404.322 117.238C404.091 117.244 403.71 116.055 403.466 114.591C402.998 111.793 401.136 107.594 400.056 106.931C399.712 106.712 399.425 105.341 399.425 103.877C399.425 100.879 398.044 98.3888 396.97 99.4464C396.601 99.8093 396.026 102.3 395.683 104.985C394.533 114.096 391.947 120.423 387.124 125.943ZM256.376 138.803C253.678 139.929 245.363 140.011 241.065 138.959C237.292 138.039 233.606 135.736 230.827 132.564C229.152 130.655 228.834 129.86 229.134 128.346C229.34 127.319 229.508 125.83 229.508 125.035C229.508 123.871 230.327 123.183 233.656 121.543C237.342 119.722 238.335 119.509 242.558 119.603C247.568 119.716 248.143 119.797 252.616 121.005C254.952 121.631 261.055 124.341 261.93 125.135C262.067 125.261 261.368 128.183 260.374 131.625C258.663 137.564 258.457 137.933 256.376 138.803ZM437.531 408.81C434.726 409.655 426.761 409.154 424.512 407.99C423.563 407.496 422.445 406.35 422.032 405.449C420.321 401.676 421.726 392.007 424.575 387.989C425.837 386.212 425.893 386.2 431.253 386.456C440.13 386.882 444.402 390.142 444.402 396.488C444.402 403.353 442.135 407.42 437.531 408.81ZM408.17 278.869C408.17 283.731 408.133 283.85 406.765 283.512C405.99 283.318 403.954 282.849 402.236 282.461C400.518 282.073 396.157 281.072 392.553 280.233C382.502 277.899 379.566 277.273 374.749 276.435C372.888 276.109 367.59 274.426 368.19 274.344C368.359 274.319 370.751 273.525 373.5 272.58C377.817 271.09 378.522 270.64 378.685 269.288C378.854 267.849 377.673 262.417 376.617 259.776C375.718 257.529 376.904 258.812 379.516 262.905C380.996 265.227 382.664 267.961 383.22 268.975C384.813 271.866 385.775 272.204 389.867 271.266C399.087 269.15 401.199 268.719 404.172 268.349L407.358 267.949L407.764 270.909C407.989 272.542 408.17 276.122 408.17 278.869ZM263.592 119.284C263.248 120.867 261.992 121.762 261.992 120.429C261.992 119.597 254.059 114.509 250.748 113.22C246.488 111.562 239.553 111.211 236.349 112.494C234.906 113.076 233.588 113.414 233.425 113.245C232.907 112.726 237.436 105.767 239.616 103.739C240.759 102.682 242.727 101.224 243.989 100.504C246.169 99.2649 246.469 99.2461 249.923 100.116C254.346 101.23 258.875 103.539 262.567 106.549C264.085 107.788 265.622 108.996 265.978 109.234C266.403 109.515 266.172 111.011 265.291 113.614C264.56 115.786 263.798 118.339 263.592 119.284ZM276.685 431.52L274.836 434.455L273.749 432.146C273.143 430.875 272.643 429.555 272.631 429.211C272.6 428.56 268.714 416.275 267.927 414.348C267.552 413.422 267.833 413.253 269.732 413.253C271.088 413.253 274.418 412.12 278.122 410.399L284.256 407.546L289.466 412.765L284 420.675C280.989 425.024 277.697 429.905 276.685 431.52ZM339.454 153.058C338.592 153.634 337.818 154.122 337.724 154.141C337.405 154.204 338.361 150.731 339.173 148.853C343.552 138.759 346.551 133.108 351.261 126.105C352.498 124.266 353.972 122.05 354.54 121.187C355.946 119.053 361.406 112.751 361.65 112.989C362.174 113.514 358.92 124.165 356.14 131.018C352.691 139.522 345.557 148.947 339.454 153.058ZM307.076 151.306C308.907 153.346 309.888 154.823 309.257 154.592C308.619 154.36 307.358 153.991 306.445 153.772C305.533 153.553 304.503 153.177 304.159 152.94C303.816 152.702 302.129 151.995 300.411 151.356C295.932 149.704 290.685 147.163 288.423 145.549C287.355 144.785 286.349 144.16 286.199 144.16C286.043 144.16 284.631 143.002 283.057 141.588L280.202 139.009L286.555 135.818C290.054 134.059 293.108 132.526 293.352 132.407C293.589 132.288 294.389 133.377 295.132 134.835C296.644 137.795 300.979 144.435 302.654 146.35C303.26 147.038 305.246 149.266 307.076 151.306ZM362.668 109.703C361.749 110.216 361.581 109.659 361.193 104.847C360.956 101.862 360.625 98.5703 360.469 97.5377C360.044 94.7904 357.714 86.3296 356.858 84.446C356.452 83.5574 356.252 82.6937 356.408 82.531C356.933 82.0116 363.905 84.809 366.578 86.6175C368.015 87.5875 370.389 89.4524 371.863 90.7665C374.325 92.9694 374.481 93.2948 373.875 94.878C373.512 95.823 372.782 96.599 372.251 96.599C370.308 96.599 366.004 101.774 364.829 105.523C364.204 107.5 363.236 109.384 362.668 109.703ZM301.973 407.076C294.826 409.955 292.921 410.061 289.916 407.777C288.667 406.832 287.649 405.918 287.642 405.743C287.642 405.568 290.079 404.041 293.058 402.339L298.481 399.254L306.321 399.085C310.631 398.997 315.678 398.628 317.534 398.265C319.395 397.902 321.038 397.721 321.182 397.871C321.557 398.246 309.169 404.179 301.973 407.076ZM417.553 398.828L417.541 401.607L415.492 399.623C412.343 396.563 409.488 391.4 409.37 388.534C409.057 381.337 415.623 376.794 420.202 381.049C421.895 382.62 422.488 385.286 421.308 386.018C419.633 387.057 417.584 394.06 417.553 398.828ZM252.922 147.971C247.175 149.998 239.441 149.354 233.125 146.319C231.07 145.33 230.758 144.873 230.414 142.332C230.202 140.755 229.889 138.972 229.727 138.371C229.315 136.875 229.958 136.994 232.401 138.859C236.074 141.663 241.603 143.158 248.337 143.165C252.497 143.171 254.677 142.914 255.383 142.326C256.826 141.125 257.22 141.85 256.583 144.548C256.095 146.619 255.689 146.995 252.922 147.971ZM293.839 263.531C293.845 265.502 293.608 266.19 292.902 266.19C291.659 266.19 291.034 264.438 289.86 257.673C287.842 245.971 280.902 232.967 271.675 223.586C265.566 217.378 268.364 217.071 274.936 223.229C281.058 228.968 283.888 233.342 289.766 246.165C291.59 250.139 293.82 259.651 293.839 263.531ZM267.821 104.891C267.508 106.061 266.365 106.418 266.365 105.348C266.365 104.409 257.72 98.9144 254.646 97.9006C251.629 96.8994 251.398 96.4488 253.447 95.5164C255.839 94.4212 270.063 91.3298 270.532 91.7991C270.888 92.1558 269.832 97.2373 267.821 104.891ZM287.03 100.542C281.964 101.837 278.859 100.948 278.859 98.1948C278.859 95.2035 284.194 92.2372 289.841 92.087C294.102 91.9743 295.67 93.1571 294.751 95.7729C294.033 97.8318 291.497 99.3963 287.03 100.542ZM451.149 398.59C450.118 399.773 449.025 400.737 448.725 400.737C448.425 400.737 448.194 399.116 448.213 397.139C448.251 393.665 446.97 389.347 445.664 388.54C444.527 387.839 444.983 387.107 446.995 386.406C449.612 385.492 450.381 385.536 451.524 386.681C452.879 388.046 453.929 392.351 453.442 394.579C453.211 395.605 452.18 397.414 451.149 398.59ZM409.732 378.496C409.045 379.341 408.301 380.042 408.089 380.054C406.777 380.154 407.296 373.202 408.701 371.794C409.707 370.786 412.524 371.844 413.28 373.515C414.011 375.123 413.168 376.95 411.687 376.963C411.3 376.969 410.419 377.657 409.732 378.496ZM458.108 385.011L456.871 387.808L455.322 385.699C454.472 384.541 453.773 383.459 453.773 383.283C453.773 382.62 457.165 379.46 457.877 379.46C459.245 379.46 459.364 382.169 458.108 385.011ZM388.336 131.75C386.362 133.296 384.638 134.285 384.501 133.94C384.37 133.596 385.182 132.589 386.306 131.7C387.437 130.805 389.161 129.272 390.142 128.289C391.716 126.719 391.928 126.65 391.928 127.72C391.928 128.458 390.517 130.042 388.336 131.75Z" fill="#045AF7"/>
</svg>
