<?xml version="1.0" encoding="UTF-8" standalone="no"?><!DOCTYPE svg PUBLIC "-//W3C//DTD SVG 1.1//EN" "http://www.w3.org/Graphics/SVG/1.1/DTD/svg11.dtd"><svg width="100%" height="100%" viewBox="0 0 11010 6741" version="1.1" xmlns="http://www.w3.org/2000/svg" xmlns:xlink="http://www.w3.org/1999/xlink" xml:space="preserve" xmlns:serif="http://www.serif.com/" style="fill-rule:evenodd;clip-rule:evenodd;stroke-linejoin:round;stroke-miterlimit:2;"><path id="text2" d="M2775.557,6422.419l0,-1926.727c0,-95.857 0,-162.956 23.13,-210.885c23.13,-47.928 69.389,-76.685 150.343,-76.685c57.824,0 92.519,28.757 115.648,86.272c11.565,57.514 34.694,172.542 69.389,325.913c34.694,201.3 92.519,431.356 173.472,690.171c80.954,258.814 208.167,498.456 393.204,728.512c185.037,230.058 427.898,431.357 728.584,584.728c300.685,153.371 6074.49,124.614 6247.962,86.272c185.037,-19.171 277.556,-115.029 277.556,-277.986l-1.118,-1936.987c0,-230.056 -94.973,-325.913 -384.094,-287.571c-3686.475,1142.822 -5747.102,58.191 -5793.361,-18.496c-23.13,-19.171 -23.13,-28.757 -11.565,-47.928c0,-19.171 11.565,-28.757 34.694,-28.757l34.694,0c80.954,0 208.167,-19.171 370.074,-57.514c161.908,-38.344 335.38,-115.029 497.287,-239.643c161.908,-124.614 300.685,-306.742 416.334,-546.384c115.648,-230.057 185.037,-555.971 185.037,-958.57c0,-393.014 -57.824,-738.099 -173.472,-1025.669c-115.648,-287.572 -312.25,-527.214 -578.241,-718.928c-277.556,-191.714 -636.065,-325.913 -1075.528,-421.77c-451.028,-95.858 -1006.139,-143.786 -1676.899,-143.786l-2451.742,0c-231.296,0 -346.945,95.857 -346.945,287.571l0,6134.848c0,191.714 115.648,287.571 346.945,287.571l2081.668,0c231.296,0 346.945,-95.857 346.945,-287.571Zm265.991,-3172.867l-11.565,0c-173.472,0 -254.426,-76.686 -254.426,-239.642l0,-469.7c0,-86.271 11.565,-143.786 57.824,-182.127c46.259,-38.344 115.648,-57.515 219.731,-57.515c115.648,0 219.732,47.928 300.685,124.615c69.389,86.271 115.648,201.3 115.648,345.086c0,325.913 -150.343,479.285 -427.898,479.285Z" style="fill:#0358f8;fill-rule:nonzero;"/><path id="text21" serif:id="text2" d="M8514.319,2194.943c0,-103.48 0,-190.621 15.353,-261.424c15.351,-70.804 30.704,-125.266 61.409,-168.837c30.704,-43.57 61.411,-70.804 99.792,-87.14c38.381,-16.333 84.439,-27.251 130.495,-27.251c46.058,0 84.44,10.889 122.82,27.251c38.382,16.333 69.087,43.57 99.792,87.14c30.705,43.571 46.057,98.033 61.41,168.837c15.353,70.804 23.034,157.945 23.034,261.424c0,212.414 -30.705,354.017 -84.439,430.269c-53.735,76.246 -130.497,114.374 -222.611,114.374c-99.792,0 -176.554,-38.128 -230.288,-114.374c-53.734,-76.252 -76.762,-217.855 -76.762,-430.269l-0.005,0Zm-1880.679,0c0,370.359 46.058,680.798 145.849,931.337c92.115,250.53 237.963,457.497 422.193,615.442c184.23,157.941 414.517,272.315 690.862,337.675c268.668,70.802 575.717,103.479 928.825,103.479c345.429,0 652.48,-32.677 928.824,-103.479c268.669,-65.361 498.955,-179.734 683.186,-337.675c184.229,-157.945 330.078,-364.912 429.869,-615.442c92.116,-250.538 145.848,-560.978 145.848,-931.337c0,-364.904 -53.733,-675.349 -145.848,-925.881c-99.791,-250.531 -245.64,-457.497 -429.869,-615.441c-184.231,-157.945 -414.517,-272.318 -683.186,-343.122c-276.344,-65.357 -583.395,-103.48 -928.824,-103.48c-353.108,0 -660.156,38.123 -928.825,103.48c-276.345,70.804 -506.632,185.178 -690.862,343.122c-184.23,157.944 -330.078,364.91 -422.193,615.441c-99.791,250.532 -145.849,560.977 -145.849,925.881Z" style="fill:#0358f8;fill-rule:nonzero;"/></svg>