<?xml version="1.0" encoding="UTF-8" standalone="no"?><!DOCTYPE svg PUBLIC "-//W3C//DTD SVG 1.1//EN" "http://www.w3.org/Graphics/SVG/1.1/DTD/svg11.dtd"><svg width="100%" height="100%" viewBox="0 0 3508 1031" version="1.1" xmlns="http://www.w3.org/2000/svg" xmlns:xlink="http://www.w3.org/1999/xlink" xml:space="preserve" xmlns:serif="http://www.serif.com/" style="fill-rule:evenodd;clip-rule:evenodd;stroke-linejoin:round;stroke-miterlimit:2;"><g id="romagna"><path d="M201.429,1007.012c0,13.913 -8.393,20.87 -25.179,20.87l-151.072,0c-16.786,0 -25.179,-6.957 -25.179,-20.87l0,-445.221c0,-13.913 8.393,-20.87 25.179,-20.87l177.929,0c48.679,0 88.965,3.478 121.697,10.435c31.893,6.957 57.911,16.696 78.054,30.609c19.304,13.913 33.572,31.305 41.964,52.174c8.393,20.87 12.589,45.913 12.589,74.435c0,29.218 -5.036,52.87 -13.429,69.566c-8.393,17.391 -18.464,30.609 -30.214,39.652c-11.75,9.044 -24.339,14.609 -36.089,17.392c-11.75,2.783 -20.982,4.174 -26.857,4.174l-2.518,0c-1.679,0 -2.518,0.696 -2.518,2.087c-0.839,1.391 -0.839,2.087 0.839,3.478c3.357,5.565 152.902,84.28 420.439,1.342c20.982,-2.783 27.875,4.174 27.875,20.87l0.081,140.572c0,11.826 -6.714,18.783 -20.143,20.174c-12.589,2.783 -431.609,4.87 -453.43,-6.261c-21.821,-11.13 -39.447,-25.739 -52.875,-42.435c-13.429,-16.696 -22.661,-34.087 -28.536,-52.87c-5.875,-18.783 -10.071,-35.479 -12.589,-50.087c-2.518,-11.131 -4.196,-19.478 -5.036,-23.652c-1.679,-4.174 -4.196,-6.261 -8.393,-6.261c-5.875,0 -9.232,2.087 -10.911,5.565c-1.679,3.478 -1.679,8.348 -1.679,15.304l0,139.827Zm19.304,-230.263c20.143,0 31.054,-11.131 31.054,-34.783c0,-10.435 -3.357,-18.783 -8.393,-25.044c-5.875,-5.565 -13.429,-9.044 -21.821,-9.044c-7.554,0 -12.589,1.391 -15.946,4.174c-3.357,2.783 -4.196,6.957 -4.196,13.217l0,34.087c0,11.826 5.875,17.391 18.464,17.391l0.839,0Zm2124.392,70.229c10.958,-0.94 26.778,-5.946 18.628,-16.064c-5.276,-6.55 -43.183,3.767 -56.439,-8.134c-7.96,-7.147 -3.815,-71.756 -3.815,-71.756c0,-13.721 8.393,-20.581 25.179,-20.581l134.286,0c16.786,0 25.179,6.86 25.179,20.581l0,171.362c0,11.662 -4.197,24.011 -11.75,36.359c-7.554,13.035 -18.464,24.697 -33.572,34.987c-15.107,10.976 -33.571,19.209 -55.393,26.069c-22.661,6.86 -48.679,10.29 -78.893,10.29c-42.804,0 -80.572,-4.116 -113.304,-13.721c-33.572,-9.604 -62.662,-22.493 -83.929,-44.592c-56.921,-59.148 -69.661,-147.496 -69.661,-192.088c0,-43.906 18.315,-139.818 77.215,-191.401c23.5,-20.581 52.036,-34.987 84.768,-44.592c32.732,-9.604 67.982,-14.407 106.59,-14.407c22.661,0 41.964,1.372 57.911,2.744c15.107,2.058 28.536,4.116 40.286,6.174c12.589,2.744 19.304,8.918 19.304,17.837l0,125.737c0,9.604 -2.518,15.093 -7.554,17.837c-5.036,2.745 -10.911,3.43 -17.625,3.43c-11.75,0 -106.248,-13.117 -137.304,12.026c-13.773,11.151 -17.964,37.174 -17.964,64.615c0,19.209 3.357,35.674 10.071,48.708c6.714,13.721 54.782,21.41 87.787,18.578Zm-1863.705,-146.764c0,-26.482 3.343,-49.012 10.585,-67.194c6.685,-18.182 17.27,-33.202 30.64,-44.664c13.37,-11.462 30.083,-19.763 50.138,-24.901c19.498,-4.743 41.781,-7.51 67.407,-7.51c25.069,0 47.352,2.767 67.407,7.51c19.498,5.138 36.21,13.439 49.58,24.901c13.37,11.462 23.955,26.482 31.197,44.664c6.685,18.182 10.585,40.711 10.585,67.194c0,26.878 -3.9,49.407 -10.585,67.589c-7.242,18.182 -17.827,33.202 -31.197,44.664c-13.37,11.462 -30.083,19.763 -49.58,24.506c-20.055,5.138 -42.338,7.51 -67.407,7.51c-25.626,0 -47.909,-2.371 -67.407,-7.51c-20.055,-4.743 -36.768,-13.044 -50.138,-24.506c-13.37,-11.462 -23.955,-26.483 -30.64,-44.664c-7.242,-18.182 -10.585,-40.712 -10.585,-67.589Zm136.486,0c0,15.415 1.671,25.692 5.571,31.226c3.9,5.533 9.47,8.3 16.713,8.3c6.685,0 12.256,-2.767 16.155,-8.3c3.9,-5.534 6.128,-15.81 6.128,-31.226c0,-7.51 -0.557,-13.834 -1.672,-18.972c-1.114,-5.138 -2.228,-9.091 -4.457,-12.253c-2.228,-3.162 -4.457,-5.139 -7.242,-6.324c-2.785,-1.187 -5.571,-1.978 -8.913,-1.978c-3.342,0 -6.685,0.792 -9.47,1.978c-2.785,1.186 -5.014,3.162 -7.242,6.324c-2.228,3.162 -3.343,7.114 -4.457,12.253c-1.114,5.138 -1.114,11.462 -1.114,18.972Zm1550.158,-232.889c0,13.913 -8.393,20.87 -25.179,20.87l-151.072,0c-16.786,0 -25.179,-6.957 -25.179,-20.87l0,-445.221c0,-13.913 8.393,-20.87 25.179,-20.87l177.929,0c48.679,0 88.965,3.478 121.697,10.435c31.893,6.957 57.911,16.696 78.054,30.609c19.304,13.913 33.572,31.305 41.964,52.174c8.393,20.87 12.589,45.913 12.589,74.435c0,29.218 -5.036,52.87 -13.429,69.566c-8.393,17.391 -18.464,30.609 -30.214,39.652c-11.75,9.044 -24.339,14.609 -36.089,17.392c-11.75,2.783 -20.982,4.174 -26.857,4.174l-2.518,0c-1.679,0 -2.518,0.696 -2.518,2.087c-0.839,1.391 -0.839,2.087 0.839,3.478c3.357,5.565 152.902,84.28 420.439,1.342c20.982,-2.783 27.875,4.174 27.875,20.87l0.081,140.572c0,11.826 -6.714,18.783 -20.143,20.174c-12.589,2.783 -431.609,4.87 -453.43,-6.261c-21.821,-11.13 -39.447,-25.739 -52.875,-42.435c-13.429,-16.696 -22.661,-34.087 -28.536,-52.87c-5.875,-18.783 -10.071,-35.479 -12.589,-50.087c-2.518,-11.131 -4.196,-19.478 -5.036,-23.652c-1.679,-4.174 -4.196,-6.261 -8.393,-6.261c-5.875,0 -9.232,2.087 -10.911,5.565c-1.679,3.478 -1.679,8.348 -1.679,15.304l0,139.827Zm19.304,-230.263c20.143,0 31.054,-11.131 31.054,-34.783c0,-10.435 -3.357,-18.783 -8.393,-25.044c-5.875,-5.565 -13.429,-9.044 -21.821,-9.044c-7.554,0 -12.589,1.391 -15.946,4.174c-3.357,2.783 -4.196,6.957 -4.196,13.217l0,34.087c0,11.826 5.875,17.391 18.464,17.391l0.839,0Zm-936.303,-4.662c45.682,0.856 115.08,10.392 150.461,56.476c5.875,7.652 10.911,16.696 15.107,27.131c3.357,10.435 5.875,22.957 5.875,38.261c0,20.174 -4.196,38.261 -12.589,54.957c-8.393,16.696 -20.982,30.609 -38.607,41.739c-18.464,11.826 -41.964,20.87 -71.339,27.131c-29.375,6.261 -65.464,9.044 -108.268,9.044l-297.471,0c-16.786,0 -25.179,-6.957 -25.179,-20.87l0,-445.221c0,-13.913 8.393,-20.87 25.179,-20.87c0,0 322.996,-2.316 366.77,9.739c27.853,7.671 43.643,15.304 58.75,26.435c15.107,11.826 26.018,25.739 32.732,41.739c6.714,16.696 10.071,34.783 10.071,54.957c0,16 -0.821,29.557 -5.036,38.957c-5.675,12.656 -14.115,22.587 -24.198,30.356c-24.477,18.861 -56.533,26.8 -82.259,30.038Zm-181.612,94.042c0,5.565 3.357,7.652 10.911,7.652l4.196,0c11.75,0 83.976,-0.696 93.208,-3.478c8.393,-2.783 13.429,-9.739 13.429,-20.87c0,-13.913 -4.196,-22.261 -11.75,-25.739c-7.554,-3.478 -17.625,-5.565 -29.375,-5.565l-69.708,0c-7.554,0 -10.911,4.174 -10.911,11.131l0,36.87Zm0,-129.392c0,8.348 3.357,11.826 10.911,11.826l41.622,0c21.821,0 33.572,-9.044 33.572,-27.826c0,-11.131 -4.196,-18.783 -11.75,-22.261c-8.393,-3.478 -15.946,-5.565 -23.5,-5.565l-39.944,0c-7.554,0 -10.911,2.783 -10.911,6.957l0,36.87Zm408.819,291.145l-4.846,-0.034c-20.982,-0.149 -19.484,-6.875 -19.491,-24.314l-0.187,-445.221c1.679,-11.13 10.071,-17.391 25.179,-17.391l256.394,0c151.496,0 199.381,462.613 199.381,462.613c4.196,16.696 -4.197,24.348 -24.339,24.348l-152.75,0c-15.107,0 -23.501,-5.565 -25.179,-17.391l-14.268,-75.131c-2.518,-11.131 -10.911,-17.392 -25.179,-17.392l-13.429,0c-15.107,0 -23.5,6.261 -25.179,17.392l-0.395,75.131c-2.518,11.826 -10.911,17.391 -25.179,17.391l-150.534,0Zm176.2,-294.959c0,0 -1.06,99.855 0.187,102.957c0.839,4.174 3.685,6.957 6.203,9.044c2.518,2.782 6.714,3.478 11.75,3.478l16.177,0c5.036,0 8.393,-0.696 10.911,-3.478c2.518,-2.087 4.197,-4.87 5.875,-9.044c0.84,-4.174 0.84,-8.348 0.84,-12.522c0,-4.174 -0.44,-9.063 -0.84,-13.218c-7.111,-73.866 -19.936,-83.746 -34.663,-83.637c-9.785,-0.38 -16.44,6.419 -16.44,6.419Zm-70.313,834.646l-4.846,-0.034c-20.982,-0.149 -19.484,-6.875 -19.491,-24.314l-0.187,-445.221c1.679,-11.13 10.071,-17.391 25.179,-17.391l256.394,0c151.496,0 199.381,462.613 199.381,462.613c4.196,16.696 -4.197,24.348 -24.339,24.348l-152.75,0c-15.107,0 -23.501,-5.565 -25.179,-17.391l-14.268,-75.131c-2.518,-11.131 -10.911,-17.392 -25.179,-17.392l-13.429,0c-15.107,0 -23.5,6.261 -25.179,17.392l-0.395,75.131c-2.518,11.826 -10.911,17.391 -25.179,17.391l-150.534,0Zm176.2,-294.959c0,0 -1.06,99.855 0.187,102.957c0.839,4.174 3.685,6.957 6.203,9.044c2.518,2.782 6.714,3.478 11.75,3.478l16.177,0c5.036,0 8.393,-0.696 10.911,-3.478c2.518,-2.087 4.197,-4.87 5.875,-9.044c0.84,-4.174 0.84,-8.348 0.84,-12.522c0,-4.174 -0.44,-9.063 -0.84,-13.218c-7.111,-73.866 -19.936,-83.746 -34.663,-83.637c-9.785,-0.38 -16.44,6.419 -16.44,6.419Zm1290.032,294.959l-4.846,-0.034c-20.982,-0.149 -19.484,-6.875 -19.491,-24.314l-0.187,-445.221c1.679,-11.13 10.071,-17.391 25.179,-17.391l256.394,0c151.496,0 199.381,462.613 199.381,462.613c4.196,16.696 -4.197,24.348 -24.339,24.348l-152.75,0c-15.107,0 -23.501,-5.565 -25.179,-17.391l-14.268,-75.131c-2.518,-11.131 -10.911,-17.392 -25.179,-17.392l-13.429,0c-15.107,0 -23.5,6.261 -25.179,17.392l-0.395,75.131c-2.518,11.826 -10.911,17.391 -25.179,17.391l-150.534,0Zm176.2,-294.959c0,0 -1.06,99.855 0.187,102.957c0.839,4.174 3.685,6.957 6.203,9.044c2.518,2.782 6.714,3.478 11.75,3.478l16.177,0c5.036,0 8.393,-0.696 10.911,-3.478c2.518,-2.087 4.197,-4.87 5.875,-9.044c0.84,-4.174 0.84,-8.348 0.84,-12.522c0,-4.174 -0.44,-9.063 -0.84,-13.218c-7.111,-73.866 -19.936,-83.746 -34.663,-83.637c-9.785,-0.38 -16.44,6.419 -16.44,6.419Z" style="fill:#0358f8;"/><path d="M1248.918,1011.882l29.429,-134.211c1.682,-9.739 4.06,-16.348 7.147,-19.826c3.074,-3.478 6.858,-5.217 11.351,-5.217c5.045,0 8.54,2.087 10.51,6.261c1.958,4.174 2.943,11.826 2.943,22.957l0,125.168c0,13.913 8.408,20.87 25.225,20.87l151.351,0c16.817,0 25.225,-6.957 25.225,-20.87l0,-445.221c0,-13.913 -8.408,-20.87 -25.225,-20.87l-223.663,0c-12.337,0 -19.904,3.946 -22.703,11.826l-52.132,125.143c-2.812,8.815 -5.19,16.239 -7.147,22.261c-1.971,6.033 -4.914,9.044 -8.829,9.044c-3.363,0 -6.175,-3.011 -8.408,-9.044c-2.247,-6.022 -4.769,-13.446 -7.568,-22.261l-52.132,-125.143c-2.812,-7.881 -10.379,-11.826 -22.703,-11.826l-223.663,0c-16.817,0 -25.225,6.957 -25.225,20.87l0,445.221c0,13.913 8.408,20.87 25.225,20.87l151.351,0c16.817,0 25.225,-6.957 25.225,-20.87l0,-125.168c0,-11.131 0.841,-18.783 2.523,-22.957c1.682,-4.174 4.756,-6.261 9.249,-6.261c3.915,0 7.988,1.739 12.192,5.217c4.204,3.478 7.147,10.554 8.829,21.218l28.588,132.82c1.117,5.565 3.915,9.631 8.408,12.174c4.48,2.554 9.801,3.826 15.976,3.826l104.264,0c6.162,0 11.483,-1.272 15.976,-3.826c4.48,-2.544 7.278,-6.609 8.408,-12.174Z" style="fill:#0358f8;fill-rule:nonzero;"/><path d="M2756.324,878.479l46.649,130.649c2.772,6.988 5.545,12.229 8.33,15.723c2.772,3.494 8.33,5.241 16.661,5.241l116.624,0c16.661,0 24.991,-6.988 24.991,-20.964l0,-447.242c0,-13.976 -8.33,-20.964 -24.991,-20.964l-149.945,0c-16.661,0 -24.991,6.988 -24.991,20.964l0,116.352c0,12.12 -0.833,19.916 -2.499,23.41c-1.666,3.494 -4.165,5.241 -7.497,5.241c-3.892,0 -9.163,-9.543 -15.828,-28.651l-38.319,-125.436c-1.119,-3.723 -2.369,-6.639 -3.749,-8.735c-1.393,-2.096 -4.868,-3.145 -10.413,-3.145l-138.282,0c-16.661,0 -24.991,6.988 -24.991,20.964l0,447.242c0,13.976 8.33,20.964 24.991,20.964l149.945,0c16.661,0 24.991,-6.988 24.991,-20.964l0,-121.565c0,-14.435 0.833,-23.52 2.499,-27.254c1.666,-3.723 4.712,-5.591 9.163,-5.591c3.332,0 6.248,2.337 8.747,6.988c2.499,4.662 5.128,10.253 7.914,16.772Z" style="fill:#0358f8;fill-rule:nonzero;"/></g></svg>