<svg width="9115" height="855" viewBox="0 0 9115 855" fill="none" xmlns="http://www.w3.org/2000/svg">
    <path fill-rule="evenodd" clip-rule="evenodd" d="M3600.14 814.537C3600.14 838.788 3585.51 850.913 3556.25 850.913H3292.94C3263.68 850.913 3249.05 838.788 3249.05 814.537V38.5262C3249.05 14.2758 3263.68 2.15075 3292.94 2.15075H3603.07C3687.91 2.15075 3758.13 8.21317 3815.18 20.3385C3870.77 32.4636 3916.12 49.4387 3951.23 73.6891C3984.87 97.9394 4009.74 128.252 4024.37 164.628C4039 201.003 4046.31 244.654 4046.31 294.367C4046.31 345.293 4037.53 386.519 4022.91 415.619C4008.28 445.932 3990.72 468.97 3970.24 484.732C3949.76 500.495 3927.82 510.195 3907.34 515.045C3886.86 519.896 3870.77 522.32 3860.53 522.32H3856.14C3853.21 522.32 3851.75 523.533 3851.75 525.958C3850.29 528.383 3850.29 529.595 3853.21 532.02C3859.07 541.72 4119.72 678.918 4586.03 534.36C4622.6 529.51 4634.61 541.635 4634.61 570.736L4634.76 815.749C4634.76 836.362 4623.05 848.488 4599.65 850.913C4577.7 855.763 3847.36 859.4 3809.33 840C3771.29 820.6 3740.57 795.137 3717.17 766.036C3693.76 736.936 3677.67 706.623 3667.43 673.885C3657.19 641.147 3649.88 612.047 3645.49 586.584C3641.1 567.184 3638.17 552.633 3636.71 545.358C3633.78 538.083 3629.4 534.446 3622.08 534.446C3611.84 534.446 3605.99 538.083 3603.07 544.146C3600.14 550.208 3600.14 558.696 3600.14 570.821V814.537ZM3633.79 413.194C3668.89 413.194 3687.91 393.794 3687.91 352.568C3687.91 334.38 3682.06 319.83 3673.28 308.917C3663.04 299.217 3649.88 293.154 3635.25 293.154C3622.08 293.154 3613.3 295.579 3607.45 300.43C3601.6 305.279 3600.14 312.555 3600.14 323.467V382.881C3600.14 403.493 3610.38 413.193 3632.32 413.193L3633.79 413.194ZM7858.95 388.44C7854.26 376.981 7824.59 376.482 7824.59 400.732L7900.12 814.537C7900.12 838.788 7885.49 850.913 7856.23 850.913H7592.92C7563.66 850.913 7549.03 838.788 7549.03 814.537V38.5262C7549.03 14.2758 7563.66 2.15075 7592.92 2.15075H7882.41C7891.18 2.15075 7897.04 4.57533 7899.96 8.21299C7902.89 11.8508 7904.91 16.4602 7907.27 22.7631L8107.36 579.025C8115.28 593.633 8132.81 582.78 8130.9 575.059C8108.55 484.975 7973.26 38.5262 7973.26 38.5262C7973.26 14.2758 7987.89 2.15075 8017.15 2.15075H8280.46C8309.72 2.15075 8324.35 14.2758 8324.35 38.5262V814.537C8324.35 838.788 8309.72 850.913 8280.46 850.913H8013.88C7999.25 850.913 7989.01 848.488 7984.62 842.425C7978.77 836.363 7974.38 826.662 7969.99 814.537L7858.95 388.44ZM7140.51 573.139C7151.73 579.769 7175.28 587.151 7231.6 574.452C7248.96 570.537 7278.91 552.121 7271.93 519.214C7267.87 500.069 7187.63 525.015 7164.53 504.845C7150.65 492.732 7157.88 417.23 7157.88 417.23C7157.88 393.976 7172.5 382.349 7201.76 382.349H7435.82C7465.08 382.349 7479.71 393.976 7479.71 417.23V668.37C7479.71 688.136 7472.39 709.064 7459.23 729.993C7446.06 752.084 7427.04 771.85 7400.71 789.29C7374.38 807.893 7342.2 821.845 7304.16 833.472C7264.67 845.099 7219.32 850.913 7166.65 850.913C7092.05 850.913 7026.22 843.936 6969.17 827.659C6910.65 811.381 6859.95 789.537 6822.88 752.084C6723.67 651.839 6701.47 502.106 6701.47 426.531C6701.47 352.12 6733.39 189.565 6836.05 102.142C6877.01 67.2612 6926.75 42.8444 6983.8 26.5667C7040.85 10.2892 7102.29 2.15025 7169.58 2.15025C7209.08 2.15025 7242.72 4.47601 7270.52 6.80132C7296.85 10.2895 7320.26 13.7774 7340.74 17.2656C7362.68 21.9161 7374.38 32.3801 7374.38 47.4953V288.172C7374.38 304.449 7369.99 313.751 7361.22 318.402C7352.44 323.054 7342.2 324.215 7330.5 324.215C7310.02 324.215 7288.07 321.89 7267.59 317.239C7245.65 312.588 7222.24 310.263 7198.84 310.263C7154.95 310.263 7119.84 318.402 7096.44 333.517C7071.57 349.794 7059.87 380.024 7059.87 426.531C7059.87 459.087 7065.72 486.991 7077.42 509.083C7089.12 532.336 7100.1 549.254 7140.51 573.139H7140.51ZM5424.27 823.025C5421.35 832.725 5416.96 840 5409.65 844.85C5400.87 849.701 5392.09 850.913 5381.85 850.913H5200.46C5188.76 850.913 5179.98 849.7 5172.66 844.85C5163.89 840 5159.5 832.725 5158.04 823.025L5028.27 461.694C5020.72 442.515 5001.09 429.097 4989.7 432.01C4976.65 435.35 4971.22 447.144 4971.22 466.545L5077.71 814.537C5077.71 838.788 5063.09 850.913 5033.83 850.913H4744.05C4714.79 850.913 4700.16 838.788 4700.16 814.537V38.5262C4700.16 14.2758 4714.79 2.15075 4744.05 2.15075H5133.17C5153.65 2.15075 5166.81 9.42559 5172.66 22.7631L5263.36 425.14C5267.75 440.902 5272.14 454.24 5276.53 463.94C5279.45 474.853 5285.3 479.703 5291.16 479.703C5297.01 479.703 5302.86 474.853 5305.78 463.94C5308.71 454.24 5313.1 440.902 5318.95 425.14L5409.65 22.7631C5414.04 9.42559 5427.2 2.15075 5449.14 2.15075H5838.27C5867.52 2.15075 5882.15 14.2758 5882.15 38.5262V814.537C5882.15 838.788 5867.52 850.913 5838.27 850.913H5549.13C5519.87 850.913 5505.24 838.788 5505.24 814.537L5610.24 467.395C5610.24 447.995 5610.02 434.299 5592.96 432.341C5576.77 430.48 5564.81 440.563 5554.65 460.121L5424.28 823.025H5424.27ZM4088.16 279.794C4088.16 233.636 4093.98 194.367 4106.61 162.677C4118.26 130.987 4136.71 104.807 4160.01 84.8288C4183.31 64.85 4212.44 50.3823 4247.4 41.4261C4281.38 33.159 4320.22 28.3366 4364.89 28.3366C4408.58 28.3366 4447.42 33.159 4482.38 41.4261C4516.36 50.3823 4545.49 64.8501 4568.79 84.8288C4592.1 104.807 4610.55 130.987 4623.17 162.677C4634.82 194.367 4641.62 233.636 4641.62 279.794C4641.62 326.642 4634.82 365.91 4623.17 397.601C4610.55 429.291 4592.1 455.471 4568.79 475.449C4545.49 495.428 4516.36 509.895 4482.38 518.163C4447.42 527.119 4408.58 531.252 4364.89 531.252C4320.22 531.252 4281.38 527.119 4247.4 518.163C4212.44 509.895 4183.31 495.428 4160.01 475.449C4136.71 455.471 4118.26 429.291 4106.61 397.601C4093.98 365.91 4088.16 326.642 4088.16 279.794ZM4326.05 279.794C4326.05 306.663 4328.96 324.574 4335.76 334.22C4342.56 343.864 4352.27 348.687 4364.89 348.687C4376.54 348.687 4386.25 343.864 4393.05 334.22C4399.84 324.574 4403.73 306.663 4403.73 279.794C4403.73 266.705 4402.76 255.682 4400.81 246.726C4398.87 237.769 4396.93 230.881 4393.05 225.369C4389.16 219.858 4385.28 216.413 4380.42 214.347C4375.57 212.277 4370.71 210.9 4364.89 210.9C4359.06 210.9 4353.24 212.281 4348.38 214.347C4343.53 216.413 4339.64 219.858 4335.76 225.369C4331.87 230.881 4329.93 237.769 4327.99 246.726C4326.05 255.682 4326.05 266.705 4326.05 279.794ZM2010.4 814.537C2010.4 838.788 1995.77 850.913 1966.51 850.913H1703.2C1673.94 850.913 1659.31 838.788 1659.31 814.537V38.5262C1659.31 14.2758 1673.94 2.15075 1703.2 2.15075H2013.32C2098.17 2.15075 2168.39 8.21317 2225.44 20.3385C2281.03 32.4636 2326.38 49.4387 2361.49 73.6891C2395.13 97.9394 2420 128.252 2434.63 164.628C2449.26 201.003 2456.57 244.654 2456.57 294.367C2456.57 345.293 2447.79 386.519 2433.17 415.619C2418.54 445.932 2400.98 468.97 2380.5 484.732C2360.02 500.495 2338.08 510.195 2317.6 515.045C2297.12 519.896 2281.03 522.32 2270.79 522.32H2266.4C2263.47 522.32 2262.01 523.533 2262.01 525.958C2260.55 528.383 2260.55 529.595 2263.47 532.02C2269.32 541.72 2529.98 678.918 2996.29 534.36C3032.86 529.51 3044.87 541.635 3044.87 570.736L3045.02 815.749C3045.02 836.362 3033.31 848.488 3009.91 850.913C2987.96 855.763 2257.62 859.4 2219.59 840C2181.55 820.6 2150.83 795.137 2127.43 766.036C2104.02 736.936 2087.93 706.623 2077.69 673.885C2067.45 641.147 2060.14 612.047 2055.75 586.584C2051.36 567.184 2048.43 552.633 2046.97 545.358C2044.04 538.083 2039.66 534.446 2032.34 534.446C2022.1 534.446 2016.25 538.083 2013.32 544.146C2010.4 550.208 2010.4 558.696 2010.4 570.821V814.537ZM2044.04 413.194C2079.15 413.194 2098.17 393.794 2098.17 352.568C2098.17 334.38 2092.32 319.83 2083.54 308.917C2073.3 299.217 2060.14 293.154 2045.51 293.154C2032.34 293.154 2023.56 295.579 2017.71 300.43C2011.86 305.279 2010.4 312.555 2010.4 323.467V382.881C2010.4 403.493 2020.64 413.193 2042.58 413.193L2044.04 413.194ZM514.528 405.069C594.152 406.56 715.11 423.182 776.779 503.506C787.019 516.843 795.796 532.606 803.111 550.794C808.962 568.982 813.351 590.807 813.351 617.483C813.351 652.646 806.036 684.171 791.407 713.271C776.779 742.372 754.836 766.622 724.116 786.022C691.933 806.635 650.972 822.398 599.772 833.311C548.572 844.223 485.669 849.073 411.063 849.073H43.8859C14.6287 849.073 0 836.948 0 812.698V36.6866C0 12.4363 14.6286 0.311175 43.8859 0.311175C43.8859 0.311175 455.553 -3.72643 531.851 17.2863C580.398 30.6566 607.92 43.9618 634.251 63.3622C660.583 83.975 679.6 108.225 691.303 136.113C703.006 165.213 708.857 196.739 708.857 231.902C708.857 259.79 707.427 283.419 700.08 299.803C690.188 321.861 675.478 339.171 657.903 352.713C615.241 385.587 559.369 399.424 514.528 405.069ZM351.086 343.453C351.086 358.003 356.938 364.066 370.104 364.066H413.299C451.333 364.066 471.813 348.304 471.813 315.566C471.813 296.165 464.498 282.828 451.333 276.765C436.704 270.703 423.538 267.065 410.373 267.065H370.104C356.938 267.065 351.086 271.915 351.086 279.19V343.453ZM351.086 568.982C351.086 578.682 356.938 582.319 370.104 582.319H377.418C397.898 582.319 494.435 581.107 510.526 576.257C525.155 571.407 533.932 559.281 533.932 539.881C533.932 515.631 526.618 501.081 513.452 495.018C500.286 488.956 482.732 485.318 462.251 485.318H370.104C356.938 485.318 351.086 492.593 351.086 504.718V568.982ZM908.94 850.913L900.493 850.853C863.922 850.594 866.533 838.87 866.521 808.475L866.196 32.4634C869.121 13.0632 883.75 2.15075 910.082 2.15075H1226.7C1490.76 2.15075 1574.22 808.475 1574.22 808.475C1581.54 837.575 1566.91 850.913 1531.8 850.913H1265.56C1239.22 850.913 1224.6 841.213 1221.67 820.6L1196.8 689.648C1192.41 670.248 1177.79 659.335 1152.92 659.335H1129.51C1103.18 659.335 1088.55 670.248 1085.62 689.648L1084.94 820.6C1080.55 841.213 1065.92 850.913 1041.05 850.913H908.94ZM1085.79 336.805C1085.79 336.805 1083.94 510.85 1086.11 516.258C1087.57 523.533 1092.54 528.383 1096.92 532.021C1101.31 536.869 1108.63 538.083 1117.4 538.083H1145.6C1154.38 538.083 1160.23 536.871 1164.62 532.021C1169.01 528.383 1171.93 523.533 1174.86 516.258C1176.32 508.983 1176.32 501.708 1176.32 494.433C1176.32 487.158 1175.55 478.637 1174.86 471.395C1162.46 342.648 1140.11 325.427 1114.44 325.618C1097.38 324.955 1085.79 336.805 1085.79 336.805ZM6025.15 850.913L6016.7 850.853C5980.13 850.594 5982.74 838.87 5982.73 808.475L5982.4 32.4634C5985.33 13.0632 5999.96 2.15075 6026.29 2.15075H6342.91C6606.96 2.15075 6690.43 808.475 6690.43 808.475C6697.74 837.575 6683.11 850.913 6648 850.913H6381.76C6355.43 850.913 6340.8 841.213 6337.88 820.6L6313.01 689.648C6308.62 670.248 6293.99 659.335 6269.12 659.335H6245.72C6219.39 659.335 6204.76 670.248 6201.83 689.648L6201.14 820.6C6196.75 841.213 6182.12 850.913 6157.26 850.913H6025.15ZM6201.99 336.805C6201.99 336.805 6200.14 510.85 6202.32 516.258C6203.78 523.533 6208.74 528.383 6213.13 532.021C6217.52 536.869 6224.83 538.083 6233.61 538.083H6261.81C6270.58 538.083 6276.44 536.871 6280.82 532.021C6285.21 528.383 6288.14 523.533 6291.06 516.258C6292.53 508.983 6292.53 501.708 6292.53 494.433C6292.53 487.158 6291.76 478.637 6291.06 471.395C6278.67 342.648 6256.32 325.427 6230.65 325.618C6213.59 324.955 6201.99 336.805 6201.99 336.805ZM8447.68 850.913L8439.23 850.853C8402.66 850.594 8405.27 838.87 8405.26 808.475L8404.94 32.4634C8407.86 13.0632 8422.49 2.15075 8448.82 2.15075H8765.44C9029.5 2.15075 9112.96 808.475 9112.96 808.475C9120.27 837.575 9105.65 850.913 9070.54 850.913H8804.3C8777.97 850.913 8763.33 841.213 8760.41 820.6L8735.54 689.648C8731.15 670.248 8716.52 659.335 8691.66 659.335H8668.25C8641.92 659.335 8627.29 670.248 8624.36 689.648L8623.68 820.6C8619.29 841.213 8604.66 850.913 8579.79 850.913H8447.68ZM8624.53 336.805C8624.53 336.805 8622.68 510.85 8624.85 516.258C8626.32 523.533 8631.27 528.383 8635.66 532.021C8640.05 536.869 8647.37 538.083 8656.14 538.083H8684.34C8693.12 538.083 8698.97 536.871 8703.36 532.021C8707.75 528.383 8710.67 523.533 8713.6 516.258C8715.06 508.983 8715.06 501.708 8715.06 494.433C8715.06 487.158 8714.29 478.637 8713.6 471.395C8701.2 342.648 8678.85 325.427 8653.18 325.618C8636.12 324.955 8624.53 336.805 8624.53 336.805Z" fill="#0358F8"/>
</svg>
