<svg width="998" height="92" viewBox="0 0 998 92" fill="none" xmlns="http://www.w3.org/2000/svg">
<path fill-rule="evenodd" clip-rule="evenodd" d="M393.356 87.2699C393.356 89.8115 391.823 91.0825 388.756 91.0825H361.158C358.092 91.0825 356.558 89.8115 356.558 87.2699V5.9363C356.558 3.39469 358.091 2.12368 361.158 2.12368H393.662C402.555 2.12368 409.914 2.75897 415.894 4.02999C421.72 5.30101 426.473 7.07992 430.153 9.62152C433.679 12.1631 436.286 15.3405 437.819 19.1527C439.352 22.9653 440.119 27.5402 440.119 32.7504C440.119 38.0879 439.199 42.4089 437.666 45.4588C436.133 48.6357 434.293 51.0504 432.146 52.7027C430 54.3547 427.7 55.3713 425.554 55.8796C423.407 56.3879 421.721 56.6423 420.647 56.6423H420.187C419.881 56.6423 419.727 56.7693 419.727 57.0237C419.574 57.2781 419.574 57.405 419.88 57.659C420.494 58.6756 447.813 73.0554 496.686 57.9043C500.519 57.396 501.779 58.667 501.779 61.7169L501.793 87.3968C501.793 89.5571 498.114 91.0821 498.114 91.0821L464.795 90.999C464.795 90.999 444.09 91.2065 435.933 90.999C429.229 90.8286 420.41 91.8749 415.854 89.7538C411.798 87.8647 408.074 85.2366 405.621 82.1867C403.168 79.1367 401.481 75.9594 400.408 72.5281C399.335 69.0969 398.568 66.0469 398.109 63.3779C397.648 61.3446 397.342 59.8197 397.189 59.057C396.882 58.2943 396.422 57.9133 395.656 57.9133C394.582 57.9133 393.969 58.2947 393.662 58.93C393.356 59.5653 393.356 60.455 393.356 61.726V87.2699ZM396.882 45.2053C400.562 45.2053 402.555 43.172 402.555 38.8511C402.555 36.9448 401.942 35.4198 401.022 34.2762C399.949 33.2595 397.036 32.6242 397.036 32.6242C397.036 32.6242 394.736 32.8786 394.122 33.3869C393.509 33.8953 393.356 34.658 393.356 35.8016V42.0288C393.356 44.1891 394.429 45.2057 396.729 45.2057H396.882V45.2053ZM238.772 87.2699C238.772 89.8115 237.239 91.0825 234.172 91.0825H206.574C203.508 91.0825 201.974 89.8115 201.974 87.2699V5.9363C201.974 3.39469 203.508 2.12368 206.574 2.12368H239.078C247.971 2.12368 255.331 2.75897 261.31 4.02999C267.136 5.30101 271.89 7.07992 275.569 9.62152C279.096 12.1631 281.702 15.3405 283.235 19.1527C284.768 22.9653 285.535 27.5402 285.535 32.7504C285.535 38.0879 284.615 42.4089 283.082 45.4588C281.549 48.6357 279.709 51.0504 277.562 52.7027C275.416 54.3547 273.116 55.3713 270.97 55.8796C268.823 56.3879 267.137 56.6423 266.063 56.6423H265.603C265.297 56.6423 265.143 56.7693 265.143 57.0237C264.99 57.2781 264.99 57.405 265.296 57.659C265.91 58.6756 293.229 73.0554 342.102 57.9043C345.935 57.396 347.195 58.667 347.195 61.7169L347.209 87.3968C347.209 89.5571 343.53 91.0821 343.53 91.0821L310.211 90.999C310.211 90.999 289.506 91.2065 281.349 90.999C274.645 90.8286 265.826 91.8749 261.27 89.7538C257.214 87.8647 253.491 85.2366 251.037 82.1867C248.584 79.1367 246.897 75.9594 245.824 72.5281C244.751 69.0969 243.984 66.0469 243.525 63.3779C243.065 61.3446 242.758 59.8197 242.605 59.057C242.298 58.2943 241.838 57.9133 241.072 57.9133C239.998 57.9133 239.385 58.2947 239.078 58.93C238.772 59.5653 238.772 60.455 238.772 61.726V87.2699ZM242.298 45.2053C245.978 45.2053 247.971 43.172 247.971 38.8511C247.971 36.9448 247.358 35.4198 246.438 34.2762C245.365 33.2595 242.452 32.6242 242.452 32.6242C242.452 32.6242 240.152 32.8786 239.539 33.3869C238.925 33.8953 238.772 34.658 238.772 35.8016V42.0288C238.772 44.1891 239.845 45.2057 242.145 45.2057H242.298V45.2053ZM784.968 58.0347C786.97 57.863 789.86 56.9484 788.371 55.1002C787.407 53.9036 780.482 55.7884 778.061 53.6143C776.607 52.3089 777.364 40.506 777.364 40.506C777.364 37.9997 778.897 36.7463 781.964 36.7463H806.495C809.562 36.7463 811.095 37.9997 811.095 40.506V71.8106C811.095 73.9412 810.329 76.197 808.949 78.4528C807.569 80.8339 805.576 82.9644 802.816 84.8445C800.056 86.8498 796.683 88.3537 792.697 89.6066C788.557 90.86 783.804 91.4867 778.284 91.4867C770.465 91.4867 763.565 90.7347 757.586 88.9804C751.453 87.226 746.139 84.8712 742.254 80.8343C731.855 70.0291 729.528 53.8898 729.528 45.7433C729.528 37.7225 732.874 20.2011 743.634 10.778C747.927 7.01836 753.14 4.38637 759.119 2.632C765.099 0.877621 771.538 0 778.591 0C782.731 0 786.257 0.250506 789.17 0.501438C791.93 0.877622 794.383 1.25338 796.53 1.62956C798.829 2.13099 800.056 3.25868 800.056 4.88781V27.8574C800.056 29.6118 799.596 30.6146 798.676 31.1156C797.756 31.6171 796.683 31.7423 795.456 31.7423C793.31 31.7423 776.047 29.3462 770.373 33.9392C767.857 35.9763 767.092 40.7303 767.092 45.7429C767.092 49.2521 767.705 52.2598 768.932 54.6409C770.158 57.1472 778.939 58.5521 784.968 58.0347ZM444.505 31.2237C444.505 26.3858 445.116 22.2702 446.438 18.9486C447.659 15.6271 449.593 12.8832 452.035 10.7892C454.478 8.69527 457.531 7.17891 461.195 6.24017C464.756 5.37375 468.827 4.86844 473.509 4.86844C478.089 4.86844 482.159 5.37375 485.823 6.24017C489.385 7.17891 492.438 8.69527 494.88 10.7892C497.322 12.8832 499.256 15.6271 500.579 18.9486C501.8 22.2702 502.512 26.3858 502.512 31.2237C502.512 36.1339 501.8 40.2495 500.579 43.571C499.256 46.8925 497.322 49.6364 494.88 51.7304C492.437 53.8244 489.384 55.3408 485.823 56.2072C482.159 57.1459 478.088 57.5789 473.509 57.5789C468.828 57.5789 464.757 57.1455 461.195 56.2072C457.531 55.3408 454.478 53.8244 452.035 51.7304C449.593 49.6364 447.659 46.8925 446.438 43.571C445.115 40.2495 444.505 36.1339 444.505 31.2237ZM469.438 31.2237C469.438 34.0399 469.743 35.9169 470.456 36.928C471.168 37.939 472.186 38.4443 473.509 38.4443C474.73 38.4443 475.748 37.939 476.46 36.928C477.173 35.9169 477.58 34.0399 477.58 31.2237C477.58 29.8519 477.478 28.6967 477.275 27.758C477.071 26.8192 476.867 26.0974 476.46 25.5198C476.053 24.9422 475.646 24.5811 475.137 24.3646C474.628 24.1476 474.12 24.0034 473.509 24.0034C472.898 24.0034 472.288 24.1481 471.779 24.3646C471.27 24.5811 470.863 24.9422 470.456 25.5198C470.049 26.0974 469.845 26.8197 469.642 27.758C469.438 28.6967 469.438 29.8519 469.438 31.2237ZM69.7859 44.3535C78.1313 44.5098 90.8087 46.2521 97.2723 54.6706C98.3458 56.0686 99.2656 57.7205 100.032 59.6268C100.645 61.5332 101.106 63.8204 101.106 66.6164C101.106 70.3016 100.339 73.6059 98.8059 76.6558C97.2727 79.7057 94.973 82.2474 91.7531 84.2806C88.3799 86.4409 84.0869 88.0933 78.7205 89.2369C73.3541 90.3805 66.7614 90.8888 58.942 90.8888H4.59985C1.53357 90.8888 0 89.6178 0 87.0762V5.74262C0 3.20101 1.53314 1.92999 4.59985 1.92999C4.59985 1.92999 63.6052 1.50689 71.6019 3.70933C76.6902 5.11077 79.5745 6.50531 82.3343 8.5386C85.0941 10.6989 87.0874 13.2409 88.3136 16.1634C89.5403 19.2133 90.1537 22.5177 90.1537 26.2029C90.1537 29.1258 90.0039 31.6024 89.2339 33.3194C88.197 35.6311 86.6552 37.4453 84.8135 38.8649C80.3419 42.3103 74.4861 43.7608 69.7864 44.3522L69.7859 44.3535ZM36.609 37.8956C36.609 39.4205 37.2224 40.0558 38.6023 40.0558H46.206C50.1925 40.0558 52.339 38.4039 52.339 34.9726C52.339 32.9393 51.5725 31.5413 50.1925 30.906C48.6594 30.2707 47.2795 29.8894 45.8996 29.8894H38.6027C37.2228 29.8894 36.6095 30.3977 36.6095 31.1604V37.896L36.609 37.8956ZM36.609 61.5331C36.609 62.5498 37.2224 62.9311 38.6023 62.9311H39.3689C41.5154 62.9311 54.7098 62.8042 56.3961 62.2958C57.9293 61.7875 58.8491 60.5165 58.8491 58.4832C58.8491 55.9416 58.0825 54.4167 56.7026 53.7809C55.3227 53.1456 53.4826 52.7643 51.3362 52.7643H38.6019C37.2219 52.7643 36.6086 53.527 36.6086 54.7976V61.5331H36.609ZM111.292 91.0821L110.407 91.0756C106.574 91.0485 106.848 89.8197 106.846 86.6341L106.812 5.30058C107.119 3.26729 108.653 2.12368 111.412 2.12368H158.251C185.926 2.12368 194.674 86.6341 194.674 86.6341C195.44 89.6841 193.907 91.0821 190.228 91.0821H162.323C159.563 91.0821 158.03 90.0654 157.723 87.9052L155.116 74.1801C154.656 72.1468 153.123 71.0032 150.516 71.0032H148.063C145.303 71.0032 143.77 72.1468 143.463 74.1801L143.391 87.9052C142.931 90.0654 141.398 91.0821 138.791 91.0821H111.291H111.292ZM143.48 37.1987C143.48 37.1987 143.287 55.4402 143.514 56.007C143.668 56.7697 144.188 57.278 144.648 57.659C145.108 58.1673 145.874 58.2943 146.794 58.2943H149.749C150.669 58.2943 151.283 58.1673 151.743 57.659C152.203 57.2776 152.509 56.7693 152.816 56.007C152.97 55.2443 152.97 54.4821 152.97 53.7194C152.97 52.9567 152.889 52.064 152.816 51.3047C151.517 37.8108 149.174 36.006 146.484 36.0258C144.696 35.9565 143.48 37.1983 143.48 37.1983V37.1987ZM645.954 91.0821L645.068 91.0756C641.236 91.0485 641.509 89.8197 641.508 86.6341L641.474 5.30058C641.78 3.26729 643.314 2.12368 646.074 2.12368H692.912C720.587 2.12368 729.335 86.6341 729.335 86.6341C730.102 89.6841 728.569 91.0821 724.889 91.0821H696.984C694.225 91.0821 692.691 90.0654 692.384 87.9052L689.778 74.1801C689.318 72.1468 687.785 71.0032 685.178 71.0032H682.725C679.965 71.0032 678.432 72.1468 678.125 74.1801L678.052 87.9052C677.592 90.0654 676.059 91.0821 673.453 91.0821H645.953H645.954ZM678.142 37.1987C678.142 37.1987 677.948 55.4402 678.176 56.007C678.329 56.7697 678.849 57.278 679.309 57.659C679.769 58.1673 680.536 58.2943 681.456 58.2943H684.411C685.331 58.2943 685.944 58.1673 686.404 57.659C686.864 57.2776 687.171 56.7693 687.478 56.007C687.631 55.2443 687.631 54.4821 687.631 53.7194C687.631 52.9567 687.551 52.064 687.478 51.3047C686.179 37.8108 683.836 36.006 681.145 36.0258C679.358 35.9565 678.142 37.1983 678.142 37.1983V37.1987ZM913.806 91.0821L912.921 91.0756C909.088 91.0485 909.362 89.8197 909.361 86.6341L909.327 5.30058C909.633 3.26729 911.167 2.12368 913.926 2.12368H960.765C988.44 2.12368 997.188 86.6341 997.188 86.6341C997.954 89.6841 996.421 91.0821 992.742 91.0821H964.837C962.077 91.0821 960.544 90.0654 960.237 87.9052L957.631 74.1801C957.17 72.1468 955.637 71.0032 953.031 71.0032H950.577C947.817 71.0032 946.284 72.1468 945.977 74.1801L945.905 87.9052C945.445 90.0654 943.912 91.0821 941.305 91.0821H913.806H913.806ZM945.995 37.1987C945.995 37.1987 945.801 55.4402 946.029 56.007C946.182 56.7697 946.702 57.278 947.162 57.659C947.622 58.1673 948.389 58.2943 949.308 58.2943H952.264C953.183 58.2943 953.797 58.1673 954.257 57.659C954.717 57.2776 955.023 56.7693 955.33 56.007C955.484 55.2443 955.484 54.4821 955.484 53.7194C955.484 52.9567 955.403 52.064 955.33 51.3047C954.031 37.8108 951.689 36.006 948.998 36.0258C947.211 35.9565 945.995 37.1983 945.995 37.1983V37.1987ZM584.712 88.1591L590.088 63.6413C590.395 61.862 590.83 60.6547 591.393 60.0194C591.955 59.3841 592.646 59.0664 593.467 59.0664C594.389 59.0664 595.027 59.4478 595.387 60.21C595.745 60.9727 595.925 62.3703 595.925 64.4036V87.2694C595.925 89.8111 597.461 91.0821 600.533 91.0821H628.182C631.254 91.0821 632.79 89.8111 632.79 87.2694V5.93587C632.79 3.39426 631.254 2.12325 628.182 2.12325H587.323C585.069 2.12325 583.687 2.84419 583.175 4.28351L573.652 27.1446C573.139 28.7548 572.704 30.1111 572.347 31.2112C571.987 32.3131 571.449 32.8631 570.734 32.8631C570.119 32.8631 569.606 32.3131 569.198 31.2112C568.787 30.1111 568.327 28.7548 567.815 27.1446L558.292 4.28351C557.778 2.84376 556.396 2.12325 554.144 2.12325H513.285C510.213 2.12325 508.677 3.39426 508.677 5.93587V87.2694C508.677 89.8111 510.213 91.0821 513.285 91.0821H540.934C544.006 91.0821 545.542 89.8111 545.542 87.2694V64.4036C545.542 62.3703 545.696 60.9723 546.003 60.21C546.311 59.4473 546.872 59.0664 547.693 59.0664C548.409 59.0664 549.152 59.3841 549.921 60.0194C550.689 60.6547 551.226 61.9476 551.533 63.8953L556.756 88.1591C556.96 89.1758 557.471 89.9182 558.292 90.3831C559.11 90.8497 560.083 91.0821 561.211 91.0821H580.258C581.384 91.0821 582.356 90.8497 583.177 90.3831C583.995 89.9182 584.506 89.1758 584.713 88.1591H584.712ZM860.086 63.4528L868.608 87.1898C869.114 88.4595 869.62 89.4116 870.129 90.0465C870.636 90.6814 871.651 90.9986 873.173 90.9986H894.478C897.521 90.9986 899.043 89.7288 899.043 87.1898V5.93243C899.043 3.39297 897.521 2.12368 894.478 2.12368H867.086C864.042 2.12368 862.52 3.3934 862.52 5.93243V27.0719C862.52 29.2739 862.368 30.6904 862.063 31.3253C861.759 31.9601 861.303 32.2773 860.694 32.2773C859.983 32.2773 859.02 30.5436 857.802 27.0719L850.802 4.28178C850.598 3.60517 850.37 3.07575 850.117 2.69484C849.863 2.31392 849.228 2.12368 848.215 2.12368H822.953C819.91 2.12368 818.388 3.3934 818.388 5.93243V87.1898C818.388 89.7293 819.91 90.9986 822.953 90.9986H850.345C853.389 90.9986 854.911 89.7288 854.911 87.1898V65.1035C854.911 62.4809 855.063 60.8303 855.368 60.1519C855.672 59.4753 856.228 59.1362 857.041 59.1362C857.65 59.1362 858.183 59.5606 858.639 60.4059C859.096 61.2529 859.576 62.2687 860.085 63.4532L860.086 63.4528Z" fill="#0358F8"/>
</svg>
