<?xml version="1.0" encoding="UTF-8" standalone="no"?><!DOCTYPE svg PUBLIC "-//W3C//DTD SVG 1.1//EN" "http://www.w3.org/Graphics/SVG/1.1/DTD/svg11.dtd"><svg width="100%" height="100%" viewBox="0 0 2698 793" version="1.1" xmlns="http://www.w3.org/2000/svg" xmlns:xlink="http://www.w3.org/1999/xlink" xml:space="preserve" xmlns:serif="http://www.serif.com/" style="fill-rule:evenodd;clip-rule:evenodd;stroke-linejoin:round;stroke-miterlimit:2;"><g id="romagna"><path d="M154.915,774.47c0,10.7 -6.455,16.05 -19.364,16.05l-116.186,0c-12.91,0 -19.364,-5.35 -19.364,-16.05l0,-342.409c0,-10.7 6.455,-16.05 19.364,-16.05l136.841,0c37.438,0 68.421,2.675 93.594,8.025c24.528,5.35 44.538,12.84 60.029,23.541c14.846,10.7 25.819,24.076 32.274,40.126c6.455,16.05 9.682,35.311 9.682,57.247c0,22.471 -3.873,40.661 -10.328,53.502c-6.455,13.375 -14.2,23.541 -23.237,30.496c-9.037,6.955 -18.719,11.235 -27.756,13.375c-9.037,2.14 -16.137,3.21 -20.655,3.21l-1.936,0c-1.291,0 -1.936,0.535 -1.936,1.605c-0.645,1.07 -0.645,1.605 0.645,2.675c2.582,4.28 117.593,64.818 323.35,1.032c16.137,-2.14 21.438,3.21 21.438,16.05l0.062,108.111c0,9.095 -5.164,14.445 -15.491,15.515c-9.682,2.14 -331.94,3.745 -348.723,-4.815c-16.782,-8.56 -30.337,-19.796 -40.665,-32.636c-10.328,-12.84 -17.428,-26.216 -21.946,-40.661c-4.518,-14.445 -7.746,-27.286 -9.682,-38.521c-1.936,-8.56 -3.227,-14.98 -3.873,-18.19c-1.291,-3.21 -3.227,-4.815 -6.455,-4.815c-4.518,0 -7.1,1.605 -8.391,4.28c-1.291,2.675 -1.291,6.42 -1.291,11.77l0,107.538Zm14.846,-177.09c15.491,0 23.883,-8.56 23.883,-26.751c0,-8.025 -2.582,-14.445 -6.455,-19.261c-4.518,-4.28 -10.328,-6.955 -16.782,-6.955c-5.809,0 -9.682,1.07 -12.264,3.21c-2.582,2.14 -3.227,5.35 -3.227,10.165l0,26.216c0,9.095 4.518,13.375 14.2,13.375l0.645,0Zm1633.821,54.011c8.427,-0.723 20.594,-4.573 14.326,-12.355c-4.057,-5.037 -33.211,2.897 -43.406,-6.256c-6.122,-5.496 -2.934,-55.186 -2.934,-55.186c0,-10.552 6.455,-15.828 19.364,-15.828l103.276,0c12.91,0 19.364,5.276 19.364,15.828l0,131.791c0,8.969 -3.227,18.466 -9.037,27.963c-5.809,10.025 -14.201,18.994 -25.819,26.908c-11.619,8.442 -25.819,14.773 -42.601,20.049c-17.428,5.276 -37.438,7.914 -60.675,7.914c-32.919,0 -61.966,-3.166 -87.139,-10.552c-25.819,-7.387 -48.192,-17.299 -64.548,-34.294c-43.777,-45.489 -53.575,-113.436 -53.575,-147.73c0,-33.767 14.086,-107.531 59.384,-147.202c18.073,-15.828 40.02,-26.908 65.193,-34.295c25.174,-7.386 52.284,-11.08 81.976,-11.08c17.428,0 32.274,1.055 44.538,2.11c11.619,1.583 21.946,3.166 30.983,4.749c9.682,2.11 14.846,6.859 14.846,13.718l0,96.701c0,7.387 -1.937,11.607 -5.809,13.718c-3.873,2.111 -8.391,2.638 -13.555,2.638c-9.037,0 -81.713,-10.088 -105.598,9.249c-10.593,8.576 -13.816,28.59 -13.816,49.694c0,14.773 2.582,27.436 7.746,37.46c5.164,10.552 42.132,16.466 67.515,14.288Zm-1433.333,-112.873c0,-20.367 2.571,-37.694 8.14,-51.677c5.141,-13.983 13.282,-25.535 23.564,-34.35c10.283,-8.815 23.136,-15.199 38.56,-19.151c14.995,-3.648 32.133,-5.776 51.841,-5.776c19.28,0 36.417,2.128 51.841,5.776c14.995,3.952 27.849,10.335 38.131,19.151c10.283,8.815 18.423,20.367 23.993,34.35c5.141,13.983 8.14,31.31 8.14,51.677c0,20.671 -2.999,37.998 -8.14,51.981c-5.57,13.983 -13.71,25.535 -23.993,34.35c-10.283,8.815 -23.136,15.199 -38.131,18.847c-15.424,3.952 -32.561,5.776 -51.841,5.776c-19.708,0 -36.846,-1.824 -51.841,-5.776c-15.424,-3.648 -28.277,-10.032 -38.56,-18.847c-10.283,-8.815 -18.423,-20.367 -23.564,-34.35c-5.57,-13.984 -8.14,-31.31 -8.14,-51.981Zm104.968,0c0,11.856 1.285,19.759 4.285,24.015c2.999,4.256 7.283,6.384 12.853,6.384c5.141,0 9.426,-2.128 12.425,-6.384c2.999,-4.256 4.713,-12.159 4.713,-24.015c0,-5.776 -0.429,-10.639 -1.286,-14.591c-0.857,-3.952 -1.714,-6.992 -3.428,-9.423c-1.714,-2.432 -3.428,-3.952 -5.57,-4.864c-2.142,-0.913 -4.284,-1.521 -6.855,-1.521c-2.571,0 -5.141,0.609 -7.283,1.521c-2.142,0.912 -3.856,2.432 -5.57,4.864c-1.714,2.432 -2.571,5.472 -3.427,9.423c-0.857,3.952 -0.857,8.815 -0.857,14.591Zm523.822,-179.109c0,10.7 -6.455,16.05 -19.364,16.05l-116.186,0c-12.91,0 -19.364,-5.35 -19.364,-16.05l0,-342.409c0,-10.7 6.455,-16.05 19.364,-16.05l136.841,0c37.438,0 68.421,2.675 93.594,8.025c24.528,5.35 44.538,12.84 60.029,23.541c14.846,10.7 25.819,24.076 32.274,40.126c6.455,16.05 9.682,35.311 9.682,57.247c0,22.471 -3.873,40.661 -10.328,53.502c-6.455,13.375 -14.2,23.541 -23.237,30.496c-9.037,6.955 -18.719,11.235 -27.756,13.375c-9.037,2.14 -16.137,3.21 -20.655,3.21l-1.936,0c-1.291,0 -1.936,0.535 -1.936,1.605c-0.645,1.07 -0.645,1.605 0.645,2.675c2.582,4.28 117.593,64.818 323.35,1.032c16.137,-2.14 21.438,3.21 21.438,16.05l0.062,108.111c0,9.095 -5.164,14.445 -15.491,15.515c-9.682,2.14 -331.94,3.745 -348.723,-4.815c-16.782,-8.56 -30.337,-19.796 -40.665,-32.636c-10.328,-12.84 -17.428,-26.216 -21.946,-40.661c-4.518,-14.445 -7.746,-27.286 -9.682,-38.521c-1.936,-8.56 -3.227,-14.98 -3.873,-18.19c-1.291,-3.21 -3.227,-4.815 -6.455,-4.815c-4.518,0 -7.1,1.605 -8.391,4.28c-1.291,2.675 -1.291,6.42 -1.291,11.77l0,107.538Zm14.846,-177.09c15.491,0 23.883,-8.56 23.883,-26.751c0,-8.025 -2.582,-14.445 -6.455,-19.261c-4.518,-4.28 -10.328,-6.955 -16.782,-6.955c-5.809,0 -9.682,1.07 -12.264,3.21c-2.582,2.14 -3.227,5.35 -3.227,10.165l0,26.216c0,9.095 4.518,13.375 14.2,13.375l0.645,0Zm-720.089,-3.585c35.133,0.658 88.506,7.992 115.716,43.434c4.518,5.885 8.391,12.84 11.619,20.866c2.582,8.025 4.518,17.655 4.518,29.426c0,15.515 -3.227,29.426 -9.682,42.266c-6.455,12.84 -16.137,23.541 -29.692,32.101c-14.2,9.095 -32.274,16.05 -54.866,20.866c-22.592,4.815 -50.347,6.955 -83.267,6.955l-228.778,0c-12.91,0 -19.364,-5.35 -19.364,-16.05l0,-342.409c0,-10.7 6.455,-16.05 19.364,-16.05c0,0 248.409,-1.782 282.075,7.49c21.421,5.9 33.565,11.77 45.183,20.331c11.619,9.095 20.01,19.796 25.174,32.101c5.164,12.84 7.746,26.751 7.746,42.266c0,12.305 -0.631,22.732 -3.873,29.961c-4.365,9.733 -10.855,17.371 -18.61,23.346c-18.825,14.505 -43.478,20.611 -63.263,23.102Zm-139.674,72.325c0,4.28 2.582,5.885 8.391,5.885l3.227,0c9.037,0 64.584,-0.535 71.684,-2.675c6.455,-2.14 10.328,-7.49 10.328,-16.05c0,-10.7 -3.227,-17.12 -9.037,-19.796c-5.809,-2.675 -13.555,-4.28 -22.592,-4.28l-53.611,0c-5.809,0 -8.391,3.21 -8.391,8.56l0,28.356Zm0,-99.513c0,6.42 2.582,9.095 8.391,9.095l32.011,0c16.782,0 25.819,-6.955 25.819,-21.401c0,-8.56 -3.227,-14.445 -9.037,-17.12c-6.455,-2.675 -12.264,-4.28 -18.073,-4.28l-30.72,0c-5.809,0 -8.391,2.14 -8.391,5.35l0,28.356Zm314.413,223.913l-3.727,-0.026c-16.136,-0.114 -14.984,-5.287 -14.99,-18.699l-0.144,-342.409c1.291,-8.56 7.746,-13.375 19.364,-13.375l197.187,0c116.512,0 153.34,355.785 153.34,355.785c3.227,12.84 -3.227,18.726 -18.719,18.726l-117.477,0c-11.619,0 -18.074,-4.28 -19.364,-13.375l-10.973,-57.781c-1.936,-8.56 -8.391,-13.375 -19.364,-13.375l-10.328,0c-11.618,0 -18.074,4.815 -19.364,13.375l-0.304,57.781c-1.937,9.095 -8.391,13.375 -19.364,13.375l-115.772,0Zm135.512,-226.846c0,0 -0.815,76.796 0.144,79.182c0.645,3.21 2.834,5.35 4.77,6.955c1.936,2.14 5.164,2.675 9.037,2.675l12.442,0c3.873,0 6.455,-0.535 8.391,-2.675c1.937,-1.605 3.228,-3.745 4.518,-6.955c0.646,-3.21 0.646,-6.42 0.646,-9.63c0,-3.21 -0.339,-6.97 -0.646,-10.165c-5.469,-56.809 -15.332,-64.407 -26.659,-64.323c-7.526,-0.293 -12.644,4.936 -12.644,4.936Zm614.293,641.907l-3.727,-0.026c-16.136,-0.114 -14.984,-5.287 -14.99,-18.699l-0.144,-342.409c1.291,-8.56 7.746,-13.375 19.364,-13.375l197.187,0c116.512,0 153.34,355.785 153.34,355.785c3.227,12.84 -3.227,18.726 -18.719,18.726l-117.477,0c-11.619,0 -18.074,-4.28 -19.364,-13.375l-10.973,-57.781c-1.936,-8.56 -8.391,-13.375 -19.364,-13.375l-10.328,0c-11.618,0 -18.074,4.815 -19.364,13.375l-0.304,57.781c-1.937,9.095 -8.391,13.375 -19.364,13.375l-115.772,0Zm135.512,-226.846c0,0 -0.815,76.796 0.144,79.182c0.645,3.21 2.834,5.35 4.77,6.955c1.936,2.14 5.164,2.675 9.037,2.675l12.442,0c3.873,0 6.455,-0.535 8.391,-2.675c1.937,-1.605 3.228,-3.745 4.518,-6.955c0.646,-3.21 0.646,-6.42 0.646,-9.63c0,-3.21 -0.339,-6.97 -0.646,-10.165c-5.469,-56.809 -15.332,-64.407 -26.659,-64.323c-7.526,-0.293 -12.644,4.936 -12.644,4.936Zm992.134,226.846l-3.727,-0.026c-16.136,-0.114 -14.984,-5.287 -14.99,-18.699l-0.144,-342.409c1.291,-8.56 7.746,-13.375 19.364,-13.375l197.187,0c116.512,0 153.34,355.785 153.34,355.785c3.227,12.84 -3.227,18.726 -18.719,18.726l-117.477,0c-11.619,0 -18.074,-4.28 -19.364,-13.375l-10.973,-57.781c-1.936,-8.56 -8.391,-13.375 -19.364,-13.375l-10.328,0c-11.618,0 -18.074,4.815 -19.364,13.375l-0.304,57.781c-1.937,9.095 -8.391,13.375 -19.364,13.375l-115.772,0Zm135.512,-226.846c0,0 -0.815,76.796 0.144,79.182c0.645,3.21 2.834,5.35 4.77,6.955c1.936,2.14 5.164,2.675 9.037,2.675l12.442,0c3.873,0 6.455,-0.535 8.391,-2.675c1.937,-1.605 3.228,-3.745 4.518,-6.955c0.646,-3.21 0.646,-6.42 0.646,-9.63c0,-3.21 -0.339,-6.97 -0.646,-10.165c-5.469,-56.809 -15.332,-64.407 -26.659,-64.323c-7.526,-0.293 -12.644,4.936 -12.644,4.936Z" style="fill:#0358f8;"/><path d="M960.514,778.215l22.633,-103.219c1.293,-7.49 3.122,-12.573 5.497,-15.248c2.364,-2.675 5.274,-4.013 8.73,-4.013c3.88,0 6.568,1.605 8.083,4.815c1.506,3.21 2.263,9.095 2.263,17.655l0,96.264c0,10.7 6.467,16.05 19.4,16.05l116.4,0c12.933,0 19.4,-5.35 19.4,-16.05l0,-342.409c0,-10.7 -6.467,-16.05 -19.4,-16.05l-172.014,0c-9.488,0 -15.308,3.035 -17.46,9.095l-40.093,96.245c-2.162,6.78 -3.991,12.489 -5.497,17.12c-1.516,4.64 -3.779,6.955 -6.79,6.955c-2.587,0 -4.749,-2.316 -6.467,-6.955c-1.728,-4.631 -3.668,-10.341 -5.82,-17.12l-40.093,-96.245c-2.162,-6.061 -7.982,-9.095 -17.46,-9.095l-172.014,0c-12.933,0 -19.4,5.35 -19.4,16.05l0,342.409c0,10.7 6.467,16.05 19.4,16.05l116.4,0c12.933,0 19.4,-5.35 19.4,-16.05l0,-96.264c0,-8.56 0.647,-14.445 1.94,-17.655c1.293,-3.21 3.658,-4.815 7.113,-4.815c3.011,0 6.143,1.338 9.377,4.013c3.233,2.675 5.497,8.117 6.79,16.318l21.987,102.149c0.859,4.28 3.011,7.407 6.467,9.363c3.446,1.965 7.538,2.943 12.287,2.943l80.187,0c4.739,0 8.831,-0.978 12.287,-2.943c3.446,-1.956 5.598,-5.083 6.467,-9.363Z" style="fill:#0358f8;fill-rule:nonzero;"/><path d="M2119.826,675.618l35.877,100.479c2.132,5.374 4.264,9.405 6.407,12.092c2.132,2.687 6.407,4.031 12.813,4.031l89.693,0c12.813,0 19.22,-5.374 19.22,-16.123l0,-343.964c0,-10.749 -6.407,-16.123 -19.22,-16.123l-115.319,0c-12.813,0 -19.22,5.374 -19.22,16.123l0,89.483c0,9.321 -0.641,15.317 -1.922,18.004c-1.281,2.687 -3.203,4.031 -5.766,4.031c-2.993,0 -7.047,-7.339 -12.173,-22.035l-29.47,-96.47c-0.861,-2.864 -1.822,-5.106 -2.883,-6.718c-1.071,-1.612 -3.744,-2.418 -8.008,-2.418l-106.35,0c-12.813,0 -19.22,5.374 -19.22,16.123l0,343.964c0,10.749 6.407,16.123 19.22,16.123l115.319,0c12.813,0 19.22,-5.374 19.22,-16.123l0,-93.493c0,-11.102 0.641,-18.088 1.922,-20.96c1.281,-2.864 3.624,-4.3 7.047,-4.3c2.563,0 4.805,1.797 6.727,5.374c1.922,3.586 3.944,7.885 6.086,12.899Z" style="fill:#0358f8;fill-rule:nonzero;"/></g></svg>